<svg xmlns="http://www.w3.org/2000/svg" width="251.663" height="52.329" viewBox="0 0 251.663 52.329"><defs><style>.a{fill:#363a3c;}.b{fill:#bec0c0;}.c{fill:#f79334;}.d{fill:#e1852c;}.e{fill:#c8caca;}.f{fill:#1bade2;}.g{fill:#269bc8;}.h{fill:#89c657;}.i{fill:#7db64f;}</style></defs><g transform="translate(64.663 -28)"><g transform="translate(-64.663 28)"><path class="a" d="M0,104.68H6.452c3.87,0,5.88,2.477,5.88,6.64,0,3.764-1.957,6.64-5.676,6.64H0Zm1.378,12.045H6.4c2.379,0,4.442-1.3,4.442-5.375,0-3.516-1.378-5.375-4.442-5.375H1.378Z" transform="translate(71.398 -82.225)"/><path class="a" d="M19.55,114.078c0,1.912.881,3.011,2.944,3.011,1.837,0,2.951-.67,2.951-3.275V104.63h1.378v9.561c0,2.379-1.378,4.05-4.4,4.05-4.148,0-4.2-3.011-4.238-4.683h1.37Z" transform="translate(66.904 -82.213)"/><path class="a" d="M33.05,114.63H38.7v1.378H33.05Z" transform="translate(63.229 -84.685)"/><path class="a" d="M44.22,104.68H54.76v1.265H45.6v4.517h8.846V111.7H45.6v4.984h9.335v1.265H44.22Z" transform="translate(60.468 -82.225)"/><path class="a" d="M63.552,114.122l-4.126-4.652H61.21l3.275,3.681,3.252-3.681h1.837l-4.186,4.652,4.517,5.021h-1.8l-3.591-4.005-3.568,4.02H59.14Z" transform="translate(56.78 -83.409)"/><path class="a" d="M75.32,105.42h1.37v3.011h2.77v1.046h-2.74v6.392c0,.836.263,1.227,1.378,1.227a7.078,7.078,0,0,0,1.363-.105v1.152a10.976,10.976,0,0,1-1.506.105c-2.138,0-2.6-.836-2.6-2.394v-6.376H73.25v-1.046h2.07Z" transform="translate(53.293 -82.408)"/><path class="a" d="M93.559,115.961c-.557,1.709-2.01,3.38-5.21,3.38-3.96,0-5.27-2.77-5.27-5.134a4.868,4.868,0,0,1,5.27-5.127c2.492,0,5.451,1.077,5.451,5.466H84.435a3.589,3.589,0,0,0,3.885,3.644c2.311,0,3.35-.753,3.832-2.258Zm-1.167-2.424a4.054,4.054,0,0,0-7.957,0Z" transform="translate(50.863 -83.313)"/><path class="a" d="M107.721,112.786c0-1.912-1.167-2.582-2.921-2.582-2.7,0-3.922,1.378-3.922,3.568v5.27H99.5v-9.666h1.378v1.9h0a4.232,4.232,0,0,1,4-2.191c3.222,0,4.186,1.671,4.186,3.975v6.023h-1.378Z" transform="translate(46.804 -83.315)"/><path class="a" d="M122.059,112.242c-.354-1.566-1.325-2.01-3.335-2.01-1.445,0-2.785.316-2.785,1.656,0,1,.647,1.2,3.591,1.6s4.178.911,4.178,2.793-1.558,3.064-4.592,3.064-4.886-1-4.886-3.327h1.265c.241,1.619,1.152,2.176,3.621,2.176,1.92,0,3.222-.391,3.222-1.837,0-.971-.693-1.4-3.7-1.694s-4.073-1.009-4.073-2.718,1.355-2.861,4.163-2.861c3.147,0,4.427,1.129,4.6,3.162Z" transform="translate(43.164 -83.313)"/><path class="a" d="M128.75,104.53h1.378v2.048H128.75Zm0,3.719h1.378v9.674H128.75Z" transform="translate(39.575 -82.188)"/><path class="a" d="M138.388,109.08c3.719,0,5.488,2.432,5.488,5.127s-1.769,5.134-5.488,5.134-5.488-2.432-5.488-5.134S134.669,109.08,138.388,109.08Zm0,9.109a3.981,3.981,0,1,0-4.11-3.982A3.786,3.786,0,0,0,138.388,118.189Z" transform="translate(38.549 -83.313)"/><path class="a" d="M158.071,112.786c0-1.912-1.174-2.582-2.921-2.582-2.7,0-3.922,1.378-3.922,3.568v5.27H149.85v-9.666h1.378v1.9h0a4.232,4.232,0,0,1,4-2.191c3.215,0,4.178,1.671,4.178,3.975v6.023h-1.37Z" transform="translate(34.359 -83.315)"/><path class="a" d="M172.429,112.242c-.354-1.566-1.317-2.01-3.328-2.01-1.453,0-2.793.316-2.793,1.656,0,1,.655,1.2,3.591,1.6s4.186.911,4.186,2.793-1.566,3.064-4.592,3.064-4.893-1-4.893-3.327h1.265c.241,1.619,1.152,2.176,3.629,2.176,1.912,0,3.215-.391,3.215-1.837,0-.971-.685-1.4-3.7-1.694s-4.073-1.009-4.073-2.718,1.355-2.861,4.163-2.861c3.139,0,4.427,1.129,4.592,3.162Z" transform="translate(30.714 -83.313)"/><path class="b" d="M180.11,119.6h1.6v2.048h-1.6Z" transform="translate(26.88 -85.913)"/><path class="b" d="M195.686,115.587a4.653,4.653,0,0,1-4.893,3.764c-3.493,0-5.443-2.1-5.443-5.134,0-2.9,1.784-5.127,5.443-5.127,3.312,0,4.6,2.063,4.818,3.456h-1.378c-.422-1.656-1.724-2.3-3.44-2.3a3.98,3.98,0,1,0,0,7.957,3.29,3.29,0,0,0,3.516-2.6Z" transform="translate(25.585 -83.315)"/><path class="b" d="M206.2,109.08c3.719,0,5.488,2.432,5.488,5.127s-1.769,5.134-5.488,5.134-5.488-2.432-5.488-5.134S202.434,109.08,206.2,109.08Zm0,9.109a3.981,3.981,0,1,0-4.11-3.982A3.785,3.785,0,0,0,206.2,118.189Z" transform="translate(21.789 -83.313)"/><path class="b" d="M232.712,112.908c0-1.769-.9-2.68-2.883-2.68a2.942,2.942,0,0,0-3.29,3.1v5.714h-1.378v-6.55c0-1.227-.873-2.258-2.755-2.258a3.18,3.18,0,0,0-3.418,3.365v5.45H217.61v-9.681h1.378v1.784h.038a3.983,3.983,0,0,1,3.824-2.078c2.176,0,3.184,1.152,3.463,2.115a4.261,4.261,0,0,1,3.764-2.115c2.71,0,3.975,1.37,3.975,3.365v6.6h-1.37Z" transform="translate(17.611 -83.309)"/><path class="c" d="M123.666,6.848C122.939,5.817,112.966,0,111.8,0S100.642,5.817,99.934,6.848c-.812,1.178-.757,12.391,0,13.7.671,1.166,10.517,6.848,11.866,6.848s11.188-5.683,11.866-6.848C124.423,19.239,124.471,8.026,123.666,6.848ZM120.1,18.494c-.47.818-7.361,4.8-8.3,4.8s-7.837-3.98-8.307-4.8c-.531-.916-.568-8.765,0-9.589.5-.72,7.489-4.8,8.307-4.8s7.807,4.077,8.3,4.8C120.669,9.729,120.632,17.579,120.1,18.494Z" transform="translate(-84.775)"/><path class="d" d="M120.371,26.113a4.406,4.406,0,0,1-.269,1.343c-.47.818-7.361,4.8-8.3,4.8s-7.837-3.98-8.307-4.8a4.462,4.462,0,0,1-.262-1.343A19.66,19.66,0,0,1,99.35,23c0,2.979.226,5.866.61,6.494.671,1.166,10.517,6.848,11.866,6.848s11.188-5.683,11.866-6.848c.36-.61.562-3.516.58-6.494A19.446,19.446,0,0,1,120.371,26.113Z" transform="translate(-84.777 -8.961)"/><path class="e" d="M119.924,27.913c-1.221,1.135-7.239,4.59-8.118,4.59s-6.928-3.455-8.124-4.59A18.922,18.922,0,0,1,99.36,23.64c0,2.844.232,5.53.61,6.134.671,1.166,10.517,6.848,11.866,6.848s11.188-5.683,11.866-6.848c.342-.61.543-3.29.58-6.1A18.922,18.922,0,0,1,119.924,27.913Z" transform="translate(-84.781 -9.211)"/><path class="b" d="M127.868,27.924c-1.221,1.135-7.239,4.59-8.118,4.59v4.108c1.349,0,11.188-5.683,11.866-6.848.342-.61.543-3.29.58-6.1a18.921,18.921,0,0,1-4.328,4.254Z" transform="translate(-92.725 -9.222)"/><path class="f" d="M75.905,47.685c-.537,1.129-.61,12.684,0,13.7s10.614,6.751,11.866,6.855c1.422.11,11.109-5.542,11.866-6.855.671-1.166.671-12.531,0-13.7S89.12,40.83,87.771,40.83C86.257,40.83,76.515,46.427,75.905,47.685Zm11.866-2.741c.946,0,7.831,3.974,8.3,4.791s.476,8.777,0,9.6c-.531.916-7.324,4.883-8.307,4.791-.867-.067-7.892-4.083-8.307-4.791s-.378-8.8,0-9.6C79.891,48.869,86.709,44.944,87.771,44.944Z" transform="translate(-75.474 -15.908)"/><path class="g" d="M90.544,45.383a4.578,4.578,0,0,1,1.3-.439c.946,0,7.831,3.974,8.3,4.791s.476,8.777,0,9.6a4.365,4.365,0,0,1-1.038.9,19.776,19.776,0,0,1-.732,4.883c2.564-1.508,4.962-3.125,5.329-3.754.671-1.166.671-12.531,0-13.7s-10.511-6.83-11.86-6.83c-.726,0-3.327,1.276-5.915,2.741a19.733,19.733,0,0,1,4.614,1.813Z" transform="translate(-79.548 -15.908)"/><path class="e" d="M92.312,45c1.581.47,7.593,3.974,8.033,4.736s.476,7.727.092,9.333a18.952,18.952,0,0,1-1.55,5.884c2.442-1.453,4.675-2.966,5.023-3.571.671-1.166.671-12.531,0-13.7S93.392,40.83,92.043,40.83c-.7,0-3.119,1.172-5.6,2.564A18.842,18.842,0,0,1,92.312,45Z" transform="translate(-79.747 -15.908)"/><path class="b" d="M92.312,45c1.581.47,7.593,3.974,8.033,4.736l3.565-2.051c-.647-1.172-10.517-6.854-11.866-6.854-.7,0-3.119,1.172-5.6,2.564A18.842,18.842,0,0,1,92.312,45Z" transform="translate(-79.747 -15.908)"/><path class="h" d="M135.983,68.236c1.221-.1,11.28-5.841,11.866-6.854s.537-12.568,0-13.7c-.61-1.288-10.376-6.855-11.866-6.855-1.349,0-11.194,5.683-11.866,6.855s-.678,12.531,0,13.7C124.874,62.694,134.561,68.346,135.983,68.236Zm-8.307-8.905c-.47-.818-.47-8.777,0-9.6s7.361-4.791,8.307-4.791c1.056,0,7.874,3.894,8.3,4.791.378.793.409,8.881,0,9.6s-7.428,4.724-8.3,4.791C134.988,64.2,128.207,60.246,127.676,59.33Z" transform="translate(-94.23 -15.908)"/><path class="i" d="M128.747,60.216a4.425,4.425,0,0,1-1.032-.9c-.47-.818-.47-8.777,0-9.6s7.361-4.791,8.307-4.791a4.5,4.5,0,0,1,1.294.439,19.678,19.678,0,0,1,4.621-1.831c-2.588-1.465-5.194-2.741-5.915-2.741-1.349,0-11.194,5.683-11.866,6.854s-.678,12.531,0,13.7c.36.61,2.765,2.246,5.329,3.754A19.532,19.532,0,0,1,128.747,60.216Z" transform="translate(-94.245 -15.897)"/><path class="e" d="M127.584,59.056c-.378-1.605-.348-8.545.092-9.333s6.452-4.273,8.033-4.737a18.842,18.842,0,0,1,5.872-1.624c-2.478-1.392-4.883-2.564-5.6-2.564-1.349,0-11.194,5.683-11.866,6.855s-.678,12.531,0,13.7c.348.61,2.57,2.118,5.017,3.571a19.122,19.122,0,0,1-1.55-5.866Z" transform="translate(-94.23 -15.897)"/><path class="b" d="M127.583,63.443c-.378-1.605-.348-8.545.092-9.333l-3.558-2.051c-.678,1.166-.678,12.531,0,13.7.348.61,2.57,2.118,5.017,3.571a19.123,19.123,0,0,1-1.55-5.884Z" transform="translate(-94.228 -20.284)"/></g></g></svg>