<svg width="54" height="54" viewBox="0 0 54 54" fill="none" xmlns="http://www.w3.org/2000/svg">
<path d="M26.993 13.6326C19.5957 13.6326 13.6257 19.6027 13.6257 27.0001C13.6257 34.3976 19.5957 40.3677 26.993 40.3677C34.3903 40.3677 40.3603 34.3976 40.3603 27.0001C40.3603 19.6027 34.3903 13.6326 26.993 13.6326ZM26.993 35.688C22.2092 35.688 18.3052 31.784 18.3052 27.0001C18.3052 22.2163 22.2092 18.3122 26.993 18.3122C31.7768 18.3122 35.6807 22.2163 35.6807 27.0001C35.6807 31.784 31.7768 35.688 26.993 35.688ZM40.9077 9.96975C39.1806 9.96975 37.7859 11.3645 37.7859 13.0917C37.7859 14.8188 39.1806 16.2136 40.9077 16.2136C42.6348 16.2136 44.0296 14.8253 44.0296 13.0917C44.0301 12.6815 43.9497 12.2754 43.793 11.8964C43.6363 11.5174 43.4063 11.173 43.1164 10.883C42.8264 10.593 42.482 10.3631 42.103 10.2063C41.724 10.0496 41.3178 9.96924 40.9077 9.96975ZM53.0497 27.0001C53.0497 23.4024 53.0823 19.8373 52.8803 16.2462C52.6782 12.0749 51.7267 8.37295 48.6765 5.32273C45.6198 2.266 41.9244 1.32095 37.7533 1.1189C34.1557 0.91686 30.5906 0.949448 26.9995 0.949448C23.4019 0.949448 19.8368 0.91686 16.2457 1.1189C12.0746 1.32095 8.37266 2.27251 5.3225 5.32273C2.26582 8.37947 1.32079 12.0749 1.11875 16.2462C0.916708 19.8439 0.949296 23.409 0.949296 27.0001C0.949296 30.5913 0.916708 34.1629 1.11875 37.7541C1.32079 41.9254 2.27234 45.6273 5.3225 48.6775C8.37918 51.7343 12.0746 52.6793 16.2457 52.8814C19.8434 53.0834 23.4084 53.0508 26.9995 53.0508C30.5971 53.0508 34.1622 53.0834 37.7533 52.8814C41.9244 52.6793 45.6264 51.7278 48.6765 48.6775C51.7332 45.6208 52.6782 41.9254 52.8803 37.7541C53.0888 34.1629 53.0497 30.5978 53.0497 27.0001ZM47.3144 42.3685C46.8386 43.5547 46.2651 44.4411 45.3461 45.3536C44.4271 46.2726 43.5473 46.8461 42.3611 47.3219C38.9329 48.6841 30.7927 48.3777 26.993 48.3777C23.1933 48.3777 15.0465 48.6841 11.6183 47.3284C10.4322 46.8526 9.5458 46.2791 8.63336 45.3601C7.7144 44.4411 7.14086 43.5613 6.66509 42.3751C5.30946 38.9403 5.61578 30.7999 5.61578 27.0001C5.61578 23.2004 5.30946 15.0535 6.66509 11.6252C7.14086 10.439 7.7144 9.55263 8.63336 8.64017C9.55232 7.72771 10.4322 7.14765 11.6183 6.67187C15.0465 5.31622 23.1933 5.62254 26.993 5.62254C30.7927 5.62254 38.9395 5.31622 42.3676 6.67187C43.5538 7.14765 44.4402 7.72119 45.3526 8.64017C46.2716 9.55915 46.8451 10.439 47.3209 11.6252C48.6765 15.0535 48.3702 23.2004 48.3702 27.0001C48.3702 30.7999 48.6765 38.9403 47.3144 42.3685Z" fill="white"/>
</svg>
