<svg width="20" height="21" viewBox="0 0 27 21" fill="none" xmlns="http://www.w3.org/2000/svg">
<path d="M26.0357 0H0.964286C0.430915 0 0 0.426562 0 0.954545V20.0455C0 20.5734 0.430915 21 0.964286 21H26.0357C26.5691 21 27 20.5734 27 20.0455V0.954545C27 0.426562 26.5691 0 26.0357 0ZM23.6009 3.24844L14.0936 10.5716C13.8586 10.7536 13.5301 10.7536 13.2951 10.5716L3.78482 3.24844C3.74897 3.22105 3.72268 3.18324 3.70962 3.14032C3.69657 3.0974 3.69741 3.0515 3.71203 3.00908C3.72665 2.96665 3.75431 2.92981 3.79114 2.90373C3.82797 2.87765 3.87213 2.86363 3.91741 2.86364H23.4683C23.5136 2.86363 23.5577 2.87765 23.5946 2.90373C23.6314 2.92981 23.6591 2.96665 23.6737 3.00908C23.6883 3.0515 23.6891 3.0974 23.6761 3.14032C23.663 3.18324 23.6367 3.22105 23.6009 3.24844Z" fill="#ED1C24"/>
</svg>
