<?xml version="1.0" encoding="utf-8"?>
<!-- Generator: Adobe Illustrator 25.0.1, SVG Export Plug-In . SVG Version: 6.00 Build 0)  -->
<svg version="1.1" id="Logo" xmlns="http://www.w3.org/2000/svg" xmlns:xlink="http://www.w3.org/1999/xlink" x="0px" y="0px"
	 viewBox="0 0 460 102" style="enable-background:new 0 0 460 102;" xml:space="preserve">
<style type="text/css">
	.st0{fill:url(#SVGID_1_);}
	.st1{fill:url(#SVGID_2_);}
	.st2{fill:url(#SVGID_3_);}
	.st3{fill:url(#SVGID_4_);}
	.st4{fill:url(#SVGID_5_);}
	.st5{fill:url(#SVGID_6_);}
	.st6{fill:#ED1C24;}
	.st7{fill:#414042;}
</style>
<radialGradient id="SVGID_1_" cx="49.5494" cy="1025.5" r="23.7805" gradientTransform="matrix(1 0 0 1 0 -976)" gradientUnits="userSpaceOnUse">
	<stop  offset="0" style="stop-color:#FFFFFF"/>
	<stop  offset="1" style="stop-color:#E1E1E5"/>
</radialGradient>
<path class="st0" d="M61.6,76.5H37.5c-4.4,0-7.9-3.5-7.9-7.9V30.4c0-4.4,3.5-7.9,7.9-7.9h24.2c4.4,0,7.9,3.5,7.9,7.9v38.2
	C69.5,73,66,76.5,61.6,76.5z"/>
<radialGradient id="SVGID_2_" cx="91.4583" cy="1025.5" r="23.7768" gradientTransform="matrix(1 0 0 1 0 -976)" gradientUnits="userSpaceOnUse">
	<stop  offset="0" style="stop-color:#FFFFFF"/>
	<stop  offset="1" style="stop-color:#E1E1E5"/>
</radialGradient>
<path class="st1" d="M103.6,76.5H79.4c-4.4,0-7.9-3.5-7.9-7.9V30.4c0-4.4,3.5-7.9,7.9-7.9h24.2c4.4,0,7.9,3.5,7.9,7.9v38.2
	C111.5,73,107.9,76.5,103.6,76.5z"/>
<linearGradient id="SVGID_3_" gradientUnits="userSpaceOnUse" x1="133.3" y1="1052.5" x2="133.3" y2="998.5" gradientTransform="matrix(1 0 0 1 0 -976)">
	<stop  offset="3.631280e-02" style="stop-color:#ED1C24"/>
	<stop  offset="1" style="stop-color:#FFE9BF"/>
</linearGradient>
<path class="st2" d="M145.4,76.5h-24.2c-4.4,0-7.9-3.5-7.9-7.9V30.4c0-4.4,3.5-7.9,7.9-7.9h24.2c4.4,0,7.9,3.5,7.9,7.9v38.2
	C153.3,73,149.8,76.5,145.4,76.5z"/>
<g>
	<g>
		
			<linearGradient id="SVGID_4_" gradientUnits="userSpaceOnUse" x1="49.5076" y1="1040.6243" x2="49.5076" y2="1015.8769" gradientTransform="matrix(1 0 0 1 0 -976)">
			<stop  offset="0" style="stop-color:#EC2027;stop-opacity:4.000000e-02"/>
			<stop  offset="0.6567" style="stop-color:#EC2027"/>
		</linearGradient>
		<path class="st3" d="M60.4,46c-0.3-1.7-1.9-3.5-4.2-4c-2.5-0.5-5,0.8-6.7,2.4c-1.7-1.6-4.3-2.9-6.7-2.4c-2.3,0.5-3.9,2.3-4.2,4
			c-1.2,7.1,9.1,13.1,10.9,13.2l0,0l0,0l0,0l0,0C51.3,59.1,61.7,53.1,60.4,46z"/>
	</g>
</g>
<g>
	<g>
		
			<linearGradient id="SVGID_5_" gradientUnits="userSpaceOnUse" x1="91.4076" y1="1038.0876" x2="91.4076" y2="1020.8279" gradientTransform="matrix(1 0 0 1 0 -976)">
			<stop  offset="0" style="stop-color:#EC2027;stop-opacity:4.000000e-02"/>
			<stop  offset="0.6567" style="stop-color:#EC2027"/>
		</linearGradient>
		<path class="st4" d="M102.3,46c-0.3-1.7-1.9-3.5-4.2-4c-2.5-0.5-5,0.8-6.7,2.4c-1.7-1.6-4.3-2.9-6.7-2.4c-2.3,0.5-3.9,2.3-4.2,4
			c-1.2,7.1,9.1,13.1,10.9,13.2l0,0l0,0l0,0l0,0C93.2,59.1,103.6,53.1,102.3,46z"/>
	</g>
</g>
<g>
	<g>
		
			<linearGradient id="SVGID_6_" gradientUnits="userSpaceOnUse" x1="133.3" y1="1025.7462" x2="133.3" y2="1002.7274" gradientTransform="matrix(1 0 0 1 0 -976)">
			<stop  offset="0" style="stop-color:#FFFFFF"/>
			<stop  offset="0.9637" style="stop-color:#FFFFFF;stop-opacity:4.000000e-02"/>
		</linearGradient>
		<path class="st5" d="M144.2,36c-0.3-1.7-1.9-3.5-4.2-4c-2.5-0.5-5,0.8-6.7,2.4c-1.7-1.6-4.3-2.9-6.7-2.4c-2.3,0.5-3.9,2.3-4.2,4
			c-1.2,7.1,9.1,13.1,10.9,13.2l0,0l0,0l0,0l0,0C135.1,49.1,145.4,43.1,144.2,36z"/>
	</g>
</g>
<g>
	<path class="st6" d="M198.4,49.9c0,1.1-0.3,1.3-1.3,1.3h-0.9c-1.1,0-1.3-0.2-1.3-1.3V38.6c0-1.9,0-5.2,0.3-7
		c-0.3,0.8-0.5,1.9-1,3.1l-6,15.6c-0.3,0.7-0.7,0.9-1.4,0.9h-1c-0.7,0-1.1-0.2-1.4-0.9l-5.9-15.6c-0.4-1.2-0.8-2.1-1-2.9
		c0.3,1.7,0.3,4.9,0.3,6.6V50c0,1.1-0.2,1.3-1.3,1.3h-0.9c-1.1,0-1.3-0.2-1.3-1.3V30.1c0-1.4,0.2-1.6,1.6-1.6h2.5
		c1.4,0,1.6,0.3,2,1.4l5.4,15.1c0.3,0.7,0.4,1.8,0.5,2.5c0.1-0.7,0.3-1.8,0.5-2.5l5.7-15.1c0.4-1.2,0.6-1.4,2-1.4h2.3
		c1.3,0,1.6,0.2,1.6,1.6L198.4,49.9L198.4,49.9z"/>
	<path class="st6" d="M210,36.1c5.1,0,8,3,8,7.7s-2.9,7.6-8,7.6c-5.2,0-8-3-8-7.6S204.9,36.1,210,36.1z M210,48.3
		c2.7,0,4.3-1.8,4.3-4.4c0-2.6-1.6-4.5-4.3-4.5s-4.3,1.9-4.3,4.5C205.7,46.4,207.3,48.3,210,48.3z"/>
	<path class="st6" d="M222.5,57.6c-1-0.4-1.6-1.2-1.6-2.3c0-0.9,0.4-1,1.1-0.8c1.2,0.4,3,1,5.4,1s5-0.8,5-4.8v-1.1
		c-1.1,1.1-2.6,1.9-4.8,1.9c-4.4,0-7.1-3.1-7.1-7.6s2.7-7.7,7.1-7.7c2.3,0,3.9,0.8,4.9,2c0.3-1.2,1.2-1.8,2.8-1.8
		c0.7,0,0.7,0.3,0.7,1.2v13.6c0,5.5-3.8,7.4-8.3,7.4C225.1,58.5,223.5,58.1,222.5,57.6z M228.4,39.4c-2.8,0-4.1,2-4.1,4.4
		s1.3,4.4,4.1,4.4c2.9,0,4.2-2.1,4.2-4.4C232.6,41.5,231.3,39.4,228.4,39.4z"/>
	<path class="st6" d="M243.8,39.2v5.9c0,1.6,0.7,3,3,3c2.2,0,3.2-1.2,3.4-3.1v-7.4c0-0.9,0-1.2,0.7-1.2c2,0,2.9,0.9,2.9,2.8v10.9
		c0,0.9,0,1.2-0.7,1.2c-1.7,0-2.6-0.5-2.8-1.8c-0.9,1.1-2.4,1.8-4.5,1.8c-3.9,0-5.5-2.2-5.5-6.2v-7.6c0-0.9,0-1.2,0.7-1.2
		C242.9,36.4,243.8,37.2,243.8,39.2z"/>
	<path class="st6" d="M265,28.5c5.2,0,8.9,2.1,8.9,7c0,5.2-3.7,7.1-8.9,7.1h-2.9v7.2c0,1.2-0.2,1.4-1.4,1.4h-1
		c-1.2,0-1.4-0.2-1.4-1.4V30.2c0-1.4,0.2-1.6,1.6-1.6h5.1V28.5z M262.1,31.6v8h2.9c3,0,4.9-1.3,4.9-4c0-2.8-1.9-4-4.9-4
		C265,31.6,262.1,31.6,262.1,31.6z"/>
	<path class="st6" d="M283,36.1c5.1,0,8,3,8,7.7s-2.9,7.6-8,7.6c-5.2,0-8-3-8-7.6S277.8,36.1,283,36.1z M283,48.3
		c2.7,0,4.3-1.8,4.3-4.4c0-2.6-1.6-4.5-4.3-4.5c-2.7,0-4.3,1.9-4.3,4.5C278.6,46.4,280.2,48.3,283,48.3z"/>
	<path class="st6" d="M297.7,38c0.9-1.1,2.4-1.9,4.5-1.9c2.2,0,3.6,0.9,4.3,2.4c0.9-1.4,2.5-2.4,4.7-2.4c3.6,0,5.3,2.2,5.3,5.9v7.8
		c0,1.2-0.2,1.4-1.4,1.4h-0.8c-1.2,0-1.4-0.2-1.4-1.4v-7c0-2.3-0.6-3.7-2.6-3.7c-1.8,0-3,1.4-3.2,3.1v7.6c0,1.2-0.3,1.4-1.4,1.4H305
		c-1.2,0-1.4-0.2-1.4-1.4v-7.2c0-1.9-0.7-3.4-2.7-3.4c-2.1,0-3,1.5-3.1,3.4v7.2c0,1.2-0.2,1.4-1.4,1.4h-0.8c-1.2,0-1.4-0.2-1.4-1.4
		V37.6c0-0.9,0-1.2,0.7-1.2C296.6,36.4,297.4,36.9,297.7,38z"/>
	<path class="st6" d="M327.9,36.1c5.1,0,8,3,8,7.7s-2.9,7.6-8,7.6c-5.2,0-8-3-8-7.6S322.7,36.1,327.9,36.1z M327.9,48.3
		c2.7,0,4.3-1.8,4.3-4.4c0-2.6-1.6-4.5-4.3-4.5c-2.7,0-4.3,1.9-4.3,4.5C323.5,46.4,325.1,48.3,327.9,48.3z"/>
	<path class="st6" d="M340.3,57.6c-1-0.4-1.6-1.2-1.6-2.3c0-0.9,0.4-1,1.1-0.8c1.2,0.4,3,1,5.4,1s5-0.8,5-4.8v-1.1
		c-1.1,1.1-2.6,1.9-4.8,1.9c-4.4,0-7.1-3.1-7.1-7.6s2.7-7.7,7.1-7.7c2.3,0,3.9,0.8,4.9,2c0.3-1.2,1.2-1.8,2.8-1.8
		c0.7,0,0.7,0.3,0.7,1.2v13.6c0,5.5-3.8,7.4-8.3,7.4C343,58.5,341.4,58.1,340.3,57.6z M346.3,39.4c-2.8,0-4.1,2-4.1,4.4
		s1.3,4.4,4.1,4.4c2.9,0,4.2-2.1,4.2-4.4C350.4,41.5,349.1,39.4,346.3,39.4z"/>
	<path class="st6" d="M361.6,39.2v5.9c0,1.6,0.7,3,3,3c2.2,0,3.2-1.2,3.4-3.1v-7.4c0-0.9,0-1.2,0.7-1.2c2,0,2.9,0.9,2.9,2.8v10.9
		c0,0.9,0,1.2-0.7,1.2c-1.7,0-2.6-0.5-2.8-1.8c-0.9,1.1-2.4,1.8-4.5,1.8c-3.9,0-5.5-2.2-5.5-6.2v-7.6c0-0.9,0-1.2,0.7-1.2
		C360.8,36.4,361.6,37.2,361.6,39.2z"/>
	<path class="st7" d="M377.3,47.6c1.3,0,2.1,0.8,2.1,2s-0.9,2-2.1,2s-2.1-0.8-2.1-2S376.1,47.6,377.3,47.6z"/>
	<path class="st7" d="M390.4,36.1c5.1,0,8,3,8,7.7s-2.9,7.6-8,7.6c-5.2,0-8-3-8-7.6S385.3,36.1,390.4,36.1z M390.4,48.3
		c2.7,0,4.3-1.8,4.3-4.4c0-2.6-1.6-4.5-4.3-4.5c-2.7,0-4.3,1.9-4.3,4.5C386.1,46.4,387.7,48.3,390.4,48.3z"/>
	<path class="st7" d="M405.3,44.5v5.3c0,1.2-0.2,1.4-1.4,1.4h-0.8c-1.2,0-1.4-0.2-1.4-1.4V37.6c0-0.9,0-1.2,0.7-1.2
		c1.7,0,2.6,0.6,2.8,2c0.9-1.9,2.2-2.5,3.8-2.5c2,0,2.6,1,2.6,2.6c0,0.7-0.1,0.8-0.8,0.7c-0.8-0.1-1.2-0.2-1.7-0.2
		C406.5,39.1,405.4,41.1,405.3,44.5z"/>
	<path class="st7" d="M414.8,57.6c-1-0.4-1.6-1.2-1.6-2.3c0-0.9,0.4-1,1.1-0.8c1.2,0.4,3,1,5.4,1s5-0.8,5-4.8v-1.1
		c-1.1,1.1-2.6,1.9-4.8,1.9c-4.4,0-7.1-3.1-7.1-7.6s2.7-7.7,7.1-7.7c2.3,0,3.9,0.8,4.9,2c0.3-1.2,1.2-1.8,2.8-1.8
		c0.7,0,0.7,0.3,0.7,1.2v13.6c0,5.5-3.8,7.4-8.3,7.4C417.5,58.5,415.9,58.1,414.8,57.6z M420.8,39.4c-2.8,0-4.1,2-4.1,4.4
		s1.3,4.4,4.1,4.4c2.9,0,4.2-2.1,4.2-4.4C424.9,41.5,423.7,39.4,420.8,39.4z"/>
</g>
<g>
	<g>
		<path class="st7" d="M174.9,71.9c0.5-0.6,1.2-2.1,1.6-5.8l0.2-2.8h7.3V72h1.3v4h-2v-2h-7.2v2h-2v-4L174.9,71.9L174.9,71.9z
			 M177.2,71.9h4.5v-6.7h-3.2l-0.1,1.3C178.2,69.7,177.7,71.3,177.2,71.9z"/>
		<path class="st7" d="M193.3,73.1c-0.5,0.6-1.4,1-2.4,1c-1.2,0-2.7-0.8-2.7-2.6c0-1.8,1.5-2.5,2.7-2.5c1,0,1.9,0.3,2.4,0.9v-1.1
			c0-0.8-0.7-1.3-1.7-1.3c-0.8,0-1.6,0.3-2.3,0.9l-0.8-1.4c0.9-0.8,2.2-1.2,3.4-1.2c1.8,0,3.4,0.7,3.4,2.9v5h-2L193.3,73.1
			L193.3,73.1z M193.3,71.1c-0.3-0.4-1-0.7-1.6-0.7c-0.8,0-1.5,0.4-1.5,1.2c0,0.7,0.7,1.1,1.5,1.1c0.7,0,1.3-0.2,1.6-0.7V71.1z"/>
		<path class="st7" d="M199.4,76.8V66.2h2v1c0.6-0.8,1.4-1.2,2.4-1.2c2,0,3.4,1.5,3.4,4s-1.4,4.1-3.4,4.1c-0.9,0-1.8-0.4-2.4-1.2
			v3.9H199.4z M203.1,67.8c-0.7,0-1.4,0.4-1.7,0.9v2.7c0.3,0.5,1.1,0.9,1.7,0.9c1.2,0,2-0.9,2-2.3C205.1,68.7,204.3,67.8,203.1,67.8
			z"/>
		<path class="st7" d="M210.8,66.2h2V71l3.2-4.8h2v7.7h-2V69l-3.3,4.9h-2v-7.7H210.8z"/>
		<path class="st7" d="M228.2,66.2h2V71l3.2-4.8h2v7.7h-2V69l-3.3,4.9h-2v-7.7H228.2z"/>
		<path class="st7" d="M251,67.9h-3.2v6h-2v-7.7h7.3v7.7h-2v-6H251z"/>
		<path class="st7" d="M256.5,70c0-2.2,1.5-4,4.1-4s4.1,1.9,4.1,4c0,2.2-1.5,4.1-4.1,4.1C258.1,74.1,256.5,72.2,256.5,70z M262.6,70
			c0-1.2-0.7-2.2-2-2.2s-2,1-2,2.2s0.7,2.3,2,2.3S262.6,71.2,262.6,70z"/>
		<path class="st7" d="M269,68l0.1-1.8h6.2v7.7h-2v-6h-2.5v0.5c-0.3,4.4-1.5,5.6-3.4,5.6v-2C268.1,72.1,268.7,71.4,269,68z"/>
		<path class="st7" d="M280.1,75.2c0.5,0,0.9-0.1,1.1-0.6l0.3-0.7l-3.1-7.8h2.2l2,5.4l2-5.4h2.2l-3.6,9c-0.6,1.5-1.6,1.8-2.9,1.9
			c-0.2,0-0.8,0-1-0.1l0.3-1.8C279.6,75.2,279.9,75.2,280.1,75.2z"/>
		<path class="st7" d="M291.4,68.2c0,1.1,0.6,1.4,1.6,1.4c0.7,0,1.2-0.1,1.6-0.3v-3.2h2v7.7h-2V71c-0.5,0.2-1.3,0.5-2.3,0.5
			c-2.2,0-3-0.9-3-2.5v-2.8h2L291.4,68.2L291.4,68.2z"/>
		<path class="st7" d="M305.4,73.1c-0.5,0.6-1.4,1-2.4,1c-1.2,0-2.7-0.8-2.7-2.6c0-1.8,1.5-2.5,2.7-2.5c1,0,1.9,0.3,2.4,0.9v-1.1
			c0-0.8-0.7-1.3-1.7-1.3c-0.8,0-1.6,0.3-2.3,0.9l-0.8-1.4c0.9-0.8,2.2-1.2,3.4-1.2c1.8,0,3.4,0.7,3.4,2.9v5h-2V73.1z M305.4,71.1
			c-0.3-0.4-1-0.7-1.6-0.7c-0.8,0-1.5,0.4-1.5,1.2c0,0.7,0.7,1.1,1.5,1.1c0.7,0,1.3-0.2,1.6-0.7V71.1z"/>
		<path class="st7" d="M311.5,66.2h2V71l3.2-4.8h2v7.7h-2V69l-3.3,4.9h-2L311.5,66.2L311.5,66.2z M312.2,63.6l1.1-0.9
			c0.4,0.6,1,0.9,1.8,0.9c0.7,0,1.4-0.4,1.8-0.9l1.1,0.9c-0.7,0.9-1.7,1.4-2.9,1.4S312.9,64.5,312.2,63.6z"/>
		<path class="st7" d="M332.5,66c1.6,0,2.5,0.7,3.1,1.4l-1.3,1.2c-0.4-0.5-0.9-0.8-1.6-0.8c-1.2,0-2.1,0.9-2.1,2.2s0.9,2.3,2.1,2.3
			c0.7,0,1.3-0.3,1.6-0.8l1.3,1.2c-0.5,0.7-1.5,1.4-3.1,1.4c-2.4,0-4.1-1.7-4.1-4.1C328.4,67.6,330.1,66,332.5,66z"/>
		<path class="st6" d="M346,68l0.1-1.8h6.2v7.7h-2v-6h-2.5v0.5c-0.3,4.4-1.5,5.6-3.4,5.6v-2C345.1,72.1,345.7,71.4,346,68z"/>
		<path class="st6" d="M367.9,70c0,2.2-1.5,4.1-4.1,4.1c-2.2,0-3.7-1.4-4-3.3h-1.3v3.1h-2v-7.7h2V69h1.3c0.4-1.7,1.8-3.1,4-3.1
			C366.3,66,367.9,67.8,367.9,70z M365.8,70c0-1.2-0.7-2.2-2-2.2s-2,1-2,2.2s0.7,2.3,2,2.3C365,72.3,365.8,71.2,365.8,70z"/>
		<path class="st6" d="M375.8,63.3l2.3-0.4v1.9l-2.1,0.3c-2.3,0.4-3.3,1.2-3.6,2.7c0.7-1,1.9-1.5,3-1.5c2.2,0,3.6,1.6,3.6,3.7
			c0,2.2-1.5,4-4.1,4s-4.1-1.9-4.1-4.9C370.9,65.9,372.2,63.8,375.8,63.3z M375,67.8c-1.3,0-2,1-2,2.2s0.7,2.3,2,2.3s2-1,2-2.3
			C377,68.8,376.3,67.8,375,67.8z"/>
		<path class="st6" d="M382.2,70c0-2.2,1.5-4,4.1-4s4.1,1.9,4.1,4c0,2.2-1.5,4.1-4.1,4.1S382.2,72.2,382.2,70z M388.2,70
			c0-1.2-0.7-2.2-2-2.2s-2,1-2,2.2s0.7,2.3,2,2.3S388.2,71.2,388.2,70z"/>
		<path class="st6" d="M393.9,66.2h4.7c1.8,0,2.6,0.9,2.6,2c0,0.9-0.6,1.6-1.3,1.8c0.8,0.2,1.5,1,1.5,1.9c0,1.2-0.8,2.1-2.6,2.1H394
			v-7.8H393.9z M398.3,67.8h-2.4v1.4h2.4c0.5,0,0.8-0.3,0.8-0.7C399.1,68.1,398.8,67.8,398.3,67.8z M398.4,70.7h-2.5v1.5h2.5
			c0.5,0,0.8-0.3,0.8-0.8C399.2,71.1,398.9,70.7,398.4,70.7z"/>
		<path class="st6" d="M406.9,68.6h2.6c1.9,0,2.7,1.3,2.7,2.6c0,1.3-0.9,2.6-2.7,2.6h-4.6v-7.7h2V68.6z M406.9,72.2h2.3
			c0.7,0,1-0.4,1-0.9s-0.3-0.9-1-0.9h-2.3V72.2z"/>
		<path class="st6" d="M427.2,70c0,2.2-1.5,4.1-4.1,4.1c-2.2,0-3.7-1.4-4-3.3h-1.3v3.1h-2v-7.7h2V69h1.3c0.4-1.7,1.8-3.1,4-3.1
			C425.7,66,427.2,67.8,427.2,70z M425.1,70c0-1.2-0.7-2.2-2-2.2s-2,1-2,2.2s0.7,2.3,2,2.3S425.1,71.2,425.1,70z"/>
	</g>
</g>
</svg>
