<svg xmlns="http://www.w3.org/2000/svg" xmlns:xlink="http://www.w3.org/1999/xlink" width="596" height="428" viewBox="0 0 596 428"><defs><style>.cls-1{fill:url(#Безымянный_градиент_2);}.cls-2{fill:none;}.cls-3,.cls-5{fill:#ed1c24;}.cls-16,.cls-3,.cls-6{opacity:0.1;}.cls-11,.cls-12,.cls-14,.cls-16,.cls-17,.cls-18,.cls-19,.cls-22,.cls-3,.cls-6,.cls-7,.cls-8,.cls-9{isolation:isolate;}.cls-11,.cls-4{fill:#263238;}.cls-10,.cls-12,.cls-14,.cls-18,.cls-6,.cls-8,.cls-9{fill:#fff;}.cls-14,.cls-19,.cls-7{opacity:0.2;}.cls-8{opacity:0.6;}.cls-9{opacity:0.4;}.cls-11,.cls-17,.cls-18{opacity:0.3;}.cls-12{opacity:0.7;}.cls-13{fill:#e4897b;}.cls-15{fill:#de5753;}.cls-19,.cls-20{fill:#2e353a;}.cls-21{fill:#fde7e8;}</style><linearGradient id="Безымянный_градиент_2" x1="-0.59" y1="514.88" x2="-0.59" y2="513.89" gradientTransform="matrix(596, 0, 0, -428, 652, 220372)" gradientUnits="userSpaceOnUse"><stop offset="0" stop-color="#fff"/><stop offset="1" stop-color="#ffe9e1"/></linearGradient></defs><title>nuzda</title><g id="Слой_2" data-name="Слой 2"><rect class="cls-1" x="1.49" y="1.49" width="591.82" height="425.02" rx="13.9"/></g><g id="Слой_1" data-name="Слой 1"><path class="cls-2" d="M0,0V428H122.9V374.2C93.6,347.6,76,318.3,75.6,293a5.89,5.89,0,0,1,.1-4.7c1-14.2,7.8-26.9,21.3-37.1a105.32,105.32,0,0,1,25.9-14.6V191.9a17.35,17.35,0,0,1,17.2-17.3H287.6c-1.4-5.1-.6-10.1,3.8-14,9.3-8.3,20.2,3,20.2,3s10.9-11.3,20.2-3c12.9,11.7-5.2,32.2-19.2,37v51.1a117,117,0,0,0,6.4-15.9c13.7-41.4,70-89.9,137.3-57.5,28.7,13.8,44,52.7,48.4,95.2,4-2.2,9.8-3.8,15.1.9,11.3,10.2-1.1,27.2-13.8,34.5-.8,26.3-5.4,51.8-13.3,71.3-8.8,21.9-20.8,38.5-34.9,50.8H596V0Z"/><path class="cls-3" d="M492.8,377.2c7.9-19.5,12.5-45,13.3-71.3a35.48,35.48,0,0,1-6.4,2.9c-14.3-4.3-33.5-25.5-20.2-37.4,9.3-8.3,20.2,3,20.2,3a28,28,0,0,1,5.2-3.9c-4.5-42.5-19.8-81.4-48.4-95.2-67.3-32.4-123.6,16.1-137.3,57.5a131.52,131.52,0,0,1-6.4,15.9v22.4l6.4-1h0l17.1-2.7.2,1.3,14.2-2.1a34.36,34.36,0,0,1,8.6-13.1h0s2-4,18.2-5.7h0l1-1.7c1.4-1.6,2.4-.8,2.4-.8l.2.2a11.73,11.73,0,0,0,1.4-3.8,9.73,9.73,0,0,0,.1-3.8,8.33,8.33,0,0,1-2.2-.3,12.45,12.45,0,0,1-7.6-5.3,12.75,12.75,0,0,1-.7-1.2,32.54,32.54,0,0,1-3.5-12.5.1.1,0,0,0-.1.1c-.1,0-.1.1-.2.1s-.3-.2-.3-.5a3.29,3.29,0,0,1,.7-1.6,19.42,19.42,0,0,1,.2-2.4c-.5-.3-2.9-2.2-1.3-8.9,2.1-8.5,14.8-16.7,27.6-8.3s5.1,24.2,5.1,24.2-2.9,5.2-5.5,7v-.1a12.13,12.13,0,0,1-1.1,3c-.3,4.4-.2,9.2,1.2,12.5a3,3,0,0,1,1,.4,2.71,2.71,0,0,1,1.1,2.5v.6c12.4.3,18.2,2.2,18.2,2.2h0c7.3,1,6.8,16.9,8.7,32.7,1.3,11.4-1.3,25.2-9.2,32.3.2,8,.5,16.2,1,24.3h-.1c1.3,11.4-1.4,50.9-4.5,89.3H458C472,415.7,484,399.2,492.8,377.2ZM433,210.6c-5.9-1.7-13.7-10.5-8.3-15.3,3.8-3.3,8.3,1.3,8.3,1.3s4.5-4.7,8.3-1.3C446.6,200.1,438.8,208.8,433,210.6Z"/><path class="cls-3" d="M359.1,343.6h0s-1.8-6.7-3.5-16.9l-25.7,3.9-.2-1.3-.3.1c-1.7,1.6-4.8,4.3-7.8,5.1-.8.2-4.7-1.4-7.4-2.7l-1.6.2v96h31c7-42.7,15.5-84.4,15.5-84.4Z"/><path class="cls-3" d="M381.2,391.4h0c-2.3,13.6-9,29.6-12.2,36.6h12.7C381.1,407,381.2,391.4,381.2,391.4Z"/><path class="cls-3" d="M97,251.2c-13.5,10.2-20.2,22.9-21.3,37.1a6.1,6.1,0,0,1,1.2-1.6c3.8-3.3,8.3,1.3,8.3,1.3s4.5-4.7,8.3-1.3c5.4,4.8-2.5,13.5-8.3,15.3a16.79,16.79,0,0,1-9.7-9c.4,25.4,18,54.6,47.3,81.2V236.6A106.67,106.67,0,0,0,97,251.2Z"/><path class="cls-4" d="M135.2,404.1V368.7h0V343.5h0V275.8h0V198.6H300.3v47.1c2.3-1.4,8.3-4.8,9.7-4.4,1.7.5,1.5,4,1.2,4.9-1.6,4.6-5.3,7.6-8.3,9.4-.5.5-1.4,1.5-2.5,2.7v14.9l5.1-.8h0l7.3-1.1V197.8l-1,.3c-9.5-2.8-21.2-13.2-24-23.4H140.3A17.22,17.22,0,0,0,123.1,192V428h12.3V404.1Z"/><polygon class="cls-4" points="300.3 344.9 300.3 413.9 300.3 413.9 300.3 428 312.6 428 312.6 343.6 300.3 344.9"/><path class="cls-5" d="M277.5,267.3c6.5-4.5,13.3-10,17.4-13.3l-.1-.1,1.4-4.8s.6-7.2,2.2-7.7,1,4.8,1,4.8a5.67,5.67,0,0,0,.9-.6v-6.8l-24.7,24.7C276.3,264.8,276.9,266.1,277.5,267.3Z"/><path class="cls-5" d="M199.3,211.6H135.2v64.2C157.7,253.2,181.5,229.4,199.3,211.6Z"/><path class="cls-5" d="M280.9,276.8c.4,1.5.8,3,1.1,4.5l6.9-1-.8-5.3,12.2-1.9V258.2A243.3,243.3,0,0,1,280.9,276.8Z"/><path class="cls-5" d="M259.7,244.2l32.6-32.6H267.1l-23.2,23.2A68,68,0,0,1,259.7,244.2Z"/><path class="cls-5" d="M160.4,318.3l-25.3,25.3v25.2l34.7-34.7A68,68,0,0,1,160.4,318.3Z"/><path class="cls-5" d="M201,416.6H170.1a10.8,10.8,0,1,1,.2-21.6h52.2c22.4-22.5,44.3-44.4,62.5-62.5l-3.4-24.6a63.94,63.94,0,0,1-92.4,42.3l-54.1,54.1V428h54.5Zm8.6-45.8c3.7-3.5,8.2,1.1,8.2,1.1s4.4-4.6,8.2-1.1c5.5,4.8-2.4,13.5-8.2,15.2C212,384.3,204.2,375.6,209.6,370.8Z"/><polygon class="cls-5" points="286.3 428 300.3 428 300.3 413.9 286.3 428"/><polygon class="cls-4" points="275.88 355.04 275.88 355.04 324.67 403.83 324.67 403.83 275.88 355.04"/><polygon class="cls-6" points="275.88 355.04 275.88 355.04 324.67 403.83 324.67 403.83 275.88 355.04"/><path class="cls-5" d="M300.3,344.9,287,346.3l-1.9-13.9-62.5,62.5h42.6a10.8,10.8,0,0,1-.2,21.6H201l-11.4,11.4h96.6l14.1-14.1V344.9Z"/><path class="cls-6" d="M300.3,344.9,287,346.3l-1.9-13.9-62.5,62.5h42.6a10.8,10.8,0,0,1-.2,21.6H201l-11.4,11.4h96.6l14.1-14.1V344.9Z"/><line class="cls-2" x1="135.2" y1="343.5" x2="135.2" y2="343.5"/><rect class="cls-4" x="135.2" y="275.8" height="67.7"/><rect class="cls-6" x="135.2" y="275.8" height="67.7"/><path class="cls-5" d="M231,224.6v-.2c.1.4.1.7.2,1.1a54.79,54.79,0,0,1,.4,5.5,65.64,65.64,0,0,1,12.4,3.7l23.2-23.2H227C231.4,216.9,231,224.6,231,224.6Z"/><path class="cls-6" d="M231,224.6v-.2c.1.4.1.7.2,1.1a54.79,54.79,0,0,1,.4,5.5,65.64,65.64,0,0,1,12.4,3.7l23.2-23.2H227C231.4,216.9,231,224.6,231,224.6Z"/><path class="cls-5" d="M155.5,293.7a63.78,63.78,0,0,1,41.6-59.8c-1.3-13,3.7-19.6,6.7-22.3h-4.5c-17.8,17.8-41.6,41.6-64.1,64.2v67.7l25.3-25.3A62.36,62.36,0,0,1,155.5,293.7Z"/><path class="cls-6" d="M155.5,293.7a63.78,63.78,0,0,1,41.6-59.8c-1.3-13,3.7-19.6,6.7-22.3h-4.5c-17.8,17.8-41.6,41.6-64.1,64.2v67.7l25.3-25.3A62.36,62.36,0,0,1,155.5,293.7Z"/><polygon class="cls-4" points="122.64 373.87 122.64 373.87 147.67 398.9 147.67 398.9 122.64 373.87"/><polygon class="cls-6" points="122.64 373.87 122.64 373.87 147.67 398.9 147.67 398.9 122.64 373.87"/><path class="cls-5" d="M259.7,244.2a64,64,0,0,1,16,19.4l24.7-24.7V211.6h-8.1Z"/><path class="cls-6" d="M259.7,244.2a64,64,0,0,1,16,19.4l24.7-24.7V211.6h-8.1Z"/><path class="cls-5" d="M169.9,334l-34.7,34.7v35.4L189.3,350A62.53,62.53,0,0,1,169.9,334Z"/><path class="cls-6" d="M169.9,334l-34.7,34.7v35.4L189.3,350A62.53,62.53,0,0,1,169.9,334Z"/><path class="cls-5" d="M212.3,198.6H135.1v13h64.1C204.1,206.8,208.5,202.4,212.3,198.6Zm-69,9.4h-2.5v-6.7h2.5Zm4.1,0h-2.5v-5.5h2.5Zm4.1.2H149v-4.5h2.5Zm1.5-.2v-3.3h2.5V208Z"/><path class="cls-7" d="M212.3,198.6H135.1v13h64.1C204.1,206.8,208.5,202.4,212.3,198.6Zm-69,9.4h-2.5v-6.7h2.5Zm4.1,0h-2.5v-5.5h2.5Zm4.1.2H149v-4.5h2.5Zm1.5-.2v-3.3h2.5V208Z"/><path class="cls-5" d="M292.3,211.6l8.1-8.1v-4.9H280.2l-13,13Zm-8.4-9.3h11.8v5.8H283.9Zm-2.5,1.3h1.5v3.3h-1.5Z"/><path class="cls-7" d="M292.3,211.6l8.1-8.1v-4.9H280.2l-13,13Zm-8.4-9.3h11.8v5.8H283.9Zm-2.5,1.3h1.5v3.3h-1.5Z"/><path class="cls-5" d="M203.8,211.6A15.29,15.29,0,0,1,206,210a13.2,13.2,0,0,1,8.4-3.1c6.1-.2,10,1.9,12.4,4.7H267l13-13H212.3l-13,13Z"/><path class="cls-6" d="M203.8,211.6A15.29,15.29,0,0,1,206,210a13.2,13.2,0,0,1,8.4-3.1c6.1-.2,10,1.9,12.4,4.7H267l13-13H212.3l-13,13Z"/><path class="cls-7" d="M203.8,211.6A15.29,15.29,0,0,1,206,210a13.2,13.2,0,0,1,8.4-3.1c6.1-.2,10,1.9,12.4,4.7H267l13-13H212.3l-13,13Z"/><polygon class="cls-5" points="300.3 211.6 300.3 203.6 292.3 211.6 300.3 211.6"/><polygon class="cls-6" points="300.3 211.6 300.3 203.6 292.3 211.6 300.3 211.6"/><polygon class="cls-7" points="300.3 211.6 300.3 203.6 292.3 211.6 300.3 211.6"/><rect class="cls-5" x="153" y="204.7" width="2.5" height="3.3"/><rect class="cls-7" x="153" y="204.7" width="2.5" height="3.3"/><rect class="cls-8" x="153" y="204.7" width="2.5" height="3.3"/><rect class="cls-5" x="149" y="203.7" width="2.5" height="4.5"/><rect class="cls-7" x="149" y="203.7" width="2.5" height="4.5"/><rect class="cls-8" x="149" y="203.7" width="2.5" height="4.5"/><rect class="cls-5" x="144.8" y="202.5" width="2.5" height="5.5"/><rect class="cls-7" x="144.8" y="202.5" width="2.5" height="5.5"/><rect class="cls-8" x="144.8" y="202.5" width="2.5" height="5.5"/><rect class="cls-5" x="140.8" y="201.4" width="2.5" height="6.7"/><rect class="cls-7" x="140.8" y="201.4" width="2.5" height="6.7"/><rect class="cls-8" x="140.8" y="201.4" width="2.5" height="6.7"/><rect class="cls-5" x="281.4" y="203.6" width="1.5" height="3.3"/><rect class="cls-7" x="281.4" y="203.6" width="1.5" height="3.3"/><rect class="cls-8" x="281.4" y="203.6" width="1.5" height="3.3"/><rect class="cls-5" x="283.9" y="202.3" width="11.8" height="5.8"/><rect class="cls-7" x="283.9" y="202.3" width="11.8" height="5.8"/><rect class="cls-8" x="283.9" y="202.3" width="11.8" height="5.8"/><path class="cls-5" d="M217.8,386c5.8-1.7,13.7-10.4,8.2-15.2-3.8-3.5-8.2,1.1-8.2,1.1s-4.5-4.6-8.2-1.1C204.2,375.6,212,384.3,217.8,386Z"/><path class="cls-9" d="M217.8,386c5.8-1.7,13.7-10.4,8.2-15.2-3.8-3.5-8.2,1.1-8.2,1.1s-4.5-4.6-8.2-1.1C204.2,375.6,212,384.3,217.8,386Z"/><path class="cls-10" d="M159.4,405.7a10.69,10.69,0,0,0,10.7,10.9H265a10.8,10.8,0,0,0,.2-21.6H170.4A10.84,10.84,0,0,0,159.4,405.7Z"/><polygon class="cls-4" points="300.3 344.9 312.6 343.6 312.6 332 300.3 333.9 300.3 344.9"/><polygon class="cls-11" points="300.3 344.9 312.6 343.6 312.6 332 300.3 333.9 300.3 344.9"/><path class="cls-5" d="M288.9,280.3l-6.9,1a63.58,63.58,0,0,1,1.2,12.4,64.6,64.6,0,0,1-1.6,14l3.4,24.6c3.6-3.6,7.1-7,10.3-10.3Z"/><path class="cls-11" d="M288.9,280.3l-6.9,1a63.58,63.58,0,0,1,1.2,12.4,64.6,64.6,0,0,1-1.6,14l3.4,24.6c3.6-3.6,7.1-7,10.3-10.3Z"/><rect class="cls-4" x="300.3" y="333.9" height="11"/><rect class="cls-6" x="300.3" y="333.9" height="11"/><rect class="cls-11" x="300.3" y="333.9" height="11"/><path class="cls-5" d="M297.3,334.3l-1.9-12.2-10.3,10.3,1.9,13.9,13.3-1.4v-11Z"/><path class="cls-6" d="M297.3,334.3l-1.9-12.2-10.3,10.3,1.9,13.9,13.3-1.4v-11Z"/><path class="cls-11" d="M297.3,334.3l-1.9-12.2-10.3,10.3,1.9,13.9,13.3-1.4v-11Z"/><path class="cls-5" d="M277.5,267.3c-.6-1.3-1.2-2.5-1.8-3.7l-10.9,10.9C267.9,273.5,272.6,270.7,277.5,267.3Z"/><path class="cls-12" d="M277.5,267.3c-.6-1.3-1.2-2.5-1.8-3.7l-10.9,10.9C267.9,273.5,272.6,270.7,277.5,267.3Z"/><path class="cls-5" d="M234.1,244.6a39.38,39.38,0,0,1,2.4,9.7c1.9.1,3.8.3,5.7.5h.1l.1.1a7.09,7.09,0,0,1,4.9,1.8l12.4-12.4a58.51,58.51,0,0,0-15.8-9.4Z"/><path class="cls-12" d="M234.1,244.6a39.38,39.38,0,0,1,2.4,9.7c1.9.1,3.8.3,5.7.5h.1l.1.1a7.09,7.09,0,0,1,4.9,1.8l12.4-12.4a58.51,58.51,0,0,0-15.8-9.4Z"/><path class="cls-5" d="M200.5,288.2c-.6-2.3-1.2-4.8-2-7.5a33.85,33.85,0,0,1-1.7,5.4l-1.7-.3L193,299.2v1a3,3,0,0,0,3.4,2.6c1.5-.2,3.3-.5,5.3-.8l1.3-1.3C202.4,296.6,201.5,292.4,200.5,288.2Z"/><path class="cls-12" d="M200.5,288.2c-.6-2.3-1.2-4.8-2-7.5a33.85,33.85,0,0,1-1.7,5.4l-1.7-.3L193,299.2v1a3,3,0,0,0,3.4,2.6c1.5-.2,3.3-.5,5.3-.8l1.3-1.3C202.4,296.6,201.5,292.4,200.5,288.2Z"/><path class="cls-5" d="M282,281.3c-.3-1.5-.7-3-1.1-4.5-6.1,5.1-12.2,9.3-16.2,9.9-2.8.4-6.2-.6-9.7-2.4l-9.8,9.8a.4.4,0,0,1-.2.4.1.1,0,0,0-.1.1c-.1,5.6-.4,12-.8,19.3l-20.4,1.8h0l20.4-1.8-.1,6.2c1,5.6,1.8,12.8,2.4,17.9l1.7,12.7a63.69,63.69,0,0,1-50.6,3.1c.5-5.4,1.1-9.9,1.8-13.7l-10,10a63.94,63.94,0,0,0,92.4-42.3l-3.6-25.9Z"/><path class="cls-12" d="M282,281.3c-.3-1.5-.7-3-1.1-4.5-6.1,5.1-12.2,9.3-16.2,9.9-2.8.4-6.2-.6-9.7-2.4l-9.8,9.8a.4.4,0,0,1-.2.4.1.1,0,0,0-.1.1c-.1,5.6-.4,12-.8,19.3l-20.4,1.8h0l20.4-1.8-.1,6.2c1,5.6,1.8,12.8,2.4,17.9l1.7,12.7a63.69,63.69,0,0,1-50.6,3.1c.5-5.4,1.1-9.9,1.8-13.7l-10,10a63.94,63.94,0,0,0,92.4-42.3l-3.6-25.9Z"/><path class="cls-5" d="M180.8,308.6a86,86,0,0,1,.9-11.6l-21.3,21.3a68,68,0,0,0,9.4,15.8l19.7-19.7C185.3,314,181.1,312.6,180.8,308.6Z"/><path class="cls-12" d="M180.8,308.6a86,86,0,0,1,.9-11.6l-21.3,21.3a68,68,0,0,0,9.4,15.8l19.7-19.7C185.3,314,181.1,312.6,180.8,308.6Z"/><path class="cls-5" d="M231,237.7a60.88,60.88,0,0,1,3.1,6.9l9.8-9.8a63.52,63.52,0,0,0-12.4-3.7A27.25,27.25,0,0,1,231,237.7Z"/><path class="cls-6" d="M231,237.7a60.88,60.88,0,0,1,3.1,6.9l9.8-9.8a63.52,63.52,0,0,0-12.4-3.7A27.25,27.25,0,0,1,231,237.7Z"/><path class="cls-12" d="M231,237.7a60.88,60.88,0,0,1,3.1,6.9l9.8-9.8a63.52,63.52,0,0,0-12.4-3.7A27.25,27.25,0,0,1,231,237.7Z"/><path class="cls-5" d="M183.7,283.8l-2.8-.5c.1,0,3.8-23,10.8-23.6h0c3.8-1.2,7.7-2.2,11.5-3a84,84,0,0,1-5.1-16.5,52.88,52.88,0,0,1-1-6.2,63.78,63.78,0,0,0-41.6,59.8,62.3,62.3,0,0,0,4.9,24.5L181.7,297C182.4,291.9,183.2,286.7,183.7,283.8Z"/><path class="cls-6" d="M183.7,283.8l-2.8-.5c.1,0,3.8-23,10.8-23.6h0c3.8-1.2,7.7-2.2,11.5-3a84,84,0,0,1-5.1-16.5,52.88,52.88,0,0,1-1-6.2,63.78,63.78,0,0,0-41.6,59.8,62.3,62.3,0,0,0,4.9,24.5L181.7,297C182.4,291.9,183.2,286.7,183.7,283.8Z"/><path class="cls-12" d="M183.7,283.8l-2.8-.5c.1,0,3.8-23,10.8-23.6h0c3.8-1.2,7.7-2.2,11.5-3a84,84,0,0,1-5.1-16.5,52.88,52.88,0,0,1-1-6.2,63.78,63.78,0,0,0-41.6,59.8,62.3,62.3,0,0,0,4.9,24.5L181.7,297C182.4,291.9,183.2,286.7,183.7,283.8Z"/><path class="cls-5" d="M250.1,259.5c6.3,7.8,9,9.4,9,9.4l-2.6,2.5c2.2,1.9,4.4,3.2,6.2,3.3a6.37,6.37,0,0,0,2.2-.3l10.9-10.9a65.17,65.17,0,0,0-16-19.4l-12.4,12.4C248.1,257.3,249.1,258.2,250.1,259.5Z"/><path class="cls-6" d="M250.1,259.5c6.3,7.8,9,9.4,9,9.4l-2.6,2.5c2.2,1.9,4.4,3.2,6.2,3.3a6.37,6.37,0,0,0,2.2-.3l10.9-10.9a65.17,65.17,0,0,0-16-19.4l-12.4,12.4C248.1,257.3,249.1,258.2,250.1,259.5Z"/><path class="cls-12" d="M250.1,259.5c6.3,7.8,9,9.4,9,9.4l-2.6,2.5c2.2,1.9,4.4,3.2,6.2,3.3a6.37,6.37,0,0,0,2.2-.3l10.9-10.9a65.17,65.17,0,0,0-16-19.4l-12.4,12.4C248.1,257.3,249.1,258.2,250.1,259.5Z"/><path class="cls-5" d="M245.1,282.6c0,3.3,0,6.9-.1,10.9a1.42,1.42,0,0,1,.2.6l9.8-9.8a48.76,48.76,0,0,1-7.1-4.4Z"/><path class="cls-6" d="M245.1,282.6c0,3.3,0,6.9-.1,10.9a1.42,1.42,0,0,1,.2.6l9.8-9.8a48.76,48.76,0,0,1-7.1-4.4Z"/><path class="cls-12" d="M245.1,282.6c0,3.3,0,6.9-.1,10.9a1.42,1.42,0,0,1,.2.6l9.8-9.8a48.76,48.76,0,0,1-7.1-4.4Z"/><path class="cls-5" d="M204.3,322.9l.3-5.8,19.1-1.7h0l-19.1,1.7c-.1-1.8-.2-3.7-.3-5.5a70.8,70.8,0,0,1-8.7,2.5,29.53,29.53,0,0,1-6,.1l-19.7,19.7a64,64,0,0,0,19.4,16l10-10C201.2,329.2,203.6,324.2,204.3,322.9Z"/><path class="cls-6" d="M204.3,322.9l.3-5.8,19.1-1.7h0l-19.1,1.7c-.1-1.8-.2-3.7-.3-5.5a70.8,70.8,0,0,1-8.7,2.5,29.53,29.53,0,0,1-6,.1l-19.7,19.7a64,64,0,0,0,19.4,16l10-10C201.2,329.2,203.6,324.2,204.3,322.9Z"/><path class="cls-12" d="M204.3,322.9l.3-5.8,19.1-1.7h0l-19.1,1.7c-.1-1.8-.2-3.7-.3-5.5a70.8,70.8,0,0,1-8.7,2.5,29.53,29.53,0,0,1-6,.1l-19.7,19.7a64,64,0,0,0,19.4,16l10-10C201.2,329.2,203.6,324.2,204.3,322.9Z"/><path class="cls-5" d="M201.8,302.1l1.4-.3a3.55,3.55,0,0,0-.2-1Z"/><path class="cls-6" d="M201.8,302.1l1.4-.3a3.55,3.55,0,0,0-.2-1Z"/><path class="cls-12" d="M201.8,302.1l1.4-.3a3.55,3.55,0,0,0-.2-1Z"/><path class="cls-5" d="M282,281.3l-4,.6,3.6,25.9a64.6,64.6,0,0,0,1.6-14A63.86,63.86,0,0,0,282,281.3Z"/><path class="cls-11" d="M282,281.3l-4,.6,3.6,25.9a64.6,64.6,0,0,0,1.6-14A63.86,63.86,0,0,0,282,281.3Z"/><path class="cls-12" d="M282,281.3l-4,.6,3.6,25.9a64.6,64.6,0,0,0,1.6-14A63.86,63.86,0,0,0,282,281.3Z"/><path class="cls-13" d="M298.7,257.6l-3.9-3.6c-4.1,3.3-10.9,8.8-17.4,13.3-4.9,3.4-9.6,6.2-12.7,7.1a6.09,6.09,0,0,1-2.2.3c-1.8-.2-4-1.5-6.2-3.3l-8.6,8.5a62.47,62.47,0,0,0,7.1,4.4c3.5,1.8,7,2.8,9.7,2.4,4-.6,10.1-4.8,16.2-9.9a264.29,264.29,0,0,0,19.4-18.5c1.2-1.2,2-2.1,2.5-2.7A16,16,0,0,1,298.7,257.6Z"/><path class="cls-13" d="M242.3,254.9h0v0C242.2,254.8,242.3,254.8,242.3,254.9Z"/><path class="cls-5" d="M250.1,259.5a18.41,18.41,0,0,0-2.8-2.8,7.09,7.09,0,0,0-4.9-1.8h0c.4.4,1.3,1.9,1.9,8.3.4,4,.8,10.3.9,19.4l2.7-2.7,8.6-8.5,2.6-2.5C259,268.9,256.4,267.3,250.1,259.5Z"/><path class="cls-13" d="M298.4,241.4c-1.6.5-2.2,7.7-2.2,7.7l-1.4,4.8.1.1,3.9,3.6a22.43,22.43,0,0,0,4.1-2c3-1.8,6.7-4.8,8.3-9.4.3-.9.6-4.5-1.2-4.9-1.4-.4-7.4,3-9.7,4.4a3.71,3.71,0,0,0-.9.6S300,240.9,298.4,241.4Z"/><path class="cls-4" d="M222.2,246.5c0,.6-.1,1.2-.1,1.9a12.47,12.47,0,0,0,.9,5.4,50.6,50.6,0,0,1,5.7.2c2.6,0,5.2.2,7.7.3a32.86,32.86,0,0,0-2.4-9.7,52.54,52.54,0,0,0-3.1-6.9C230,242.7,227.4,246,222.2,246.5Z"/><path class="cls-4" d="M203.2,256.7l4.8-.9,1.9-.3,1.6-.3c2.2-3.7,1.4-8.1.5-11a18.39,18.39,0,0,1-4.4-4.4,3,3,0,0,0,.3.4,16.13,16.13,0,0,1-4.6-6.1c-3.5-1.7-3.5-5.1-2-6.5-1.1-6.5.2-13.5,4.7-17.5a25.85,25.85,0,0,0-2.2,1.6c-3,2.7-8,9.3-6.7,22.3a52.88,52.88,0,0,0,1,6.2A84,84,0,0,0,203.2,256.7Z"/><path class="cls-5" d="M244.3,294.9v.2c0,1.4-7.4,6.8-8.9,7.2-1,.3-2.8-.4-3.8-.8h0s-20.8,10.2-27.1,12.7a21.05,21.05,0,0,0-.2-2.5h0c.1,1.8.3,3.6.3,5.5l19.1-1.7,20.4-1.8c.4-7.2.7-13.6.8-19.3C244.7,294.6,244.5,294.7,244.3,294.9Z"/><path class="cls-14" d="M244.3,294.9v.2c0,1.4-7.4,6.8-8.9,7.2-1,.3-2.8-.4-3.8-.8h0s-20.8,10.2-27.1,12.7a21.05,21.05,0,0,0-.2-2.5h0c.1,1.8.3,3.6.3,5.5l19.1-1.7,20.4-1.8c.4-7.2.7-13.6.8-19.3C244.7,294.6,244.5,294.7,244.3,294.9Z"/><path class="cls-5" d="M244.2,263.1c-.6-6.4-1.6-7.9-1.9-8.3l-.1-.1h-.1c-1.9-.2-3.8-.3-5.7-.5-2.6-.2-5.1-.3-7.7-.3a39.82,39.82,0,0,1,8.4,1.4s-3.8,11.8-14.4,12.1-22-9.1-22-9.1a57.72,57.72,0,0,1,9-2.8l-1.9.3-4.8.9a107.69,107.69,0,0,0-11.5,3h0c.1,0,6.3-1.3,7.5,8.6a37,37,0,0,1-.6,12.4c.8,2.7,1.4,5.2,2,7.5,1,4.2,1.9,8.4,2.5,12.6.1.3.1.7.2,1,9.7-1.9,22.5-5.3,26.5-6.3,1-1.3,6.1-6.2,7.8-6.6a2,2,0,0,1,1.3.2c2.1.8,5.4,3,6.3,4.3.1-4,.1-7.7.1-10.9C245,273.4,244.6,267.2,244.2,263.1Zm-29.9,25c-6.9,1.3-7.7-11-7.7-11l10.6-1.5S220.6,286.8,214.3,288.1Z"/><path class="cls-14" d="M244.2,263.1c-.6-6.4-1.6-7.9-1.9-8.3l-.1-.1h-.1c-1.9-.2-3.8-.3-5.7-.5-2.6-.2-5.1-.3-7.7-.3a39.82,39.82,0,0,1,8.4,1.4s-3.8,11.8-14.4,12.1-22-9.1-22-9.1a57.72,57.72,0,0,1,9-2.8l-1.9.3-4.8.9a107.69,107.69,0,0,0-11.5,3h0c.1,0,6.3-1.3,7.5,8.6a37,37,0,0,1-.6,12.4c.8,2.7,1.4,5.2,2,7.5,1,4.2,1.9,8.4,2.5,12.6.1.3.1.7.2,1,9.7-1.9,22.5-5.3,26.5-6.3,1-1.3,6.1-6.2,7.8-6.6a2,2,0,0,1,1.3.2c2.1.8,5.4,3,6.3,4.3.1-4,.1-7.7.1-10.9C245,273.4,244.6,267.2,244.2,263.1Zm-29.9,25c-6.9,1.3-7.7-11-7.7-11l10.6-1.5S220.6,286.8,214.3,288.1Z"/><path class="cls-5" d="M204.5,314.2c6.3-2.4,27.1-12.7,27.1-12.7h0c-3,1.2-17.4,6.8-27.3,10.1A24.62,24.62,0,0,1,204.5,314.2Z"/><path class="cls-14" d="M204.5,314.2c6.3-2.4,27.1-12.7,27.1-12.7h0c-3,1.2-17.4,6.8-27.3,10.1A24.62,24.62,0,0,1,204.5,314.2Z"/><path class="cls-7" d="M204.5,314.2c6.3-2.4,27.1-12.7,27.1-12.7h0c-3,1.2-17.4,6.8-27.3,10.1A24.62,24.62,0,0,1,204.5,314.2Z"/><path class="cls-13" d="M223.1,253.8c-.6-1-1-2.7-.9-5.4h0a11.87,11.87,0,0,1-8.2-3.2,12.81,12.81,0,0,1-2-1.1c.9,2.8,1.7,7.3-.5,11A63.31,63.31,0,0,1,223.1,253.8Z"/><path class="cls-4" d="M222.2,246.5c0,.6-.1,1.2-.1,1.9h0c0-.6.1-1.2.1-1.9Z"/><path class="cls-7" d="M222.2,246.5c0,.6-.1,1.2-.1,1.9h0c0-.6.1-1.2.1-1.9Z"/><path class="cls-13" d="M222.2,246.5a19.27,19.27,0,0,1-4.7-.2,13.74,13.74,0,0,1-3.6-1.1,12.14,12.14,0,0,0,8.2,3.2h0C222.1,247.8,222.2,247.2,222.2,246.5Z"/><path class="cls-7" d="M222.2,246.5a19.27,19.27,0,0,1-4.7-.2,13.74,13.74,0,0,1-3.6-1.1,12.14,12.14,0,0,0,8.2,3.2h0C222.1,247.8,222.2,247.2,222.2,246.5Z"/><path class="cls-13" d="M217.5,246.3a19.27,19.27,0,0,0,4.7.2h0c5.2-.5,7.8-3.9,8.8-8.8a28.11,28.11,0,0,0,.5-6.7,52.76,52.76,0,0,0-.4-5.5c-.1-.4-.1-.7-.2-1.1a20.25,20.25,0,0,0-.9-3.3c-6.4.1-11.3-7-13.3-9.5.1,2.9-.4,12-9.4,12.4h0a35.59,35.59,0,0,1-1.2,3.8,5,5,0,0,1,1.6,2.8c.3,3.5-.2,4.6-1.4,4.4a4.4,4.4,0,0,1-1-.2,18.78,18.78,0,0,0,2.2,5,15.37,15.37,0,0,0,4.4,4.4,12.81,12.81,0,0,0,2,1.1A14.79,14.79,0,0,0,217.5,246.3Zm9.8-9.3h0a7.12,7.12,0,0,1-6.5.2.37.37,0,0,1-.1-.3c0-.1.2-.1.3-.1a6.67,6.67,0,0,0,6-.1c.1-.1.2,0,.3.1S227.4,236.9,227.3,237Zm.3-12.5,1.7-.8a2,2,0,0,1-1,1,3.59,3.59,0,0,1,.7,1c0,.9-.3,1.5-.9,1.6s-1-.6-1.2-1.4A1.42,1.42,0,0,1,227.6,224.5Zm.2,6.3a2.82,2.82,0,0,1-2.6,1.3l-.6-5.3A15.24,15.24,0,0,0,227.8,230.8Zm-10-5.4,1.7-.8a2,2,0,0,1-1,1,6.07,6.07,0,0,1,.7,1c0,.8-.3,1.5-.9,1.6s-1-.6-1.1-1.4A1,1,0,0,1,217.8,225.4Z"/><path class="cls-15" d="M225.1,232.1a2.64,2.64,0,0,0,2.6-1.3,17.6,17.6,0,0,1-3.2-4Z"/><path class="cls-4" d="M218.2,228.3c.6-.1.9-.8.9-1.6a3.59,3.59,0,0,0-.7-1,2,2,0,0,0,1-1l-1.7.8a1.49,1.49,0,0,0-.7,1.5C217.2,227.7,217.6,228.4,218.2,228.3Z"/><path class="cls-4" d="M228.1,227.4c.6-.1.9-.7.9-1.6a1.83,1.83,0,0,0-.7-1,2,2,0,0,0,1-1l-1.7.8a1.49,1.49,0,0,0-.7,1.5C227.1,226.8,227.5,227.5,228.1,227.4Z"/><path class="cls-13" d="M200.8,258.3s11.4,9.3,22,9.1,14.4-12.1,14.4-12.1a41.65,41.65,0,0,0-8.4-1.4c-1.7-.1-3.6-.2-5.7-.2a64.26,64.26,0,0,0-11.6,1.3l-1.6.3C207,256.1,204,257.1,200.8,258.3Z"/><path class="cls-13" d="M231.7,301.6h0a6,6,0,0,0-.7-.3l-1.5-5.4c0-.1.1-.1.2-.3-3.9,1.1-16.8,4.4-26.5,6.3l-1.4.3c-2,.4-3.8.6-5.3.8a3,3,0,0,1-3.4-2.6v-1l2.1-13.4-11.4-2.1c-.5,2.9-1.3,8.1-1.9,13.2-.6,4.7-1.1,9.3-.9,11.6.2,4,4.4,5.4,8.7,5.8a29.53,29.53,0,0,0,6-.1,66.1,66.1,0,0,0,8.7-2.5h0C214.3,308.4,228.6,302.7,231.7,301.6Z"/><path class="cls-5" d="M198.5,280.7a36.87,36.87,0,0,0,.6-12.4c-1.1-10-7.4-8.6-7.5-8.6h0c-7,.6-10.7,23.6-10.8,23.6l2.8.5,11.4,2.1,1.7.3A29.43,29.43,0,0,0,198.5,280.7Z"/><path class="cls-13" d="M244.9,293.5c-.9-1.4-4.1-3.6-6.3-4.3a1.48,1.48,0,0,0-1.3-.2c-1.7.4-6.7,5.3-7.8,6.6-.1.1-.2.2-.2.3l1.5,5.4a6,6,0,0,1,.7.3c1,.4,2.7,1.1,3.8.8,1.5-.5,8.9-5.9,8.9-7.2V295a2.09,2.09,0,0,1,.6-.4.1.1,0,0,0,.1-.1.52.52,0,0,0,.2-.4C245.2,293.9,245.1,293.7,244.9,293.5Z"/><path class="cls-4" d="M216.8,211.7h0a25.25,25.25,0,0,0-8.6,2.1c.6,3.4-.1,7.3-.8,10.2h0C216.3,223.6,216.8,214.5,216.8,211.7Z"/><path class="cls-4" d="M201.3,227.5a2.35,2.35,0,0,1,1.4-.7h0a4.43,4.43,0,0,1,3.5,1c.3-.8.7-2.1,1.2-3.8a24.57,24.57,0,0,0,.8-10.2,28.06,28.06,0,0,1,8.5-2.2v.1c2,2.5,6.9,9.6,13.3,9.5l.9,3.3v.2s.4-7.7-4.1-13c-2.4-2.8-6.3-4.9-12.4-4.7a13,13,0,0,0-8.4,3.1C201.5,214,200.3,221,201.3,227.5Z"/><path class="cls-4" d="M203.3,234a16.13,16.13,0,0,0,4.6,6.1,1.73,1.73,0,0,0-.3-.4,18.78,18.78,0,0,1-2.2-5A6.49,6.49,0,0,1,203.3,234Z"/><path class="cls-4" d="M227,236.6a6.38,6.38,0,0,1-6,.1c-.1,0-.3,0-.3.1s0,.3.1.3a6.9,6.9,0,0,0,6.4-.1h.1a.19.19,0,0,0,0-.3C227.2,236.6,227.1,236.5,227,236.6Z"/><path class="cls-13" d="M205.4,234.8c.3.1.6.1,1,.2,1.1.2,1.7-.9,1.4-4.4a4.45,4.45,0,0,0-1.6-2.8,4.32,4.32,0,0,0-3.5-1h0a2.67,2.67,0,0,0-1.4.7c-1.5,1.5-1.6,4.8,2,6.5A10.23,10.23,0,0,0,205.4,234.8Z"/><path class="cls-5" d="M214.3,288.1c6.3-1.3,2.9-12.5,2.9-12.5l-10.6,1.5S207.4,289.4,214.3,288.1Z"/><path class="cls-4" d="M204.3,322.9c-.7,1.3-3.1,6.2-5,17-.7,3.8-1.3,8.3-1.8,13.7a63.69,63.69,0,0,0,50.6-3.1l-1.7-12.7c-.6-5.2-1.4-12.3-2.4-17.9l.1-6.2-20.4,1.8-19.1,1.7Z"/><path class="cls-13" d="M321.6,334.4c3-.8,6.1-3.5,7.8-5.1l-15.1,2.3C317,333.1,320.8,334.7,321.6,334.4Z"/><path class="cls-13" d="M377.3,247.9Z"/><path class="cls-13" d="M383.4,247.4h0l9.4-3.6a4,4,0,0,1,1.9-.2c-1.4-3.4-1.5-8.1-1.2-12.5a9.29,9.29,0,0,0-.5,1,8.34,8.34,0,0,1-1.6,2.1c-1.6,5.1-6.4,7-8.9,7.5a10.24,10.24,0,0,0,.1-3.9h-.1a9.68,9.68,0,0,1-.1,3.8,10.26,10.26,0,0,1-1.4,3.8l2.4,2Z"/><path class="cls-13" d="M377.3,247.8Z"/><path class="cls-13" d="M382.6,237.8a10.24,10.24,0,0,1-.1,3.9c2.5-.6,7.3-2.4,8.9-7.5A11,11,0,0,1,382.6,237.8Z"/><path class="cls-7" d="M382.6,237.8a10.24,10.24,0,0,1-.1,3.9c2.5-.6,7.3-2.4,8.9-7.5A11,11,0,0,1,382.6,237.8Z"/><path class="cls-13" d="M391.4,234.2a16.6,16.6,0,0,0,1.6-2.1,3.13,3.13,0,0,0,.5-1,12.13,12.13,0,0,0,1.1-3,15.14,15.14,0,0,0,.1-3.7c-2.4,1.2-4.2-.8-4.3-3.4a13.18,13.18,0,0,1,.5-3.2c-1.7-2.9-2.7-10-2.7-10a15.91,15.91,0,0,1-13.3,1.1,25.43,25.43,0,0,0,2.8,1.6,13.71,13.71,0,0,0,3.5.8,15.28,15.28,0,0,0,3.7-.1,15.45,15.45,0,0,1-7.4-.2,21.69,21.69,0,0,1-3.5-1.5,3,3,0,0,1-.7-.5,11.61,11.61,0,0,1-4.5,5.3l-.1-.1a19.42,19.42,0,0,0-.2,2.4,3.85,3.85,0,0,1,1.8-1.5.48.48,0,0,1,.6.2h0a.48.48,0,0,1-.2.6h0a3.35,3.35,0,0,0-1.8,2.5h-.2a32.54,32.54,0,0,0,3.5,12.5,12.75,12.75,0,0,1,.7,1.2,12.45,12.45,0,0,0,7.6,5.3,8.33,8.33,0,0,0,2.2.3h.1A10.46,10.46,0,0,0,391.4,234.2Zm-19.5-12c-.5.1-1-.3-1.1-1s0-1.4.6-1.5.8.3,1,1S372.3,222.1,371.9,222.2Zm1.6,5.5a26.91,26.91,0,0,0,1.6-6.8l2.3,5.9C376.2,227.5,374.6,228.2,373.5,227.7Zm5-14h.1a4.71,4.71,0,0,1,3.8.8c.2.1.2.4.1.6h0l-.2.2c-.1.1-.3,0-.5-.1a3.52,3.52,0,0,0-3-.7.48.48,0,0,1-.6-.2A.6.6,0,0,1,378.5,213.7Zm-.2,5.8c-.1-.7,0-1.4.6-1.5s1,.2,1.1,1a1.1,1.1,0,0,1-.6,1.5C379,220.7,378.4,220.2,378.3,219.5Zm.7,10.7h0c-.1,0-.2-.1-.2-.3a.22.22,0,0,1,.2-.2,6.09,6.09,0,0,0,4.7-3c0-.1.1-.1.2-.1a.37.37,0,0,1,.1.3A6.29,6.29,0,0,1,379,230.2Z"/><path class="cls-4" d="M380,219.1c-.1-.8-.6-1.2-1.1-1s-.7.8-.6,1.5.7,1.2,1.2,1A1.14,1.14,0,0,0,380,219.1Z"/><path class="cls-4" d="M371.3,219.7c-.6.1-.7.8-.6,1.5s.7,1.2,1.1,1a1.27,1.27,0,0,0,.5-1.5C372.1,220,371.9,219.5,371.3,219.7Z"/><path class="cls-15" d="M373.5,227.7c1.1.5,2.8-.2,3.9-.9l-2.3-5.9A32,32,0,0,1,373.5,227.7Z"/><path class="cls-4" d="M378.9,214.5a3.6,3.6,0,0,1,3,.7.44.44,0,0,0,.5.1l.2-.2h0a.47.47,0,0,0-.1-.6,4.71,4.71,0,0,0-3.8-.8h-.1a.48.48,0,0,0-.2.6C378.4,214.5,378.7,214.6,378.9,214.5Z"/><path class="cls-4" d="M384.1,226.9c0-.1,0-.3-.1-.3s-.2,0-.2.1a6.09,6.09,0,0,1-4.7,3,.22.22,0,0,0-.2.2c0,.2.1.3.2.3h0A6.6,6.6,0,0,0,384.1,226.9Z"/><path class="cls-4" d="M370.6,216h0a.48.48,0,0,0,.2-.6h0a.48.48,0,0,0-.6-.2,4.28,4.28,0,0,0-1.8,1.5,4.59,4.59,0,0,0-.7,1.6c0,.2.1.5.3.5s.1-.1.2-.1l.1-.1c.1,0,.1-.1.2,0A4.64,4.64,0,0,1,370.6,216Z"/><path class="cls-13" d="M398.4,218.6c.6-3.9-2.1-4.5-3.9-4s-3.7,3.3-3.7,3.3h0a9.27,9.27,0,0,0-.5,3.2c.1,2.6,2,4.6,4.3,3.4a2.2,2.2,0,0,0-.1-.8A6.45,6.45,0,0,0,398.4,218.6Z"/><path class="cls-5" d="M359.1,253.6h0a36,36,0,0,0-8.6,13.1l4.6-.7A71.86,71.86,0,0,1,359.1,253.6Z"/><path class="cls-16" d="M359.1,253.6h0a36,36,0,0,0-8.6,13.1l4.6-.7A71.86,71.86,0,0,1,359.1,253.6Z"/><path class="cls-5" d="M415.5,338.7c-2.2.8-37,12.7-56.4,4.9h0s-8.5,41.6-15.5,84.4h25.3c3.2-7,10-23,12.2-36.6-.5,2.6-1.1,5.4-1.8,8.3-2.4-10-.7-37.3-.7-37.3l2.5,29h0s-.1,15.6.5,36.6h29.3C414.1,389.6,416.8,350.2,415.5,338.7Z"/><path class="cls-8" d="M415.5,338.7c-2.2.8-37,12.7-56.4,4.9h0s-8.5,41.6-15.5,84.4h25.3c3.2-7,10-23,12.2-36.6-.5,2.6-1.1,5.4-1.8,8.3-2.4-10-.7-37.3-.7-37.3l2.5,29h0s-.1,15.6.5,36.6h29.3C414.1,389.6,416.8,350.2,415.5,338.7Z"/><path class="cls-3" d="M381.2,391.4Z"/><path class="cls-7" d="M381.2,391.4Z"/><path class="cls-5" d="M381.2,391.4h0l-2.5-29s-1.7,27.3.7,37.3c.6-2.9,1.3-5.7,1.8-8.3Z"/><path class="cls-8" d="M381.2,391.4h0l-2.5-29s-1.7,27.3.7,37.3c.6-2.9,1.3-5.7,1.8-8.3Z"/><path class="cls-7" d="M381.2,391.4h0l-2.5-29s-1.7,27.3.7,37.3c.6-2.9,1.3-5.7,1.8-8.3Z"/><path class="cls-5" d="M414.7,317.8c-10.9,6-28,6.3-32.4,6.2h-.4l.1,1.3-3.8.5-.4-2.4-6.4,1a58.36,58.36,0,0,1-6.1,3.9c-.6.2-2.6-.9-4.4-2.3l-5.3.8c1.7,10.2,3.5,16.9,3.5,16.9h0c19.4,7.8,54.2-4.1,56.4-4.9h.1c-.5-8.1-.8-16.3-1-24.3h0C414.6,315.5,414.6,316.6,414.7,317.8Z"/><path class="cls-5" d="M383.4,247.4Z"/><path class="cls-5" d="M356.3,265.8l-.2-1.3,13.6-2.1.2,1.3,13.2-2,7.2,47.4.3-.1-7.5-48.6,10.6,47.4,1.9-.8a21.3,21.3,0,0,0,11.8-19.6c-.1-6.1-.3-13.3-.9-20.1-1.2-15.8,7.2-17.9,7.2-17.9H415s-5.8-1.9-18.2-2.2h0l-9.1,6L386,251a8.42,8.42,0,0,1-2.7.4,3.77,3.77,0,0,1-2.1-.7l-1.7,2.5-2.3-5.3h0c-16.1,1.7-18.2,5.7-18.2,5.7h0a71.86,71.86,0,0,0-4,12.4Zm44.7,5.6.2,2.2-13.4,1.2-.2-2.2Z"/><polygon class="cls-13" points="383.4 247.4 383.4 247.4 383.4 247.4 383.4 247.4 383.4 247.4"/><polygon class="cls-7" points="383.4 247.4 383.4 247.4 383.4 247.4 383.4 247.4 383.4 247.4"/><polygon class="cls-5" points="383.4 247.4 383.4 247.4 383.4 247.4 383.4 247.4 383.4 247.4"/><polygon class="cls-7" points="383.4 247.4 383.4 247.4 383.4 247.4 383.4 247.4 383.4 247.4"/><path class="cls-5" d="M383.4,247.4l-2.1,3.2a3.77,3.77,0,0,0,2.1.7,8.42,8.42,0,0,0,2.7-.4Z"/><path class="cls-7" d="M383.4,247.4l-2.1,3.2a3.77,3.77,0,0,0,2.1.7,8.42,8.42,0,0,0,2.7-.4Z"/><path class="cls-5" d="M414.7,317.8c0-1.1-.1-2.3-.1-3.4a6,6,0,0,0-.8.8c-7.5,6-27,8.4-31.5,8.9C386.7,324,403.8,323.7,414.7,317.8Z"/><path class="cls-17" d="M414.7,317.8c0-1.1-.1-2.3-.1-3.4a6,6,0,0,0-.8.8c-7.5,6-27,8.4-31.5,8.9C386.7,324,403.8,323.7,414.7,317.8Z"/><polygon class="cls-5" points="383 260.4 390.6 309 393.6 307.8 383 260.4"/><polygon class="cls-16" points="383 260.4 390.6 309 393.6 307.8 383 260.4"/><path class="cls-5" d="M345.3,326.9l-15.6,2.4.2,1.3,25.7-3.9,5.3-.8c-.5-.4-1.1-.8-1.5-1.2l-2.4.4a9.86,9.86,0,0,1,.3-2.4l-.1-.1c-.2-.9,6.9-6.7,9.8-7.1a7.31,7.31,0,0,1,5.2,1.1l4.5-1.1-.5-3.3,4.5-1.3.2,2.1,9.5-3.9-7.2-47.4-13.2,2,2.3,14.7-13.6,2.1-2.3-14.7-1.2.2-4.6.7-14.2,2.1ZM379.4,290v-.1c.1-.1,0-.1,0-.2v-.6a.71.71,0,0,1,.3-.6,1.06,1.06,0,0,1,.8.1.37.37,0,0,1,.1.3.45.45,0,0,1,.5,0h0a.48.48,0,0,1,.2.6c0,.1-.1.2-.3.5h-.5a2.77,2.77,0,0,0-.9.1C379.5,290.3,379.2,290.2,379.4,290Zm-5,1.4c.2-.2.9-.5,1.3-.1s.1.9,0,1.3c-.1.1-.3.6-.2.7s.5-.3.6-.5a6.11,6.11,0,0,0,.7-1.4v-.1a.6.6,0,0,1,.1-.4c0-.5.8-.3.7,0a3.79,3.79,0,0,0,0,1.5c.1.1.1.3.2.3s.2-.1.3-.1a1.33,1.33,0,0,0,.6-.5c.1-.1.1-.1.2-.1,0-.5.1-.9.1-1.4s.7-.3.7,0c0,.9-.1,1.7-.1,2.6.1-.1.2-.1.3-.2.3-.2.8.2.3.5a2.41,2.41,0,0,0-.8.6v.2a8.6,8.6,0,0,1-.1,1.6,3.19,3.19,0,0,1-.3,1.4,1.59,1.59,0,0,1-1,.8.78.78,0,0,1-.9-.6c-.7-1.5.5-2.8,1.7-3.8v-.9c-.5.3-1.2.8-1.6.3a1.08,1.08,0,0,1-.3-.7,2.09,2.09,0,0,1-.4.6c-.2.3-.7.9-1.3.8h0a.75.75,0,0,1-.5-1c.1-.2.2-.6.3-.8a.37.37,0,0,0,.1-.3.35.35,0,0,0-.2.1C374.5,292.1,374.1,291.7,374.4,291.4Zm-2.4.9a1.25,1.25,0,0,1,1.4-1h.2a1.23,1.23,0,0,1,.8,1.6,1.46,1.46,0,0,1-.6.9,1,1,0,0,1-.8.5.85.85,0,0,1-.8-.7v-.7c-.1-.1-.2-.2-.2-.3Zm-5.8.9.1-.1a1.62,1.62,0,0,1,.5-.9,1.23,1.23,0,0,1,1-.2c.7.3.7,1.1.6,1.8a.37.37,0,0,1,.3.1c.1.2.2.2.5,0a.76.76,0,0,0,.2-.5.37.37,0,0,0,.1-.3,1.39,1.39,0,0,1,0-.9c.1-.1.2-.2.3-.2s.4.1.4.3v.8c0,.2.1.3.2.5.2-.1.3-.5.5-.6v-1c0-.1,0-.1.1-.2a.33.33,0,0,1,.5,0,1,1,0,0,1,.1,1.3v.1a2.77,2.77,0,0,0,.1.9c.1.5-.6.7-.6.2a.37.37,0,0,1-.1-.3c-.1.1-.2.2-.3.2a.66.66,0,0,1-.7-.2c-.1.1-.1.2-.2.3s-.2.3-.4.3a.91.91,0,0,1-1.1-.3,3.51,3.51,0,0,1-.5.8c-.2.2-.6.5-.9.2a1.6,1.6,0,0,1-.7-.9A2.44,2.44,0,0,1,366.2,293.2Zm-.6-.8c.2.2.2.6.3.8a7.61,7.61,0,0,1,.3,2.1c0,.5-.7.5-.8-.1a6.6,6.6,0,0,0-.1-1.4,1.7,1.7,0,0,0-.1-.7c-.1-.2-.2-.1-.3.1a3,3,0,0,0-.6,1.8,2.2,2.2,0,0,1,.1.8c0,.1-.1.2-.2.3a.37.37,0,0,1-.5-.2,2.2,2.2,0,0,1-.1-.8c-.1-1-.1-1.4-.2-2.4-.1-.5.7-.5.7,0v.5a2.7,2.7,0,0,1,.7-.8A.52.52,0,0,1,365.6,292.4Zm-9.5,2a1.13,1.13,0,0,1,1.2-.8h.2a.61.61,0,0,1,.4.9,10,10,0,0,1-.8,1.4v.1c.1,0,.2-.1.3-.1a2.18,2.18,0,0,0,.8-.5.19.19,0,0,1,.3,0,9.63,9.63,0,0,1,0-1.7c.1-.5.7-.5.7,0a4.3,4.3,0,0,0,0,1.6c.1.1.1.3.2.3s.2,0,.3-.1a1.7,1.7,0,0,0,.6-.6c.1,0,.1-.1.2-.1a8.6,8.6,0,0,0,.1-1.6c.1-.5.7-.5.7,0-.1,1-.1,2-.1,3,0-.1.1-.2.2-.3h.1c.1,0,.3,0,.3.2s0,.3-.2.3a2.7,2.7,0,0,1-.7.8v.3c0,.6-.1,1.3-.1,1.8s-.2,1.1-.3,1.6a2,2,0,0,1-.9.9c-.5.2-.7-.1-.8-.6-.7-1.7.4-3.3,1.5-4.5v-1c-.5.5-1,.9-1.5.5a.52.52,0,0,1-.2-.4c0,.1-.1.1-.2.2-.3.3-2.2,1.6-2.3.3a1.66,1.66,0,0,1,.5-1.3,3,3,0,0,1,.5-.7c.1-.1.1-.1,0-.1s-.3.1-.3.2C356.7,295,356,294.9,356.1,294.4Zm-.7-.6c.7.2.6,1.5.5,1.8-.1.7-.7,1.6-1.4,1.3s-.7-1.5-.6-2.2a.22.22,0,0,1,.2-.2C354.4,294.1,354.9,293.6,355.4,293.8Zm-4.5-2.7c0,1,.1,2,.2,3a6.75,6.75,0,0,0,.2,1.4.37.37,0,0,1,.1.3l.1-.1a13.49,13.49,0,0,0,1.4-3.5,8.81,8.81,0,0,1,.2-1.7c.1-.5.7-.3.7.1l-.3,1.7a23.58,23.58,0,0,0,.1,4.6c.1.5-.7.6-.5.2a17.85,17.85,0,0,1-.2-2.3c-.1.2-.3.4-.3.6a6.38,6.38,0,0,1-.8,1.4c-.9.9-1.1-1.3-1.3-1.8,0-.2-.1-.5-.1-.7-.1.3-.2.8-.3,1.2a6.38,6.38,0,0,1-1.5,2.8.1.1,0,0,0-.1.1c-.1.1-.3,0-.4-.2a5.09,5.09,0,0,1-.7-1.7c-.1-.6.6-.6.7-.1l.3.9a5.13,5.13,0,0,0,1-2.4,22,22,0,0,0,.7-3.7.32.32,0,0,1,.3-.3C350.5,290.9,350.9,290.9,350.9,291.1Z"/><path class="cls-6" d="M345.3,326.9l-15.6,2.4.2,1.3,25.7-3.9,5.3-.8c-.5-.4-1.1-.8-1.5-1.2l-2.4.4a9.86,9.86,0,0,1,.3-2.4l-.1-.1c-.2-.9,6.9-6.7,9.8-7.1a7.31,7.31,0,0,1,5.2,1.1l4.5-1.1-.5-3.3,4.5-1.3.2,2.1,9.5-3.9-7.2-47.4-13.2,2,2.3,14.7-13.6,2.1-2.3-14.7-1.2.2-4.6.7-14.2,2.1ZM379.4,290v-.1c.1-.1,0-.1,0-.2v-.6a.71.71,0,0,1,.3-.6,1.06,1.06,0,0,1,.8.1.37.37,0,0,1,.1.3.45.45,0,0,1,.5,0h0a.48.48,0,0,1,.2.6c0,.1-.1.2-.3.5h-.5a2.77,2.77,0,0,0-.9.1C379.5,290.3,379.2,290.2,379.4,290Zm-5,1.4c.2-.2.9-.5,1.3-.1s.1.9,0,1.3c-.1.1-.3.6-.2.7s.5-.3.6-.5a6.11,6.11,0,0,0,.7-1.4v-.1a.6.6,0,0,1,.1-.4c0-.5.8-.3.7,0a3.79,3.79,0,0,0,0,1.5c.1.1.1.3.2.3s.2-.1.3-.1a1.33,1.33,0,0,0,.6-.5c.1-.1.1-.1.2-.1,0-.5.1-.9.1-1.4s.7-.3.7,0c0,.9-.1,1.7-.1,2.6.1-.1.2-.1.3-.2.3-.2.8.2.3.5a2.41,2.41,0,0,0-.8.6v.2a8.6,8.6,0,0,1-.1,1.6,3.19,3.19,0,0,1-.3,1.4,1.59,1.59,0,0,1-1,.8.78.78,0,0,1-.9-.6c-.7-1.5.5-2.8,1.7-3.8v-.9c-.5.3-1.2.8-1.6.3a1.08,1.08,0,0,1-.3-.7,2.09,2.09,0,0,1-.4.6c-.2.3-.7.9-1.3.8h0a.75.75,0,0,1-.5-1c.1-.2.2-.6.3-.8a.37.37,0,0,0,.1-.3.35.35,0,0,0-.2.1C374.5,292.1,374.1,291.7,374.4,291.4Zm-2.4.9a1.25,1.25,0,0,1,1.4-1h.2a1.23,1.23,0,0,1,.8,1.6,1.46,1.46,0,0,1-.6.9,1,1,0,0,1-.8.5.85.85,0,0,1-.8-.7v-.7c-.1-.1-.2-.2-.2-.3Zm-5.8.9.1-.1a1.62,1.62,0,0,1,.5-.9,1.23,1.23,0,0,1,1-.2c.7.3.7,1.1.6,1.8a.37.37,0,0,1,.3.1c.1.2.2.2.5,0a.76.76,0,0,0,.2-.5.37.37,0,0,0,.1-.3,1.39,1.39,0,0,1,0-.9c.1-.1.2-.2.3-.2s.4.1.4.3v.8c0,.2.1.3.2.5.2-.1.3-.5.5-.6v-1c0-.1,0-.1.1-.2a.33.33,0,0,1,.5,0,1,1,0,0,1,.1,1.3v.1a2.77,2.77,0,0,0,.1.9c.1.5-.6.7-.6.2a.37.37,0,0,1-.1-.3c-.1.1-.2.2-.3.2a.66.66,0,0,1-.7-.2c-.1.1-.1.2-.2.3s-.2.3-.4.3a.91.91,0,0,1-1.1-.3,3.51,3.51,0,0,1-.5.8c-.2.2-.6.5-.9.2a1.6,1.6,0,0,1-.7-.9A2.44,2.44,0,0,1,366.2,293.2Zm-.6-.8c.2.2.2.6.3.8a7.61,7.61,0,0,1,.3,2.1c0,.5-.7.5-.8-.1a6.6,6.6,0,0,0-.1-1.4,1.7,1.7,0,0,0-.1-.7c-.1-.2-.2-.1-.3.1a3,3,0,0,0-.6,1.8,2.2,2.2,0,0,1,.1.8c0,.1-.1.2-.2.3a.37.37,0,0,1-.5-.2,2.2,2.2,0,0,1-.1-.8c-.1-1-.1-1.4-.2-2.4-.1-.5.7-.5.7,0v.5a2.7,2.7,0,0,1,.7-.8A.52.52,0,0,1,365.6,292.4Zm-9.5,2a1.13,1.13,0,0,1,1.2-.8h.2a.61.61,0,0,1,.4.9,10,10,0,0,1-.8,1.4v.1c.1,0,.2-.1.3-.1a2.18,2.18,0,0,0,.8-.5.19.19,0,0,1,.3,0,9.63,9.63,0,0,1,0-1.7c.1-.5.7-.5.7,0a4.3,4.3,0,0,0,0,1.6c.1.1.1.3.2.3s.2,0,.3-.1a1.7,1.7,0,0,0,.6-.6c.1,0,.1-.1.2-.1a8.6,8.6,0,0,0,.1-1.6c.1-.5.7-.5.7,0-.1,1-.1,2-.1,3,0-.1.1-.2.2-.3h.1c.1,0,.3,0,.3.2s0,.3-.2.3a2.7,2.7,0,0,1-.7.8v.3c0,.6-.1,1.3-.1,1.8s-.2,1.1-.3,1.6a2,2,0,0,1-.9.9c-.5.2-.7-.1-.8-.6-.7-1.7.4-3.3,1.5-4.5v-1c-.5.5-1,.9-1.5.5a.52.52,0,0,1-.2-.4c0,.1-.1.1-.2.2-.3.3-2.2,1.6-2.3.3a1.66,1.66,0,0,1,.5-1.3,3,3,0,0,1,.5-.7c.1-.1.1-.1,0-.1s-.3.1-.3.2C356.7,295,356,294.9,356.1,294.4Zm-.7-.6c.7.2.6,1.5.5,1.8-.1.7-.7,1.6-1.4,1.3s-.7-1.5-.6-2.2a.22.22,0,0,1,.2-.2C354.4,294.1,354.9,293.6,355.4,293.8Zm-4.5-2.7c0,1,.1,2,.2,3a6.75,6.75,0,0,0,.2,1.4.37.37,0,0,1,.1.3l.1-.1a13.49,13.49,0,0,0,1.4-3.5,8.81,8.81,0,0,1,.2-1.7c.1-.5.7-.3.7.1l-.3,1.7a23.58,23.58,0,0,0,.1,4.6c.1.5-.7.6-.5.2a17.85,17.85,0,0,1-.2-2.3c-.1.2-.3.4-.3.6a6.38,6.38,0,0,1-.8,1.4c-.9.9-1.1-1.3-1.3-1.8,0-.2-.1-.5-.1-.7-.1.3-.2.8-.3,1.2a6.38,6.38,0,0,1-1.5,2.8.1.1,0,0,0-.1.1c-.1.1-.3,0-.4-.2a5.09,5.09,0,0,1-.7-1.7c-.1-.6.6-.6.7-.1l.3.9a5.13,5.13,0,0,0,1-2.4,22,22,0,0,0,.7-3.7.32.32,0,0,1,.3-.3C350.5,290.9,350.9,290.9,350.9,291.1Z"/><path class="cls-5" d="M377.6,297.1c0,.1.1.2.1.3s.2.2.1.2c.1.1.3-.2.5-.3a4,4,0,0,0,.3-1.5h0a4.48,4.48,0,0,0,.1-1.1c-.3.3-.6.7-.9,1A2.2,2.2,0,0,0,377.6,297.1Z"/><path class="cls-6" d="M377.6,297.1c0,.1.1.2.1.3s.2.2.1.2c.1.1.3-.2.5-.3a4,4,0,0,0,.3-1.5h0a4.48,4.48,0,0,0,.1-1.1c-.3.3-.6.7-.9,1A2.2,2.2,0,0,0,377.6,297.1Z"/><path class="cls-5" d="M380.8,289.7h0c.2,0,.3-.2.2-.5s-.5-.1-.6,0-.3,0-.2-.1a.1.1,0,0,1,.1-.1c.1-.1,0-.3-.2-.4s-.3,0-.5.1v.6c0,.1.1.2.1.3h1.1Z"/><path class="cls-6" d="M380.8,289.7h0c.2,0,.3-.2.2-.5s-.5-.1-.6,0-.3,0-.2-.1a.1.1,0,0,1,.1-.1c.1-.1,0-.3-.2-.4s-.3,0-.5.1v.6c0,.1.1.2.1.3h1.1Z"/><path class="cls-5" d="M367.3,294.5h0c.6-.2.5-.9.6-1.5,0-.3-.1-.8-.5-.7a1.39,1.39,0,0,0-.5,1,.35.35,0,0,1-.1.2v.5c0,.1,0,.3.1.3C367,294.5,367.1,294.6,367.3,294.5Z"/><path class="cls-6" d="M367.3,294.5h0c.6-.2.5-.9.6-1.5,0-.3-.1-.8-.5-.7a1.39,1.39,0,0,0-.5,1,.35.35,0,0,1-.1.2v.5c0,.1,0,.3.1.3C367,294.5,367.1,294.6,367.3,294.5Z"/><path class="cls-5" d="M374.3,322.4l-2.9,2,6.4-1-.2-1.3Z"/><path class="cls-6" d="M374.3,322.4l-2.9,2,6.4-1-.2-1.3Z"/><path class="cls-5" d="M373,292.7a1.7,1.7,0,0,0-.1.7c.1.1.1.1.1.2h0a.1.1,0,0,1,.1.1c.1,0,.2-.2.3-.3h0c.1-.2.1-.3.2-.3.1-.3.1-.8-.3-.9a1.42,1.42,0,0,0-.6.2A.27.27,0,0,1,373,292.7Z"/><path class="cls-6" d="M373,292.7a1.7,1.7,0,0,0-.1.7c.1.1.1.1.1.2h0a.1.1,0,0,1,.1.1c.1,0,.2-.2.3-.3h0c.1-.2.1-.3.2-.3.1-.3.1-.8-.3-.9a1.42,1.42,0,0,0-.6.2A.27.27,0,0,1,373,292.7Z"/><path class="cls-5" d="M355.3,295.7h0c0-.2.1-.8,0-.9s-.5.3-.5.6c0,.1,0,.2-.1.2a1.7,1.7,0,0,0,.1.7C355.1,296.6,355.3,295.9,355.3,295.7Z"/><path class="cls-6" d="M355.3,295.7h0c0-.2.1-.8,0-.9s-.5.3-.5.6c0,.1,0,.2-.1.2a1.7,1.7,0,0,0,.1.7C355.1,296.6,355.3,295.9,355.3,295.7Z"/><path class="cls-5" d="M359.6,300.7c0,.1.1.2.1.3s.2.2.1.2a1.21,1.21,0,0,0,.5-.5,2.49,2.49,0,0,0,.3-1.7h0v-1.3a5.67,5.67,0,0,0-.8,1.3A3.45,3.45,0,0,0,359.6,300.7Z"/><path class="cls-6" d="M359.6,300.7c0,.1.1.2.1.3s.2.2.1.2a1.21,1.21,0,0,0,.5-.5,2.49,2.49,0,0,0,.3-1.7h0v-1.3a5.67,5.67,0,0,0-.8,1.3A3.45,3.45,0,0,0,359.6,300.7Z"/><path class="cls-5" d="M307.9,288.3l-2.5-16-5.1.8L288.1,275l.8,5.3,6.5,41.8,1.9,12.2,3.1-.5h0l12.3-1.9,1.6-.2,15.1-2.3.3-.1,15.6-2.4-9-58.1-.2-1.3L319,270.2l2.5,16Zm34,35.8L327,326.4l-1.4-9.1,14.9-2.3Z"/><path class="cls-18" d="M307.9,288.3l-2.5-16-5.1.8L288.1,275l.8,5.3,6.5,41.8,1.9,12.2,3.1-.5h0l12.3-1.9,1.6-.2,15.1-2.3.3-.1,15.6-2.4-9-58.1-.2-1.3L319,270.2l2.5,16Zm34,35.8L327,326.4l-1.4-9.1,14.9-2.3Z"/><polygon class="cls-3" points="312.7 271.16 319.12 270.16 319.12 270.16 312.7 271.16"/><polygon class="cls-18" points="312.7 271.16 319.12 270.16 319.12 270.16 312.7 271.16"/><polygon class="cls-4" points="305.29 272.4 312.51 271.28 312.51 271.28 305.29 272.4"/><polygon class="cls-18" points="305.29 272.4 312.51 271.28 312.51 271.28 305.29 272.4"/><polygon class="cls-5" points="305.4 272.3 307.9 288.3 321.5 286.2 319 270.2 312.6 271.2 305.4 272.3"/><polygon class="cls-18" points="305.4 272.3 307.9 288.3 321.5 286.2 319 270.2 312.6 271.2 305.4 272.3"/><polygon class="cls-18" points="305.4 272.3 307.9 288.3 321.5 286.2 319 270.2 312.6 271.2 305.4 272.3"/><polygon class="cls-5" points="356.1 264.5 356.3 265.8 370 263.7 369.7 262.4 356.1 264.5"/><polygon class="cls-16" points="356.1 264.5 356.3 265.8 370 263.7 369.7 262.4 356.1 264.5"/><polygon class="cls-5" points="356.3 265.8 358.6 280.5 372.2 278.4 370 263.7 356.3 265.8"/><polygon class="cls-6" points="356.3 265.8 358.6 280.5 372.2 278.4 370 263.7 356.3 265.8"/><polygon class="cls-16" points="356.3 265.8 358.6 280.5 372.2 278.4 370 263.7 356.3 265.8"/><rect class="cls-5" x="326.14" y="316.12" width="15.1" height="9.2" transform="translate(-45.14 54.83) rotate(-8.8)"/><rect class="cls-18" x="326.14" y="316.12" width="15.1" height="9.2" transform="translate(-45.14 54.83) rotate(-8.8)"/><rect class="cls-14" x="326.14" y="316.12" width="15.1" height="9.2" transform="translate(-45.14 54.83) rotate(-8.8)"/><path class="cls-5" d="M357.2,322.7a9.86,9.86,0,0,0-.3,2.4l2.4-.4A10.23,10.23,0,0,1,357.2,322.7Z"/><path class="cls-6" d="M357.2,322.7a9.86,9.86,0,0,0-.3,2.4l2.4-.4A10.23,10.23,0,0,1,357.2,322.7Z"/><path class="cls-19" d="M357.2,322.7a9.86,9.86,0,0,0-.3,2.4l2.4-.4A10.23,10.23,0,0,1,357.2,322.7Z"/><path class="cls-13" d="M365.3,328.2a58.36,58.36,0,0,0,6.1-3.9l2.9-2,3.3-.3-1-6.6-4.5,1.1a7.31,7.31,0,0,0-5.2-1.1c-2.9.5-10,6.2-9.8,7.1a.1.1,0,0,0,.1.1,8.05,8.05,0,0,0,2.1,2l1.5,1.2C362.7,327.3,364.7,328.5,365.3,328.2Z"/><path class="cls-5" d="M413.7,249.3s-8.4,2.2-7.2,17.9c.6,6.8.8,14,.9,20.1a21.66,21.66,0,0,1-11.8,19.6l-1.9.8-3.1,1.3-.3.1-9.5,3.9,1.1,11h.4c4.5-.5,24-2.9,31.5-8.9a3,3,0,0,0,.8-.8h0c7.8-7,10.5-20.8,9.2-32.3-2-15.8-1.4-31.7-8.7-32.7Z"/><path class="cls-16" d="M413.7,249.3s-8.4,2.2-7.2,17.9c.6,6.8.8,14,.9,20.1a21.66,21.66,0,0,1-11.8,19.6l-1.9.8-3.1,1.3-.3.1-9.5,3.9,1.1,11h.4c4.5-.5,24-2.9,31.5-8.9a3,3,0,0,0,.8-.8h0c7.8-7,10.5-20.8,9.2-32.3-2-15.8-1.4-31.7-8.7-32.7Z"/><polygon class="cls-5" points="377.8 323.4 378.2 325.8 382 325.4 381.9 324 380.8 313 380.6 311 376.1 312.2 376.6 315.5 377.6 322.1 377.8 323.4"/><polygon class="cls-8" points="377.8 323.4 378.2 325.8 382 325.4 381.9 324 380.8 313 380.6 311 376.1 312.2 376.6 315.5 377.6 322.1 377.8 323.4"/><rect class="cls-5" x="387.56" y="271.98" width="13.5" height="2.2" transform="translate(-22.74 36.18) rotate(-5.11)"/><rect class="cls-9" x="387.56" y="271.98" width="13.5" height="2.2" transform="translate(-22.74 36.18) rotate(-5.11)"/><path class="cls-5" d="M392.8,243.8l-9.4,3.6h0l2.7,3.5,1.7,2.2,9.1-6h0v-.6a3,3,0,0,0-1.1-2.5,4.18,4.18,0,0,0-1-.4A4.27,4.27,0,0,0,392.8,243.8Z"/><path class="cls-8" d="M392.8,243.8l-9.4,3.6h0l2.7,3.5,1.7,2.2,9.1-6h0v-.6a3,3,0,0,0-1.1-2.5,4.18,4.18,0,0,0-1-.4A4.27,4.27,0,0,0,392.8,243.8Z"/><path class="cls-5" d="M379.6,253.1l1.7-2.5,2.1-3.2h0l-2.4-1.9-.2-.2s-1-.8-2.4.8l-1,1.7h0Z"/><path class="cls-8" d="M379.6,253.1l1.7-2.5,2.1-3.2h0l-2.4-1.9-.2-.2s-1-.8-2.4.8l-1,1.7h0Z"/><polygon class="cls-5" points="383.38 247.38 383.38 247.38 383.38 247.38 383.38 247.38"/><polygon class="cls-8" points="383.38 247.38 383.38 247.38 383.38 247.38 383.38 247.38"/><polygon class="cls-8" points="383.38 247.38 383.38 247.38 383.38 247.38 383.38 247.38"/><path class="cls-20" d="M373.3,209a21.1,21.1,0,0,1-2.3-1.9l1-.7a14.21,14.21,0,0,0,2.5,2.4c.1.1.2.1.3.2a15.91,15.91,0,0,0,13.3-1.1s1,7.1,2.7,10h0s1.8-2.9,3.7-3.3,4.5.1,3.9,4a6.45,6.45,0,0,1-3.9,5.1c0,.3.1.5.1.8a15.28,15.28,0,0,1-.1,3.7v.1c2.6-1.8,5.5-7,5.5-7s7.7-15.8-5.1-24.2-25.5-.2-27.6,8.3c-1.7,6.7.8,8.6,1.3,8.9a.1.1,0,0,1,.1.1A12.07,12.07,0,0,0,373.3,209Z"/><path class="cls-20" d="M372,206.4l-1,.7a13.65,13.65,0,0,0,2.3,1.9,4.23,4.23,0,0,0,.7.5,18.45,18.45,0,0,0,3.5,1.5,14.27,14.27,0,0,0,7.4.2,15.28,15.28,0,0,1-3.7.1,14.74,14.74,0,0,1-3.5-.8,15.57,15.57,0,0,1-2.8-1.6c-.1-.1-.2-.1-.3-.2A7.11,7.11,0,0,1,372,206.4Z"/><path class="cls-5" d="M499.7,274.4s-10.9-11.3-20.2-3c-13.2,11.8,6,33.1,20.2,37.4a25.91,25.91,0,0,0,6.4-2.9c12.7-7.3,25.1-24.3,13.8-34.5-5.3-4.7-11-3.1-15.1-.9A25.2,25.2,0,0,0,499.7,274.4Z"/><path class="cls-8" d="M499.7,274.4s-10.9-11.3-20.2-3c-13.2,11.8,6,33.1,20.2,37.4a25.91,25.91,0,0,0,6.4-2.9c12.7-7.3,25.1-24.3,13.8-34.5-5.3-4.7-11-3.1-15.1-.9A25.2,25.2,0,0,0,499.7,274.4Z"/><path class="cls-5" d="M311.6,198c.3-.1.7-.2,1-.3,14-4.8,32.1-25.4,19.2-37-9.3-8.3-20.2,3-20.2,3s-10.9-11.3-20.2-3c-4.4,4-5.2,9-3.8,14C290.4,184.8,302.1,195.2,311.6,198Z"/><path class="cls-8" d="M311.6,198c.3-.1.7-.2,1-.3,14-4.8,32.1-25.4,19.2-37-9.3-8.3-20.2,3-20.2,3s-10.9-11.3-20.2-3c-4.4,4-5.2,9-3.8,14C290.4,184.8,302.1,195.2,311.6,198Z"/><path class="cls-5" d="M441.2,195.3c-3.8-3.5-8.3,1.3-8.3,1.3s-4.5-4.6-8.3-1.3c-5.4,4.8,2.4,13.6,8.3,15.3C438.8,208.8,446.6,200.1,441.2,195.3Z"/><path class="cls-8" d="M441.2,195.3c-3.8-3.5-8.3,1.3-8.3,1.3s-4.5-4.6-8.3-1.3c-5.4,4.8,2.4,13.6,8.3,15.3C438.8,208.8,446.6,200.1,441.2,195.3Z"/><path class="cls-5" d="M85.3,302c5.8-1.8,13.7-10.5,8.3-15.3-3.8-3.5-8.3,1.3-8.3,1.3s-4.5-4.6-8.3-1.3a6.1,6.1,0,0,0-1.2,1.6,5.52,5.52,0,0,0-.1,4.7C77,297,81.5,300.9,85.3,302Z"/><path class="cls-8" d="M85.3,302c5.8-1.8,13.7-10.5,8.3-15.3-3.8-3.5-8.3,1.3-8.3,1.3s-4.5-4.6-8.3-1.3a6.1,6.1,0,0,0-1.2,1.6,5.52,5.52,0,0,0-.1,4.7C77,297,81.5,300.9,85.3,302Z"/><path class="cls-10" d="M364.1,293.2v-.5c0-.5-.8-.5-.7,0,.1,1,.1,1.4.2,2.4a2.2,2.2,0,0,0,.1.8.37.37,0,0,0,.5.2c.1-.1.2-.2.2-.3a2.2,2.2,0,0,0-.1-.8,2.79,2.79,0,0,1,.6-1.8c.1-.2.2-.3.3-.1a1.7,1.7,0,0,1,.1.7,6.6,6.6,0,0,1,.1,1.4c.1.6.8.6.8.1a7.61,7.61,0,0,0-.3-2.1c-.1-.2-.1-.6-.3-.8s-.6-.1-.8,0A1.39,1.39,0,0,0,364.1,293.2Z"/><path class="cls-10" d="M366.9,295.3a.76.76,0,0,0,.9-.2,5.58,5.58,0,0,0,.5-.8l-.1-.1c-.2-.2.1-.5.3-.5.1-.7.1-1.5-.6-1.8a1.09,1.09,0,0,0-1,.2,4.05,4.05,0,0,0-.5.9l-.1.1a2.85,2.85,0,0,0,0,1.3A1.46,1.46,0,0,0,366.9,295.3Zm-.1-1.7c.1-.1.1-.1.1-.2a1.23,1.23,0,0,1,.5-1c.3-.1.5.3.5.7-.1.6,0,1.3-.6,1.5h0c-.1,0-.3,0-.3-.1a.37.37,0,0,1-.1-.3v-.6Z"/><path class="cls-10" d="M368.2,294.2a.1.1,0,0,0,.1.1,1,1,0,0,0,1.1.3,1.38,1.38,0,0,0,.4-.3c.1-.1.1-.2.2-.3a.66.66,0,0,0,.7.2c.1,0,.2-.1.3-.2,0,.1,0,.3.1.3,0,.5.7.2.6-.2a2.77,2.77,0,0,1-.1-.9V293a1.06,1.06,0,0,0-.1-1.3.45.45,0,0,0-.5,0c-.1.1-.1.1-.1.2v.9c-.1.1-.2.5-.5.6a.76.76,0,0,1-.2-.5v-.8c0-.2-.2-.3-.4-.3s-.2.1-.3.2a1.39,1.39,0,0,0,0,.9c0,.1,0,.3-.1.3,0,.2-.1.3-.2.5s-.3.2-.5,0a.37.37,0,0,0-.3-.1C368.2,293.7,368,294,368.2,294.2Z"/><path class="cls-10" d="M372.2,293.6a.85.85,0,0,0,.8.7,1,1,0,0,0,.8-.5,1.8,1.8,0,0,0,.6-.9,1.31,1.31,0,0,0-.8-1.6h-.2a1.22,1.22,0,0,0-1.4,1v.3c0,.1.1.2.2.3Zm1.2-1.5a.55.55,0,0,1,.3.9c-.1,0-.1.1-.2.3h0c-.1.1-.2.3-.3.3s0-.1-.1-.1h0a.35.35,0,0,0-.1-.2,1.7,1.7,0,0,1,.1-.7c0-.2-.1-.3-.2-.3A.76.76,0,0,1,373.4,292.1Z"/><path class="cls-10" d="M374.9,291.9c.1-.1.1-.1.2-.1s-.1.2-.1.3-.2.6-.3.8a.83.83,0,0,0,.5,1h0c.6.1,1-.5,1.3-.8a2.09,2.09,0,0,1,.4-.6,4.87,4.87,0,0,1-.1-1.2v.1a9.14,9.14,0,0,1-.7,1.4c-.1.1-.3.6-.6.5-.1-.1.1-.6.2-.7a1.48,1.48,0,0,0,0-1.3c-.3-.3-1-.1-1.3.1S374.5,292.1,374.9,291.9Z"/><path class="cls-10" d="M376.8,292.5a4.88,4.88,0,0,0,.3.7c.5.5,1.1,0,1.6-.3v.9c-1.3,1-2.4,2.3-1.7,3.8a.78.78,0,0,0,.9.6,1.59,1.59,0,0,0,1-.8,3.19,3.19,0,0,0,.3-1.4,8.6,8.6,0,0,0,.1-1.6v-.2a5.55,5.55,0,0,1,.8-.6c.5-.2,0-.7-.3-.5-.1.1-.2.1-.3.2,0-.9.1-1.7.1-2.6,0-.3-.7-.5-.7,0s-.1.9-.1,1.4c-.1,0-.1,0-.2.1a1,1,0,0,1-.6.5c-.1,0-.2.1-.3.1s-.1-.2-.2-.3a3.79,3.79,0,0,1,0-1.5c.1-.3-.7-.5-.7,0,0,.1-.1.3-.1.4A3.75,3.75,0,0,0,376.8,292.5Zm1.9,3.3h0l-.3,1.5c-.1.1-.3.5-.5.3.1,0-.1-.2-.1-.2s-.1-.2-.1-.3a2.2,2.2,0,0,1,.2-1.4,9,9,0,0,1,.9-1A4.48,4.48,0,0,1,378.7,295.8Z"/><path class="cls-10" d="M358.7,295.9c.1.1.1.3.2.4.5.5,1,0,1.5-.5v1c-1.1,1.2-2.2,2.8-1.5,4.5.1.5.3.8.8.6a2,2,0,0,0,.9-.9,4.53,4.53,0,0,0,.3-1.6c0-.6.1-1.3.1-1.8v-.3a2.7,2.7,0,0,0,.7-.8c.1,0,.2-.2.2-.3s-.2-.2-.3-.2h-.1c-.1.1-.2.2-.2.3,0-1,0-2,.1-3,0-.5-.6-.5-.7,0a8.6,8.6,0,0,1-.1,1.6c-.1,0-.1.1-.2.1a1.7,1.7,0,0,1-.6.6c-.1.1-.2.2-.3.1s-.1-.2-.2-.3a4.3,4.3,0,0,1,0-1.6c0-.5-.6-.5-.7,0a4.85,4.85,0,0,0,0,1.7C358.8,295.5,358.9,295.7,358.7,295.9Zm1.9,3.2h0a3.23,3.23,0,0,1-.3,1.7,1.21,1.21,0,0,1-.5.5c.1,0-.1-.2-.1-.2s-.1-.2-.1-.3a3,3,0,0,1,.2-1.6,5.67,5.67,0,0,1,.8-1.3Z"/><path class="cls-10" d="M350.3,291.1a16.09,16.09,0,0,1-.7,3.7,6.43,6.43,0,0,1-1,2.4l-.3-.9c-.1-.5-.8-.5-.7.1a5.09,5.09,0,0,0,.7,1.7.52.52,0,0,0,.4.2.1.1,0,0,0,.1-.1,5.88,5.88,0,0,0,1.5-2.8c.1-.3.2-.8.3-1.2,0,.2.1.5.1.7.1.6.3,2.8,1.3,1.8a6.38,6.38,0,0,0,.8-1.4l.3-.6a17.85,17.85,0,0,0,.2,2.3c-.2.3.6.2.5-.2a23.58,23.58,0,0,1-.1-4.6l.3-1.7c0-.5-.6-.6-.7-.1a9.85,9.85,0,0,0-.2,1.7,15.06,15.06,0,0,1-1.4,3.5l-.1.1c0-.1-.1-.2-.1-.3a5.9,5.9,0,0,1-.2-1.4c-.1-1-.2-2-.2-3a.32.32,0,0,0-.3-.3C350.7,290.7,350.3,290.9,350.3,291.1Z"/><path class="cls-10" d="M354.2,294.5a.22.22,0,0,0-.2.2c-.1.7-.1,2,.6,2.2s1.3-.6,1.4-1.3c.1-.3.2-1.6-.5-1.8A1.15,1.15,0,0,0,354.2,294.5Zm.7.8c0-.2.2-.8.5-.6.1.1,0,.7,0,.9h0c0,.2-.2.9-.5.6a1.7,1.7,0,0,1-.1-.7C354.9,295.6,354.9,295.5,354.9,295.3Z"/><path class="cls-10" d="M356.8,294.5c0-.1.2-.2.3-.2s.1,0,0,.1a3,3,0,0,1-.5.7c-.2.3-.6.8-.5,1.3.1,1.3,2,0,2.3-.3a.22.22,0,0,0,.2-.2c.1-.2,0-.4-.1-.4h-.3a2.18,2.18,0,0,1-.8.5.37.37,0,0,1-.3.1V296a6.38,6.38,0,0,0,.8-1.4.75.75,0,0,0-.4-.9h-.2a1.3,1.3,0,0,0-1.2.8C356,294.9,356.7,295,356.8,294.5Z"/><path class="cls-10" d="M379.6,290.2a2.77,2.77,0,0,1,.9-.1h.5c.2-.2.3-.3.3-.5a.48.48,0,0,0-.2-.6h0c-.1-.1-.2-.1-.5,0,0-.1,0-.3-.1-.3a1.06,1.06,0,0,0-.8-.1.6.6,0,0,0-.3.6v.6c0,.1.1.1,0,.2v.1C379.2,290.2,379.5,290.3,379.6,290.2Zm.1-1.4a.44.44,0,0,1,.5-.1.52.52,0,0,1,.2.4.1.1,0,0,1-.1.1c-.1.1.1.2.2.1s.5-.2.6,0,0,.5-.2.5h-1c0-.1-.1-.2-.1-.3v-.7Z"/><path class="cls-3" d="M153,40H454a41.06,41.06,0,0,1,41,41h0a41.06,41.06,0,0,1-41,41H153a41.06,41.06,0,0,1-41-41h0A41.06,41.06,0,0,1,153,40Z"/><path class="cls-21" d="M204,122v24.6L228.6,122Z"/><g class="cls-22"><path class="cls-5" d="M185.8,69.2V100h-7.1V87.4h-14V100h-7.1V69.2h7.1V81.3h14V69.2Z"/><path class="cls-5" d="M221.3,69.2,208.2,93.6a15.11,15.11,0,0,1-4.6,5.3,10.19,10.19,0,0,1-5.8,1.8,13.3,13.3,0,0,1-5-1.1l1.7-5.4a10.42,10.42,0,0,0,3.1.6,4.75,4.75,0,0,0,2.4-.6,6.13,6.13,0,0,0,1.9-2l.3-.4L190.1,69.2h7.6l8.2,16.5,8.4-16.5Z"/><path class="cls-5" d="M252.1,87.6h-4.5V100h-7V87.6H236L229.1,100h-8.2l9.2-16.1-8.7-14.7h7.5l6.9,12.5h4.7V69.2h7V81.7h4.6l7-12.5h7.5L258,83.9l9.2,16.1H259Z"/><path class="cls-5" d="M303.2,94.2v12.2h-6.6V100H274.9v6.4h-6.6V94.2h1.2c1.8-.1,3.2-1.4,3.9-4a48.34,48.34,0,0,0,1.4-11.3l.4-9.6h23.7v25h4.3Zm-22.9-5.5a12.33,12.33,0,0,1-2.2,5.5h13.8V75H281.3l-.1,4.5A89.41,89.41,0,0,1,280.3,88.7Z"/><path class="cls-5" d="M329.1,93.4H314.8l-2.7,6.6h-7.3l13.7-30.8h7L339.3,100h-7.5ZM326.9,88,322,76.2,317.1,88Z"/><path class="cls-5" d="M379,70.7a15.13,15.13,0,0,1,5.8,5.7,15.89,15.89,0,0,1,2.1,8.2,16.41,16.41,0,0,1-2.1,8.2,15.85,15.85,0,0,1-5.8,5.7,16.79,16.79,0,0,1-8.3,2.1,17.31,17.31,0,0,1-7.6-1.7,15.09,15.09,0,0,1-5.7-4.6,14.7,14.7,0,0,1-2.8-6.8h-4V100h-7.1V69.2h7.1V81.3h4.1a15.19,15.19,0,0,1,2.9-6.6,16,16,0,0,1,13-6.1A19.31,19.31,0,0,1,379,70.7Zm-3.8,22.5a8.58,8.58,0,0,0,3.3-3.5,10.67,10.67,0,0,0,1.2-5.1,10.39,10.39,0,0,0-1.2-5.1,8.58,8.58,0,0,0-3.3-3.5,9.42,9.42,0,0,0-9.2,0,8.58,8.58,0,0,0-3.3,3.5,10.67,10.67,0,0,0-1.2,5.1,10.39,10.39,0,0,0,1.2,5.1,9.25,9.25,0,0,0,3.3,3.5,9,9,0,0,0,4.6,1.2A8.77,8.77,0,0,0,375.2,93.2Z"/><path class="cls-5" d="M398.5,98.5a16.41,16.41,0,0,1-6-5.7,16.38,16.38,0,0,1,0-16.4,15.67,15.67,0,0,1,6-5.7,17.6,17.6,0,0,1,8.6-2,18.12,18.12,0,0,1,7.2,1.4,13.66,13.66,0,0,1,5.4,4l-4.6,4.2a9.9,9.9,0,0,0-7.7-3.6,9.69,9.69,0,0,0-5.1,1.3,8.44,8.44,0,0,0-3.5,3.5,10.72,10.72,0,0,0-1.3,5.1,9.69,9.69,0,0,0,1.3,5.1,8.44,8.44,0,0,0,3.5,3.5,10.72,10.72,0,0,0,5.1,1.3,9.42,9.42,0,0,0,7.7-3.7l4.6,4.2a14,14,0,0,1-5.5,4.1,19,19,0,0,1-7.3,1.4A18.26,18.26,0,0,1,398.5,98.5Z"/><path class="cls-5" d="M448,81.8c2,1.7,3,4.2,3,7.4,0,3.5-1.1,6.2-3.3,8s-5.3,2.8-9.3,2.8H424.5V69.2h7.1V79.3h7.8A13.75,13.75,0,0,1,448,81.8Zm-5.8,11.6a5.11,5.11,0,0,0,1.6-4c0-3.2-2-4.8-5.9-4.8h-6.4V94.7h6.4A6.15,6.15,0,0,0,442.2,93.4Z"/></g></g></svg>