<svg xmlns="http://www.w3.org/2000/svg" xmlns:xlink="http://www.w3.org/1999/xlink" width="596" height="428" viewBox="0 0 596 428"><defs><style>.cls-1{fill:url(#Безымянный_градиент_2);}.cls-2{fill:none;}.cls-3{opacity:0.04;}.cls-11,.cls-20,.cls-22,.cls-23,.cls-24,.cls-27,.cls-28,.cls-29,.cls-3,.cls-30,.cls-31,.cls-32,.cls-33,.cls-4,.cls-7{isolation:isolate;}.cls-4{opacity:0.06;}.cls-32,.cls-5{fill:#455a64;}.cls-6{fill:#ed1c24;}.cls-16,.cls-24,.cls-28,.cls-29,.cls-30,.cls-31,.cls-7{fill:#fff;}.cls-7{opacity:0.45;}.cls-8{fill:#ebebeb;}.cls-9{fill:#fafafa;}.cls-10{fill:#e0e0e0;}.cls-11,.cls-29{opacity:0.3;}.cls-12{fill:#ffa8a7;}.cls-13{fill:#f5f5f5;}.cls-14{fill:#37474f;}.cls-15{fill:#f0f0f0;}.cls-17,.cls-20{fill:#f28f8f;}.cls-18{fill:#263238;}.cls-19{fill:#b16668;}.cls-20{opacity:0.5;}.cls-21{fill:#9a4a4d;}.cls-22,.cls-24{opacity:0.2;}.cls-23,.cls-32{opacity:0.1;}.cls-25{fill:#e7d4ce;}.cls-26{fill:#e6e6e6;}.cls-27{opacity:0.35;}.cls-28{opacity:0.6;}.cls-30{opacity:0.4;}.cls-31{opacity:0.8;}</style><linearGradient id="Безымянный_градиент_2" x1="-0.59" y1="514.89" x2="-0.59" y2="513.89" gradientTransform="matrix(596, 0, 0, -428, 651.5, 220371.5)" gradientUnits="userSpaceOnUse"><stop offset="0" stop-color="#fff"/><stop offset="1" stop-color="#ffe9e1"/></linearGradient></defs><title>pomogu</title><g id="Слой_2" data-name="Слой 2"><rect class="cls-1" width="596" height="428" rx="14"/></g><g id="Слой_1" data-name="Слой 1"><path class="cls-2" d="M434.9,272.3a57.12,57.12,0,0,1-12.5-1.8l-1.3,5.4c4.8,2.2,9.5,4.5,13.9,6.9Z" transform="translate(-0.5 -0.5)"/><path class="cls-2" d="M457,296.9l-6.3-26.3a60.84,60.84,0,0,1-12.1,1.7l-.1,12.4A179.44,179.44,0,0,1,457,296.9Z" transform="translate(-0.5 -0.5)"/><path class="cls-3" d="M416.8,303.9a22.5,22.5,0,0,1,.8,2.4,52.89,52.89,0,0,1,17.6-3.2l-.2-20.3c-4.4-2.4-9.1-4.7-13.9-6.9l-1.1,4.8C422.3,286.7,421.4,297.8,416.8,303.9Z" transform="translate(-0.5 -0.5)"/><path class="cls-3" d="M438.3,303.1c7.6.2,15.2,1.8,21.3,4.9l-2.7-11a179.44,179.44,0,0,0-18.5-12.2Z" transform="translate(-0.5 -0.5)"/><path class="cls-3" d="M203,420.4l6.7-3.9V406.1a121,121,0,0,1-32.8,4.4c-41,0-74.2-19.2-74.2-42.8,0-14.7,12.9-27.7,32.4-35.4l.1-2.4c-8.7-2.7-16.8-6-20.1-9.6-10.6,14-16.5,29.5-16.5,45.8,0,22.8,11.5,44,31.3,61.8h80l-6.9-4C201.3,423,201.3,421.4,203,420.4Z" transform="translate(-0.5 -0.5)"/><path class="cls-3" d="M328.5,268.5c.2,4.7.4,8.8.4,8.8a34.86,34.86,0,0,1,6.4,10c1.2,2.6,2.5,6.8,4.7,13.8.9,2.7,1.5,4.6,1.7,5.2a10.85,10.85,0,0,0,1.5,2.8l.2.2a.31.31,0,0,1-.1-.2c.2-.2.4-.1.8.2l4.3-2.5a1.38,1.38,0,0,0-.4-.3,5.36,5.36,0,0,1-.7-7.5,5.27,5.27,0,0,1,7.5-.7,2.48,2.48,0,0,1,1.1,2.4,12,12,0,0,1,5.1-1.3l19.8-11.5,6.7,3.9c-2.7-3.2-6.4-5.8-8.5-8.3s-2.3-5,1-6.4c5.2-2.2,15.8,7.3,18.5,16.7a16.16,16.16,0,0,1,5.8.1,16,16,0,0,1,6.7,2.8c1.7-5.2.2-11.9.4-16.2.2-3.3,1.8-5.2,5.2-3.9l.6.3.6-2.6c-25.4-11-55.6-18.6-88.4-21.6.4,6.4.5,14.2.5,14.2A3.65,3.65,0,0,1,328.5,268.5Z" transform="translate(-0.5 -0.5)"/><path class="cls-3" d="M460.9,300l2.2,9.9c12.2,7.9,11.8,20.2-1.5,27.8-5.9,3.4-13.4,5.3-21.1,5.8l-2.7,1.5v26.2l6.1,3.5-2.3,1.3,4.5,2.6c1.6.9,1.6,2.3,0,3.2l-62.5,36.1a5.94,5.94,0,0,1-5.5,0l-31-17.9-6.6,3.8v12.6l7,4.1c1.7,1,1.7,2.6,0,3.6l-6.9,4H466c19.8-17.8,31.3-39.1,31.3-61.8C497.3,341.5,483.8,318.7,460.9,300Z" transform="translate(-0.5 -0.5)"/><path class="cls-3" d="M201.8,276.7a21.92,21.92,0,0,1,7.3.1l2.8-1.6,44.9,25.9a7.33,7.33,0,0,1,3.6,5.8,2.28,2.28,0,0,1-1,2.1l-.9.5,1.8,1.1h0v6.1A2.77,2.77,0,0,1,259,319l-.7.4a6.92,6.92,0,0,1,2,4.5,2.28,2.28,0,0,1-1,2.1l-25.1,14.5c6.1,4.3,10.7,9.2,13.6,14.6l27.3-15.8,48.6,28.1V345l-12.9-7.4,12.9-16.5,9.9-5.7c-.7-3.4-2.9-6-4.8-9-4.7-7.4-6.8-10.4-11.1-16.5-5.3-7.5-5.8-8.8-7.5-15.9-.2-.8-.4-1.5-.6-2.3a1.75,1.75,0,0,0-.5-.1l-1-3.7-1,3.1H307v0a2,2,0,0,1-.5.1c-1.5,4.9-2.9,9.5-2.9,9.5a47.74,47.74,0,0,1,.3,10.7c-.3,2.9-.9,6.2-1.9,13.3a35.59,35.59,0,0,0-.5,4.7v.3c.6.1.7.7.8,1.6s.5,2.4.9,4.1a5.83,5.83,0,0,1-.4,3.9h0c.1,1.4-1,1.9-2,2.3a10.16,10.16,0,0,0-3.6,1.8,26,26,0,0,0-3,3.6c-1,1.3-4.1,3.6-9.2,3.8-5.4.3-7.5-1.5-8-2.2a3.92,3.92,0,0,1-.4-1.8,6.89,6.89,0,0,1-.3-.8c-.3-1.9,2.5-3.4,3.8-4.2a1.61,1.61,0,0,1,.9-.3,20.91,20.91,0,0,0,2.9-2.3,34,34,0,0,0,6-7.5c.1-.2.2-.3.3-.5.8-2.5.1-5.6-.3-8.2-.1-1-1.1-8.1-1.9-15.4-.3-3.6-.6-5.9-.8-7.8a10.06,10.06,0,0,1-5.5,2.5c-4.2.8-6.2-.1-7.1-1.6a2.91,2.91,0,0,1,1.4-3.9h0a20.13,20.13,0,0,1,2.5-1.4h0l-.3-1.1h.1c-.4-1.2-.8-2.3-1.3-3.5a13.47,13.47,0,0,0-3.5-4.7,14.77,14.77,0,0,1-2.1.1,6.15,6.15,0,0,1-1.3-.1,49.44,49.44,0,0,1-3.4,9h0c-.9,1.1-3,2.6-7.3,2.3s-6.1-1.6-6.6-3.2a3,3,0,0,1,2.3-3.5,24.6,24.6,0,0,1,2.9-.7h0a43,43,0,0,0-.4-6.2,46.08,46.08,0,0,0-1.5-5.3c-.1-.3-.3-.5-.4-.8,0,.1.1.1.1.2a13.36,13.36,0,0,1-.7-1.8,9.36,9.36,0,0,1-.4-1.6v-.2a293.45,293.45,0,0,0-55,12.2l.3,1.5C200.6,270.3,201.2,273.6,201.8,276.7Z" transform="translate(-0.5 -0.5)"/><path class="cls-3" d="M135.9,302.3l-2.3,7.6c.3.2,1.1.7,2.4,1.4l.2-3.7C136.1,305.9,136,304.1,135.9,302.3Z" transform="translate(-0.5 -0.5)"/><path class="cls-3" d="M347.5,420.4l-7-4.1v4.4L328,428h12.6l6.9-4C349.2,423,349.2,421.4,347.5,420.4Z" transform="translate(-0.5 -0.5)"/><path class="cls-4" d="M347.5,420.4l-7-4.1v4.4L328,428h12.6l6.9-4C349.2,423,349.2,421.4,347.5,420.4Z" transform="translate(-0.5 -0.5)"/><path class="cls-3" d="M209.7,420.8h0v-4.2l-6.7,3.9c-1.7,1-1.7,2.6,0,3.6l6.9,4h12.2l-12.4-7.3Z" transform="translate(-0.5 -0.5)"/><path class="cls-4" d="M209.7,420.8h0v-4.2l-6.7,3.9c-1.7,1-1.7,2.6,0,3.6l6.9,4h12.2l-12.4-7.3Z" transform="translate(-0.5 -0.5)"/><path class="cls-3" d="M437.9,380.7l-57,32.9L352.1,397l-5,2.9,31,17.9a5.94,5.94,0,0,0,5.5,0l62.5-36.1c1.6-.9,1.6-2.3,0-3.2l-4.5-2.6-3.8,2.2v2.6Z" transform="translate(-0.5 -0.5)"/><path class="cls-4" d="M437.9,380.7l-57,32.9L352.1,397l-5,2.9,31,17.9a5.94,5.94,0,0,0,5.5,0l62.5-36.1c1.6-.9,1.6-2.3,0-3.2l-4.5-2.6-3.8,2.2v2.6Z" transform="translate(-0.5 -0.5)"/><path class="cls-3" d="M231.5,364.6l16.3-9.4c-2.9-5.4-7.5-10.3-13.6-14.6l-17.3,10C222.3,354.9,227.6,359.2,231.5,364.6Z" transform="translate(-0.5 -0.5)"/><path class="cls-4" d="M231.5,364.6l16.3-9.4c-2.9-5.4-7.5-10.3-13.6-14.6l-17.3,10C222.3,354.9,227.6,359.2,231.5,364.6Z" transform="translate(-0.5 -0.5)"/><path class="cls-3" d="M187.3,403.9c-9.7-1-24.3-10.5-30.3-14.6-5-3.5-8.2-6-8.2-6v-.2a40.42,40.42,0,0,0-8.3-4.2c-2.1-.8-4.6-1.9-7.3-3l-.1.1s-2.1-.9-5-2.2c-.1,0-.1-.1-.2-.1-3.9-1.7-9.1-4.1-12.2-5.7a21,21,0,0,0-2.6-1.3c-.8-.4-1.6-.8-2.4-1.3-3.1-1.7-3.4-2.8-3.4-3.1h0a2.76,2.76,0,0,1,.4-2.5.1.1,0,0,1,.1-.1,19.42,19.42,0,0,1,6.6-4.7,14.51,14.51,0,0,1,7.1-1.3c4.6.3,8.7,3.7,13.3,4a10.21,10.21,0,0,0,3-.3,40.17,40.17,0,0,1-2.1-11.5c-.2-4.2-.2-8.3-.2-12.5l-.3-.3v-.6c-19.6,7.7-32.4,20.7-32.4,35.4,0,23.6,33.2,42.8,74.2,42.8a121,121,0,0,0,32.8-4.4v-1.5l-4-2.3-1.6.3C201.1,403.7,195.8,404.8,187.3,403.9Z" transform="translate(-0.5 -0.5)"/><path class="cls-4" d="M187.3,403.9c-9.7-1-24.3-10.5-30.3-14.6-5-3.5-8.2-6-8.2-6v-.2a40.42,40.42,0,0,0-8.3-4.2c-2.1-.8-4.6-1.9-7.3-3l-.1.1s-2.1-.9-5-2.2c-.1,0-.1-.1-.2-.1-3.9-1.7-9.1-4.1-12.2-5.7a21,21,0,0,0-2.6-1.3c-.8-.4-1.6-.8-2.4-1.3-3.1-1.7-3.4-2.8-3.4-3.1h0a2.76,2.76,0,0,1,.4-2.5.1.1,0,0,1,.1-.1,19.42,19.42,0,0,1,6.6-4.7,14.51,14.51,0,0,1,7.1-1.3c4.6.3,8.7,3.7,13.3,4a10.21,10.21,0,0,0,3-.3,40.17,40.17,0,0,1-2.1-11.5c-.2-4.2-.2-8.3-.2-12.5l-.3-.3v-.6c-19.6,7.7-32.4,20.7-32.4,35.4,0,23.6,33.2,42.8,74.2,42.8a121,121,0,0,0,32.8-4.4v-1.5l-4-2.3-1.6.3C201.1,403.7,195.8,404.8,187.3,403.9Z" transform="translate(-0.5 -0.5)"/><path class="cls-3" d="M417.9,309.5l17.3,10-.1-16.4a55.54,55.54,0,0,0-17.6,3.2,10.79,10.79,0,0,1,.3,1.9A5.7,5.7,0,0,1,417.9,309.5Z" transform="translate(-0.5 -0.5)"/><path class="cls-4" d="M417.9,309.5l17.3,10-.1-16.4a55.54,55.54,0,0,0-17.6,3.2,10.79,10.79,0,0,1,.3,1.9A5.7,5.7,0,0,1,417.9,309.5Z" transform="translate(-0.5 -0.5)"/><path class="cls-3" d="M465.7,323.9a2.12,2.12,0,0,1-1.9,0,.66.66,0,0,1-.4-.5L459.7,308a52.48,52.48,0,0,0-21.3-4.9l-.1,18.4,12.7,16-10.3,6c7.7-.5,15.2-2.4,21.1-5.8,13.3-7.6,13.7-19.8,1.5-27.8l3,13.5A2.65,2.65,0,0,1,465.7,323.9Z" transform="translate(-0.5 -0.5)"/><path class="cls-4" d="M465.7,323.9a2.12,2.12,0,0,1-1.9,0,.66.66,0,0,1-.4-.5L459.7,308a52.48,52.48,0,0,0-21.3-4.9l-.1,18.4,12.7,16-10.3,6c7.7-.5,15.2-2.4,21.1-5.8,13.3-7.6,13.7-19.8,1.5-27.8l3,13.5A2.65,2.65,0,0,1,465.7,323.9Z" transform="translate(-0.5 -0.5)"/><path class="cls-5" d="M419.9,280.6l1.1-4.8,1.3-5.4a33.82,33.82,0,0,1-3.4-1.1l-1.1,5-.6,2.6A7.05,7.05,0,0,1,419.9,280.6Z" transform="translate(-0.5 -0.5)"/><path class="cls-5" d="M457,296.9l2.7,11,3.7,15.4a.46.46,0,0,0,.4.5,2.12,2.12,0,0,0,1.9,0,.66.66,0,0,0,.4-.5l-3-13.5-2.2-9.9-6.8-30.4a33.74,33.74,0,0,1-3.4,1Z" transform="translate(-0.5 -0.5)"/><path class="cls-5" d="M435.1,303.1l.1,16.4,2.6,1.5.3.4.1-18.4.1-18.4.1-12.4h-3.6l.1,10.5Z" transform="translate(-0.5 -0.5)"/><path class="cls-6" d="M461.4,236.8c1.1.7,2,1.3,2.9,2A16.39,16.39,0,0,0,461.4,236.8Z" transform="translate(-0.5 -0.5)"/><path class="cls-6" d="M434.9,272.3h3.6a53.51,53.51,0,0,0,12.1-1.7,33.74,33.74,0,0,0,3.4-1,37.89,37.89,0,0,0,6.8-3c6.5-3.8,9.9-8.7,10-13.7l-.1-2.1c-.3,4.8-3.6,9.6-9.9,13.2-13.3,7.6-34.8,7.7-48,0-6.1-3.6-9.4-8.1-9.9-12.8v1.6c.1,4.9,3.4,9.9,10,13.7a38.93,38.93,0,0,0,6.2,2.8c1.1.4,2.2.7,3.4,1.1A55.37,55.37,0,0,0,434.9,272.3Z" transform="translate(-0.5 -0.5)"/><path class="cls-6" d="M412.8,264.1c13.3,7.7,34.8,7.6,48,0,6.4-3.7,9.7-8.4,9.9-13.2.2-4.2-1.9-8.5-6.3-12.1a29.77,29.77,0,0,0-2.9-2,4.35,4.35,0,0,0-.7-.4,43.6,43.6,0,0,0-16.1-5.2c-.1.1-.1.3-.2.4a6.42,6.42,0,0,1,1.3,1h0a4.18,4.18,0,0,1,1.1,1.5c.1.2.2.5.3.7.9,2.8.2,7-1.3,10.3,2.4,2.4,1.8,5.5-1.7,7.5a17.16,17.16,0,0,1-15.3,0c-3.7-2.1-4.2-5.3-1.5-7.8-1.9-4.3-2.4-10,.2-12.3h.1a3.92,3.92,0,0,1,1-.8v-.1c-.1-.2-.1-.3-.2-.4a42.81,42.81,0,0,0-15.6,5.1c-7.1,4.1-10.4,9.6-9.9,15C403.3,256,406.6,260.5,412.8,264.1Z" transform="translate(-0.5 -0.5)"/><path class="cls-7" d="M412.8,264.1c13.3,7.7,34.8,7.6,48,0,6.4-3.7,9.7-8.4,9.9-13.2.2-4.2-1.9-8.5-6.3-12.1a29.77,29.77,0,0,0-2.9-2,4.35,4.35,0,0,0-.7-.4,43.6,43.6,0,0,0-16.1-5.2c-.1.1-.1.3-.2.4a6.42,6.42,0,0,1,1.3,1h0a4.18,4.18,0,0,1,1.1,1.5c.1.2.2.5.3.7.9,2.8.2,7-1.3,10.3,2.4,2.4,1.8,5.5-1.7,7.5a17.16,17.16,0,0,1-15.3,0c-3.7-2.1-4.2-5.3-1.5-7.8-1.9-4.3-2.4-10,.2-12.3h.1a3.92,3.92,0,0,1,1-.8v-.1c-.1-.2-.1-.3-.2-.4a42.81,42.81,0,0,0-15.6,5.1c-7.1,4.1-10.4,9.6-9.9,15C403.3,256,406.6,260.5,412.8,264.1Z" transform="translate(-0.5 -0.5)"/><path d="M443.4,248.7h0l-.4.3a.1.1,0,0,0-.1.1h0l-.3.2a1.38,1.38,0,0,0-.4.3,12.29,12.29,0,0,1-10.9,0,1.38,1.38,0,0,1-.4-.3l-.3-.2-.1-.1-.3-.3-.4-.2h0a14.57,14.57,0,0,1-2.5-3.9c-2.6,2.4-2.1,5.7,1.5,7.8a17.16,17.16,0,0,0,15.3,0c3.5-2,4.1-5.1,1.7-7.5a10.32,10.32,0,0,1-2.4,3.8Z" transform="translate(-0.5 -0.5)"/><path class="cls-8" d="M446.9,234a4.18,4.18,0,0,0-1.1-1.5h0A14.31,14.31,0,0,1,446.9,234Z" transform="translate(-0.5 -0.5)"/><path class="cls-8" d="M444.2,240.2a16.73,16.73,0,0,1-15.1,0c-3.6-2.1-4.1-5.2-1.5-7.6h-.1c-2.6,2.2-2.1,7.9-.2,12.3a13.77,13.77,0,0,0,2.5,3.9h0l.4.2.3.3.1.1.3.2a.54.54,0,0,0,.4.3,12.29,12.29,0,0,0,10.9,0,.54.54,0,0,1,.4-.3l.3-.2h0a.1.1,0,0,1,.1-.1l.3-.3.1-.1.1-.1a11.73,11.73,0,0,0,2.3-3.6c1.5-3.3,2.2-7.5,1.3-10.3C447.8,236.6,446.8,238.7,444.2,240.2Z" transform="translate(-0.5 -0.5)"/><path class="cls-9" d="M442.8,234.4a2.27,2.27,0,0,1,0,2.5h0a4,4,0,0,1-1.5,1.4h0a10.17,10.17,0,0,1-9.2,0h0a4.23,4.23,0,0,1-.7-.5l-.3-.3-.3-.3-.3-.3h0a2.37,2.37,0,0,1-.1-2.3,17.48,17.48,0,0,1-1.8-2.9,8.74,8.74,0,0,0-1,.8c-2.5,2.4-2,5.5,1.5,7.6a16.73,16.73,0,0,0,15.1,0c2.6-1.5,3.5-3.5,2.9-5.5-.1-.2-.2-.5-.3-.7a14.31,14.31,0,0,0-1.1-1.5,14.7,14.7,0,0,0-1.3-1,4.67,4.67,0,0,1-.5,1A9.46,9.46,0,0,1,442.8,234.4Z" transform="translate(-0.5 -0.5)"/><path class="cls-8" d="M442.8,236.9a2.27,2.27,0,0,0,0-2.5,7.55,7.55,0,0,1-1.1,1.4A11.41,11.41,0,0,1,442.8,236.9Z" transform="translate(-0.5 -0.5)"/><path class="cls-8" d="M432.1,238.3a3,3,0,0,1-.7-.5A1.79,1.79,0,0,0,432.1,238.3Z" transform="translate(-0.5 -0.5)"/><path class="cls-8" d="M430.6,236.9a9.43,9.43,0,0,1,1-1,12.67,12.67,0,0,1-1.1-1.3A2.12,2.12,0,0,0,430.6,236.9Z" transform="translate(-0.5 -0.5)"/><path class="cls-8" d="M436.7,239.5a10.39,10.39,0,0,0,4.6-1.1h0A10.72,10.72,0,0,1,436.7,239.5Z" transform="translate(-0.5 -0.5)"/><path class="cls-8" d="M431.1,237.6l-.3-.3Z" transform="translate(-0.5 -0.5)"/><path class="cls-10" d="M430.6,236.9h0c0,.2.2.2.2.4l.3.3.3.3a1.79,1.79,0,0,0,.7.5h0a10.39,10.39,0,0,0,4.6,1.1,10.72,10.72,0,0,0,4.6-1.1h0a3.39,3.39,0,0,0,1.5-1.4h0a5.73,5.73,0,0,0-1.1-1.1c-.3.4-.7.7-1,1.1-5,2-8.1,0-8,.1l-1.1-1.1A2.84,2.84,0,0,0,430.6,236.9Z" transform="translate(-0.5 -0.5)"/><path class="cls-6" d="M428.6,231.7h0a20.76,20.76,0,0,0,1.9,2.9,15,15,0,0,0,1.1,1.3,5.73,5.73,0,0,0,1.1,1.1c-.1-.1,2.9,1.9,8-.1a10,10,0,0,0,1-1.1l1.1-1.4c.4-.6.8-1.2,1.2-1.9a9.29,9.29,0,0,0,.5-1c.1-.1.1-.3.2-.4.9-2.4,1-5,.4-5.4-.8-.4-4,3.2-4,3.2a17.82,17.82,0,0,0,.3-4.6c-.2-2.4-.7-4.6-1.4-5s-2.3,2.6-2.9,4.9a37.85,37.85,0,0,0-1,4,47,47,0,0,0-1.2-5.1c-.8-2.3-1.6-2.8-2.1-2.6s-1,1.3-1.1,4.3a20.67,20.67,0,0,0,.2,4.3s-1.1-1.2-2.4-2.4-2-1.6-2.3-1.3-.5,2.2,1.4,5.8A.45.45,0,0,0,428.6,231.7Z" transform="translate(-0.5 -0.5)"/><path class="cls-11" d="M428.6,231.7h0a20.76,20.76,0,0,0,1.9,2.9,15,15,0,0,0,1.1,1.3,5.73,5.73,0,0,0,1.1,1.1c-.1-.1,2.9,1.9,8-.1a10,10,0,0,0,1-1.1l1.1-1.4c.4-.6.8-1.2,1.2-1.9a9.29,9.29,0,0,0,.5-1c.1-.1.1-.3.2-.4.9-2.4,1-5,.4-5.4-.8-.4-4,3.2-4,3.2a17.82,17.82,0,0,0,.3-4.6c-.2-2.4-.7-4.6-1.4-5s-2.3,2.6-2.9,4.9a37.85,37.85,0,0,0-1,4,47,47,0,0,0-1.2-5.1c-.8-2.3-1.6-2.8-2.1-2.6s-1,1.3-1.1,4.3a20.67,20.67,0,0,0,.2,4.3s-1.1-1.2-2.4-2.4-2-1.6-2.3-1.3-.5,2.2,1.4,5.8A.45.45,0,0,0,428.6,231.7Z" transform="translate(-0.5 -0.5)"/><path class="cls-12" d="M249.3,244.8a9.89,9.89,0,0,0,2.9,2.5,7.71,7.71,0,0,0,2.6.7,15.8,15.8,0,0,1,2.1-5.2A60.42,60.42,0,0,1,249.3,244.8Z" transform="translate(-0.5 -0.5)"/><path class="cls-12" d="M283.3,230.5Z" transform="translate(-0.5 -0.5)"/><path class="cls-12" d="M287.5,227.5v-.3c-.1.1-.2.3-.3.4A.37.37,0,0,1,287.5,227.5Z" transform="translate(-0.5 -0.5)"/><path class="cls-13" d="M290.1,204.1c1.7-3.4,4.1-4.7,6.5-5.8.2-.1.4-.1.6-.2-6,.2-8,3.4-8.9,6.2C288.9,204.3,289.5,204.1,290.1,204.1Z" transform="translate(-0.5 -0.5)"/><path class="cls-12" d="M297.8,270.8a26.44,26.44,0,0,1-8.1-1.8,44.9,44.9,0,0,1-1.1,9,1.38,1.38,0,0,0-.3.4,7.29,7.29,0,0,1-.9,1.1c.2,2,.4,4.3.8,7.8.8,7.3,1.8,14.5,1.9,15.4.3,2.6,1.1,5.7.3,8.2,1.2-1.2,4.7-1.4,7.1.4,1.2.9,1,2,2.7,1.5,1.4-.5,1.3-2.4,1.3-2.4v-.9h0v-.3c.1-1.6.3-3.1.5-4.7,1-7.1,1.6-10.5,1.9-13.3a42.62,42.62,0,0,0-.3-10.7s1.5-4.6,2.9-9.5A43,43,0,0,1,297.8,270.8Z" transform="translate(-0.5 -0.5)"/><path class="cls-14" d="M296.8,322.2c-.9.8-2.9,3.6-5.3,5a3.55,3.55,0,0,1-.9.4h0c-2.9,1.8-7.1,1.8-9.4,1.5-2.1-.4-3.8-1.2-4.4-2.7a2.83,2.83,0,0,0,.4,1.8c.5.7,2.6,2.4,8,2.2,5.1-.2,8.1-2.5,9.2-3.8.9-1.2,2-2.4,3-3.6a8.18,8.18,0,0,1,3.6-1.8c1-.3,2.1-.9,2-2.3h0c-.1.2-.1.3-.2.5C301.8,320.3,298.4,320.8,296.8,322.2Z" transform="translate(-0.5 -0.5)"/><path class="cls-5" d="M301.6,310.4s.1,1.9-1.3,2.4c-1.6.5-1.5-.6-2.7-1.5-2.4-1.8-5.9-1.6-7.1-.4a.85.85,0,0,0-.3.5c-1,2.3-4.7,6.3-6,7.5a32.53,32.53,0,0,1-2.9,2.3h0a7,7,0,0,1,3.5.2c3.6,1,5.8,3.6,5.9,6.4.3-.1.6-.3.9-.4,2.3-1.5,4.4-4.2,5.3-5,1.6-1.5,5-2,5.8-2.8.1-.2.1-.3.2-.5a5.83,5.83,0,0,0,.4-3.9c-.3-1.6-.8-3.2-.9-4.1s-.2-1.5-.8-1.6h0v.9Z" transform="translate(-0.5 -0.5)"/><path class="cls-15" d="M281.2,329.2c2.3.3,6.5.3,9.4-1.5h0c-.1-2.8-2.3-5.4-5.9-6.4a6.89,6.89,0,0,0-3.5-.2h0a1.61,1.61,0,0,0-.9.3c-1.3.9-4.2,2.3-3.8,4.2a2.61,2.61,0,0,0,.3.8C277.4,327.9,279,328.8,281.2,329.2Z" transform="translate(-0.5 -0.5)"/><path class="cls-12" d="M343.4,309.2l-.2-.2a12.47,12.47,0,0,1-1.5-2.8A51.41,51.41,0,0,1,340,301c-2.2-6.9-3.5-11.2-4.7-13.8a36.28,36.28,0,0,0-6.4-10s-.2-4.1-.4-8.8c-1.3,1-3.8,2.2-8.2,3-6,1-9.5.4-10.6.1.2.8.4,1.5.6,2.3,1.7,7.1,2.3,8.4,7.5,15.9,4.3,6.1,6.4,9.1,11.1,16.5,1.9,3,4.1,5.6,4.8,9l10-5.8C343.5,309.4,343.5,309.3,343.4,309.2Z" transform="translate(-0.5 -0.5)"/><path class="cls-5" d="M344.1,309.2c-.4-.3-.6-.4-.8-.2a.31.31,0,0,0,.1.2c.1.1.1.2.2.3Z" transform="translate(-0.5 -0.5)"/><path class="cls-5" d="M302.8,250.5c-3.1,3.1-7.6,2.2-8.2.8a21.48,21.48,0,0,0-1.4-2.6c-.5-.2-1-.3-1.4-.5a10.93,10.93,0,0,1-1.7.5h0c0,1.2-.1,2.3-.2,3.5-.1.4-.1.7-.2,1.1a116.18,116.18,0,0,1,.2,15.7,21.58,21.58,0,0,0,8.1,1.8c5.5.4,7.9.3,8.8.1a2,2,0,0,0,.5-.1l-.2-3.1-2.7-8.8c-5.4-.6-7.1-3.8-7.1-3.8a18.89,18.89,0,0,0,8.1,1.9l2.8,10.7-.9,3.1h.1l1-3.1,1,3.7a1.21,1.21,0,0,0,.5.1c1.2.3,4.6.9,10.6-.1,4.5-.8,6.9-2,8.2-3a4.68,4.68,0,0,0,1.5-1.6s-.1-7.8-.5-14.2c-.1-1.4-.2-2.8-.3-4a23.69,23.69,0,0,0-.8-4.2C324.6,248.3,313.4,251.2,302.8,250.5Z" transform="translate(-0.5 -0.5)"/><path class="cls-14" d="M305.4,257.2a18.89,18.89,0,0,1-8.1-1.9s1.7,3.2,7.1,3.8l2.7,8.8.2,3.1v0l.9-3.1Z" transform="translate(-0.5 -0.5)"/><path class="cls-16" d="M316.5,238.1c-3.4,1.6-5.2,1.8-11.6,4.3-.4.2-.8.3-1.3.5h0s3.3,3.2-.8,7.5l-.1.1c10.6.7,21.7-2.2,25.6-5.9l.3-.3L327,232.2s-.1-3.3-.3-7.2c-.6,1.8-1.4,3.7-2.2,5.8C323,235.1,321.9,235.7,316.5,238.1Z" transform="translate(-0.5 -0.5)"/><path class="cls-16" d="M290.1,204.1a5.66,5.66,0,0,1,1.8.3c5.3,1.8,5.4,10.3-1.8,11a6.75,6.75,0,0,1,.2,1.4,13.51,13.51,0,0,1-2.9,10.3v.3a5.7,5.7,0,0,1,1.3-.1c1.3.4,1.9,3.9,1.3,5.8a28,28,0,0,1,5.2,2.6l.1.1a4.42,4.42,0,0,0,1.6-.6l15.2-8.1,1.7-6.4c-.1-.1-.2-.1-.3-.2l2.9-11.9c.6-1.4,2.9-7.4,6.2-9.3h.2a5,5,0,0,0-1.3-.4l-7.4-1.7h-.5v.9a20.43,20.43,0,0,1-8.2,5c-6.5,2-8-1.6-5.2-4.4v-1.2a15.94,15.94,0,0,0-3,.6c-.2.1-.4.1-.6.2C294.2,199.4,291.8,200.7,290.1,204.1Z" transform="translate(-0.5 -0.5)"/><path class="cls-16" d="M291.7,248.2a7.84,7.84,0,0,0,1.4.5l-.6-.9A5.94,5.94,0,0,1,291.7,248.2Z" transform="translate(-0.5 -0.5)"/><path class="cls-6" d="M289.3,156.5c-.8.9-.9,4.9.8,6.1a15.13,15.13,0,0,1,4.4-3.5,19.87,19.87,0,0,1,7.1-2.4c-.2-1.3-.8-2.5-1.9-2.7-2.1-.3-4.5,3.5-4.5,3.5s-.8-.3-1.8-.7C291.9,156.3,290,155.9,289.3,156.5Z" transform="translate(-0.5 -0.5)"/><path class="cls-14" d="M289.3,173.1c6-1.6,10.4,1.3,17.2.9,0,0,.7-3.8,2.5-5.2a9.3,9.3,0,0,0,.9,5.2,9.68,9.68,0,0,0,3.6,3.9,5.33,5.33,0,0,0,.1,2.8c.1.3.2.5.3.8l.2.2c1,.6,1-1,1.8-2.3a2.72,2.72,0,0,1,2.1-.9,3,3,0,0,1,3,1.8,4.79,4.79,0,0,1-2.6,6.2.1.1,0,0,0-.1.1h0a3.89,3.89,0,0,1-4.2-.8l-.4,7.9h.1c3.4-3.6,7.9-6.2,9.8-12.6a16.78,16.78,0,0,0,.1-10.4,2.24,2.24,0,0,1-1,.3c-1.6-.3-2.7-5.4-2.7-5.4s-4.5.3-5.4-1.7c-.5-.9.6-2.5,1.9-3.5a13.25,13.25,0,0,0-4.1-2.7,21.14,21.14,0,0,0-11-1,19.87,19.87,0,0,0-7.1,2.4,15.13,15.13,0,0,0-4.4,3.5c-1.7-1.1-1.7-5.2-.8-6.1.6-.7,2.6-.2,4.1.3a14.37,14.37,0,0,0-7.4-3.1,6.05,6.05,0,0,0-1.9,0,2.09,2.09,0,0,0-1.5,1.1,1.66,1.66,0,0,0,.2,1.9,5.26,5.26,0,0,0,1.4,1.2,7.91,7.91,0,0,0-2.9,1.1,4.89,4.89,0,0,0-1.6,1.6c-.4.7-.6,2.5.8,2.3a8.17,8.17,0,0,1,2.7-.1,7.36,7.36,0,0,0-1.9,2.7,2.5,2.5,0,0,0,.3,2.5c.8.9,2.5-.1,3.7-.5a15.46,15.46,0,0,1,2.3-.7,15.25,15.25,0,0,0-.5,8.2,10.3,10.3,0,0,0,1.9,3.4c-.1-1.2-.1-2.3-.1-3A15.45,15.45,0,0,0,289.3,173.1Z" transform="translate(-0.5 -0.5)"/><path class="cls-12" d="M305.5,203.2a21.61,21.61,0,0,0,8.2-5v-.9l.2-3.8.4-7.9a3.82,3.82,0,0,0,4.2.8h0a.1.1,0,0,1,.1-.1,4.75,4.75,0,0,0,2.6-6.2,3,3,0,0,0-3-1.8,2.43,2.43,0,0,0-2.1.9c-.9,1.2-.9,2.9-1.8,2.3l-.2-.2a1.14,1.14,0,0,1-.3-.8,6.62,6.62,0,0,1-.1-2.8,9,9,0,0,1-3.6-3.9,9.3,9.3,0,0,1-.9-5.2c-1.8,1.4-2.5,5.2-2.5,5.2-6.8.4-11.3-2.5-17.2-.9a10.68,10.68,0,0,0-.3,2.5c0,.6.1,1.8.1,3v1.8a2.46,2.46,0,0,1,1.2.1c1.6.3,2.6,1.4,2.3,2.7a2.75,2.75,0,0,1-3.3,1.7c-.2,0-.4-.1-.6-.1a11.84,11.84,0,0,0,.2,2.6,9.6,9.6,0,0,0,6.2,7.4,13.75,13.75,0,0,0,4.9.6l.1,2.4v1.2C297.5,201.6,299,205.2,305.5,203.2ZM307,181a2.6,2.6,0,0,1,3,2,2.65,2.65,0,0,1-2.6,2.6,2.52,2.52,0,0,1-3-2A2.72,2.72,0,0,1,307,181Zm-3.9-1.7a1.51,1.51,0,1,1,1.3,1.7,1.46,1.46,0,0,1-1.3-1.6Zm-12.4-.6a1.37,1.37,0,0,1,1.5-1.3,1.52,1.52,0,0,1,1.4,1.5,1.43,1.43,0,0,1-1.4,1.4,1.56,1.56,0,0,1-1.5-1.6Zm3.3,4.9,4.2-4-.3,5.6Zm4.2,4.4,5.5-1.7a3.66,3.66,0,0,1,0,1.8h0a3.15,3.15,0,0,1-1.9,2,2.21,2.21,0,0,1-1.6,0h0A3,3,0,0,1,298.2,188Zm11.2,4.3a10.27,10.27,0,0,0,3.3-4.4s-.6,3.6-2,5.2c-3.6,4.2-10.4,4-10.4,4l-.1-1.8A16.81,16.81,0,0,0,309.4,192.3Z" transform="translate(-0.5 -0.5)"/><path class="cls-17" d="M310.7,193.1c1.4-1.6,2-5.2,2-5.2a9.71,9.71,0,0,1-3.3,4.4,15.94,15.94,0,0,1-9.2,2.9l.1,1.8C300.3,197.1,307,197.3,310.7,193.1Z" transform="translate(-0.5 -0.5)"/><path class="cls-18" d="M304.4,181.1a1.51,1.51,0,1,0-1.3-1.7v.2A1.42,1.42,0,0,0,304.4,181.1Z" transform="translate(-0.5 -0.5)"/><path class="cls-19" d="M302.5,187.7a2.66,2.66,0,0,1,1.2.3,2.78,2.78,0,0,0,0-1.8l-5.5,1.7a3.07,3.07,0,0,0,2,2A2.24,2.24,0,0,1,302.5,187.7Z" transform="translate(-0.5 -0.5)"/><path class="cls-17" d="M300.2,190h0a2.92,2.92,0,0,0,1.6.1,3.15,3.15,0,0,0,1.9-2h0a2.66,2.66,0,0,0-1.2-.3A2.13,2.13,0,0,0,300.2,190Z" transform="translate(-0.5 -0.5)"/><path class="cls-18" d="M292.1,180.2a1.37,1.37,0,0,0,1.4-1.4,1.52,1.52,0,0,0-1.4-1.5,1.43,1.43,0,0,0-1.5,1.3v.1A1.54,1.54,0,0,0,292.1,180.2Z" transform="translate(-0.5 -0.5)"/><polygon class="cls-17" points="297.8 179.1 293.5 183.1 297.5 184.7 297.8 179.1"/><path class="cls-12" d="M304.4,183.6a2.52,2.52,0,0,0,3,2,2.35,2.35,0,1,0-.4-4.6A2.72,2.72,0,0,0,304.4,183.6Z" transform="translate(-0.5 -0.5)"/><path class="cls-20" d="M304.4,183.6a2.52,2.52,0,0,0,3,2,2.35,2.35,0,1,0-.4-4.6A2.72,2.72,0,0,0,304.4,183.6Z" transform="translate(-0.5 -0.5)"/><path class="cls-20" d="M287.1,182.1h0a2.43,2.43,0,0,0,1.7,2.6c.1-1.4.3-2.9.3-4.4A2.61,2.61,0,0,0,287.1,182.1Z" transform="translate(-0.5 -0.5)"/><path class="cls-12" d="M292.7,183.1c.3-1.3-.8-2.3-2.3-2.7a4.87,4.87,0,0,0-1.2-.1c0,1.5-.3,2.9-.3,4.4a1.27,1.27,0,0,0,.6.1A2.59,2.59,0,0,0,292.7,183.1Z" transform="translate(-0.5 -0.5)"/><path class="cls-20" d="M292.7,183.1c.3-1.3-.8-2.3-2.3-2.7a4.87,4.87,0,0,0-1.2-.1c0,1.5-.3,2.9-.3,4.4a1.27,1.27,0,0,0,.6.1A2.59,2.59,0,0,0,292.7,183.1Z" transform="translate(-0.5 -0.5)"/><path class="cls-14" d="M321,164.8s3.6-1.6,5.9.6c.9.9-.8,3.6-2.4,4.9a12.12,12.12,0,0,1,2.2,3.2c.6,1.1,1.2,3,2.4,2.9a3,3,0,0,0,2-1.6,6.18,6.18,0,0,0,.4-3.3,11.9,11.9,0,0,1,2,1.9c1,1,2-.4,2.2-1.2a5.86,5.86,0,0,0-.1-2.3,6.19,6.19,0,0,0-1.4-2.8,5.44,5.44,0,0,0,1.8,0,1.83,1.83,0,0,0,1.5-1.3,1.94,1.94,0,0,0-.3-1.8,4.36,4.36,0,0,0-1.4-1.3,14.81,14.81,0,0,0-8.1-2.7,12.09,12.09,0,0,0-7,1.6A18.28,18.28,0,0,1,321,164.8Z" transform="translate(-0.5 -0.5)"/><path class="cls-6" d="M314.9,163.8c.9,2.1,5.4,1.7,5.4,1.7s1.1,5.1,2.7,5.4a2.24,2.24,0,0,0,1-.3c.2-.1.3-.2.5-.3,1.6-1.3,3.3-4,2.4-4.9-2.3-2.3-5.9-.6-5.9-.6a21.47,21.47,0,0,0-.3-3.4c-.3-1.1-.7-2.1-1.6-2.2a3.45,3.45,0,0,0-2.3,1.1C315.5,161.3,314.4,162.9,314.9,163.8Z" transform="translate(-0.5 -0.5)"/><path class="cls-21" d="M260.7,238.6a15.72,15.72,0,0,1,3.5-7.1c-.4-.2-.8-.5-1.2-.7-1.5.4-3.1.8-4.9,1.2a32.31,32.31,0,0,1-11.6.6c-2-.1-4.8,3.1-3.8,7.5,1.3,5.7,5.8,4.8,5.8,4.8a2.35,2.35,0,0,0,.8-.2,51.59,51.59,0,0,0,7.7-2.1A17.44,17.44,0,0,1,260.7,238.6Z" transform="translate(-0.5 -0.5)"/><path class="cls-21" d="M256.3,258.3a46.08,46.08,0,0,1,1.5,5.3c.2,2.1.4,4.1.4,6.2h0a15.29,15.29,0,0,0-2.9.7A3,3,0,0,0,253,274c.5,1.6,2.3,2.9,6.6,3.2s6.4-1.1,7.3-2.3h0a46.58,46.58,0,0,0,3.4-9C265.9,265.7,259.4,264.3,256.3,258.3Zm1.9,10.3a4.94,4.94,0,0,1,4.2,1.9,6.85,6.85,0,0,0-4.2-.7Z" transform="translate(-0.5 -0.5)"/><path class="cls-21" d="M262.5,270.5a4.94,4.94,0,0,0-4.2-1.9v1.2A6.85,6.85,0,0,1,262.5,270.5Z" transform="translate(-0.5 -0.5)"/><path class="cls-22" d="M262.5,270.5a4.94,4.94,0,0,0-4.2-1.9v1.2A6.85,6.85,0,0,1,262.5,270.5Z" transform="translate(-0.5 -0.5)"/><path class="cls-3" d="M278.5,274c0,.1-.1.1,0,0l.3,1.1h.1A3.58,3.58,0,0,1,278.5,274Z" transform="translate(-0.5 -0.5)"/><path class="cls-22" d="M278.5,274c0,.1-.1.1,0,0l.3,1.1h.1A3.58,3.58,0,0,1,278.5,274Z" transform="translate(-0.5 -0.5)"/><path class="cls-21" d="M279.3,274.9l.3.1a8.81,8.81,0,0,1,5.1,1.5s-1.7-2.9-6.2-2.5c.1.4.2.7.3,1.1C279,275.1,279.1,275,279.3,274.9Z" transform="translate(-0.5 -0.5)"/><path class="cls-22" d="M279.3,274.9l.3.1a8.81,8.81,0,0,1,5.1,1.5s-1.7-2.9-6.2-2.5c.1.4.2.7.3,1.1C279,275.1,279.1,275,279.3,274.9Z" transform="translate(-0.5 -0.5)"/><path class="cls-19" d="M285.4,261.3a20,20,0,0,1-1.6,1.4C284.3,262.2,284.9,261.8,285.4,261.3Z" transform="translate(-0.5 -0.5)"/><path class="cls-19" d="M255.3,255.9a17.08,17.08,0,0,0,.7,1.8c3.5,5.4,14.5,7.1,20.8,4.2,5.7-2.6,8.5-8.1,8.1-12.5a8.36,8.36,0,0,1-7.6-4.8,2.26,2.26,0,0,1,.2-2.8,3.32,3.32,0,0,1,1.6-.5c.7-.1,1.4-.1,2-.2a10.62,10.62,0,0,1-1.1-2.5s-3.4,2.9-6.4,2.1c-2.4-.7-3.2-5.5-3.2-5.5s-4.7.5-7.3-2.1a14.31,14.31,0,0,1,1.1-1.5h-.1a15.72,15.72,0,0,0-3.5,7.1,16.43,16.43,0,0,0-3.8,4.1,16.73,16.73,0,0,0-2.1,5.2,17.86,17.86,0,0,0-.1,6.1v.2C254.9,254.9,255.1,255.4,255.3,255.9Zm18.1,3.6c-8.1,3.8-17.3-.9-17.3-7.7s5.5-12,12.8-10.7C277.5,242.8,281.5,255.7,273.4,259.5Z" transform="translate(-0.5 -0.5)"/><path class="cls-19" d="M290,248.7Z" transform="translate(-0.5 -0.5)"/><path class="cls-3" d="M271.7,265.9h0a5.28,5.28,0,0,1-1.3-.1v.1a2.82,2.82,0,0,0,1.3,0,6.69,6.69,0,0,0,2,0l-.1-.1A12.75,12.75,0,0,1,271.7,265.9Z" transform="translate(-0.5 -0.5)"/><path class="cls-23" d="M271.7,265.9h0a5.28,5.28,0,0,1-1.3-.1v.1a2.82,2.82,0,0,0,1.3,0,6.69,6.69,0,0,0,2,0l-.1-.1A12.75,12.75,0,0,1,271.7,265.9Z" transform="translate(-0.5 -0.5)"/><path class="cls-3" d="M256,257.8c0-.1-.1-.1-.1-.2.1.3.3.5.4.8,0-.1-.1-.2-.1-.3S256.1,257.9,256,257.8Z" transform="translate(-0.5 -0.5)"/><path class="cls-23" d="M256,257.8c0-.1-.1-.1-.1-.2.1.3.3.5.4.8,0-.1-.1-.2-.1-.3S256.1,257.9,256,257.8Z" transform="translate(-0.5 -0.5)"/><path class="cls-5" d="M289.8,252.1c-.1.4-.1.8-.2,1.1v.1a6,6,0,0,1,.2-1.2,13,13,0,0,0,.2-3.4A19.4,19.4,0,0,1,289.8,252.1Z" transform="translate(-0.5 -0.5)"/><path class="cls-23" d="M289.8,252.1c-.1.4-.1.8-.2,1.1v.1a6,6,0,0,1,.2-1.2,13,13,0,0,0,.2-3.4A19.4,19.4,0,0,1,289.8,252.1Z" transform="translate(-0.5 -0.5)"/><path class="cls-21" d="M256.2,258.1c0,.1.1.2.1.3,3.1,5.9,9.6,7.3,14,7.6v-.1C265.8,265.6,259.3,264.2,256.2,258.1Z" transform="translate(-0.5 -0.5)"/><path class="cls-23" d="M256.2,258.1c0,.1.1.2.1.3,3.1,5.9,9.6,7.3,14,7.6v-.1C265.8,265.6,259.3,264.2,256.2,258.1Z" transform="translate(-0.5 -0.5)"/><path class="cls-21" d="M283.8,262.7a17.54,17.54,0,0,1-5.4,2.5,25.42,25.42,0,0,1-4.7.7l.1.1a24.39,24.39,0,0,0,4.6-.7A24.13,24.13,0,0,0,283.8,262.7Z" transform="translate(-0.5 -0.5)"/><path class="cls-23" d="M283.8,262.7a17.54,17.54,0,0,1-5.4,2.5,25.42,25.42,0,0,1-4.7.7l.1.1a24.39,24.39,0,0,0,4.6-.7A24.13,24.13,0,0,0,283.8,262.7Z" transform="translate(-0.5 -0.5)"/><path class="cls-21" d="M286.8,259.5a22,22,0,0,1-1.4,1.8,16.08,16.08,0,0,0,4.2-8v-.1A17.44,17.44,0,0,1,286.8,259.5Z" transform="translate(-0.5 -0.5)"/><path class="cls-23" d="M286.8,259.5a22,22,0,0,1-1.4,1.8,16.08,16.08,0,0,0,4.2-8v-.1A17.44,17.44,0,0,1,286.8,259.5Z" transform="translate(-0.5 -0.5)"/><path class="cls-19" d="M270.3,265.9a5.7,5.7,0,0,1,1.3.1h0a12.1,12.1,0,0,0,1.9-.1,24.22,24.22,0,0,0,4.7-.7,17.54,17.54,0,0,0,5.4-2.5,10.7,10.7,0,0,0,1.6-1.4,8.62,8.62,0,0,0,1.4-1.8,15.82,15.82,0,0,0,2.7-6.3,4.25,4.25,0,0,0,.2-1.1,13.22,13.22,0,0,0,.2-3.4h0a22.54,22.54,0,0,1-3.6.6c-.5.1-1,.1-1.5.2.4,4.4-2.4,9.9-8.1,12.5-6.3,2.9-17.2,1.2-20.8-4.2.1.1.1.2.2.3C259.3,264.2,265.8,265.6,270.3,265.9Z" transform="translate(-0.5 -0.5)"/><path class="cls-23" d="M270.3,265.9a5.7,5.7,0,0,1,1.3.1h0a12.1,12.1,0,0,0,1.9-.1,24.22,24.22,0,0,0,4.7-.7,17.54,17.54,0,0,0,5.4-2.5,10.7,10.7,0,0,0,1.6-1.4,8.62,8.62,0,0,0,1.4-1.8,15.82,15.82,0,0,0,2.7-6.3,4.25,4.25,0,0,0,.2-1.1,13.22,13.22,0,0,0,.2-3.4h0a22.54,22.54,0,0,1-3.6.6c-.5.1-1,.1-1.5.2.4,4.4-2.4,9.9-8.1,12.5-6.3,2.9-17.2,1.2-20.8-4.2.1.1.1.2.2.3C259.3,264.2,265.8,265.6,270.3,265.9Z" transform="translate(-0.5 -0.5)"/><path class="cls-19" d="M280.7,234.6c-1,1.4-3.3,2.9-5.1,2.3-.9-.3-1.8-2.5-2.1-4.4h-.1a12.61,12.61,0,0,1-5.8.1,12,12,0,0,1-3.5-1.1A8.28,8.28,0,0,0,263,233c2.6,2.6,7.3,2.1,7.3,2.1s.8,4.9,3.2,5.5c3,.9,6.4-2.1,6.4-2.1A10.62,10.62,0,0,0,281,241a17.12,17.12,0,0,0,4.6-1C283.3,237.9,281.2,236.1,280.7,234.6Z" transform="translate(-0.5 -0.5)"/><path class="cls-23" d="M280.7,234.6c-1,1.4-3.3,2.9-5.1,2.3-.9-.3-1.8-2.5-2.1-4.4h-.1a12.61,12.61,0,0,1-5.8.1,12,12,0,0,1-3.5-1.1A8.28,8.28,0,0,0,263,233c2.6,2.6,7.3,2.1,7.3,2.1s.8,4.9,3.2,5.5c3,.9,6.4-2.1,6.4-2.1A10.62,10.62,0,0,0,281,241a17.12,17.12,0,0,0,4.6-1C283.3,237.9,281.2,236.1,280.7,234.6Z" transform="translate(-0.5 -0.5)"/><path class="cls-19" d="M256.1,251.8c0,6.8,9.2,11.5,17.3,7.7s4.2-16.7-4.5-18.4C261.5,239.7,256.1,244.9,256.1,251.8Z" transform="translate(-0.5 -0.5)"/><path class="cls-20" d="M256.1,251.8c0,6.8,9.2,11.5,17.3,7.7s4.2-16.7-4.5-18.4C261.5,239.7,256.1,244.9,256.1,251.8Z" transform="translate(-0.5 -0.5)"/><path class="cls-21" d="M258.7,204.9a3.2,3.2,0,0,1,4.3-1.4c.3.2.5.4.8.6a5.15,5.15,0,0,1,.9,2,13.53,13.53,0,0,1,3.4-1.7c-.4-2.4-4.8-6.6-9.3-3-3.9,3.1-1.6,8.2,1.4,9.6a7.46,7.46,0,0,1,.7-1.2A3.39,3.39,0,0,1,258.7,204.9Z" transform="translate(-0.5 -0.5)"/><path class="cls-17" d="M263.1,203.5a3.17,3.17,0,0,0-4.3,1.4c-1.3,2.4.5,4.4,2.2,5,0-.1.1-.1.1-.2a11.29,11.29,0,0,1,3.7-3.5,7.22,7.22,0,0,0-.9-2A5,5,0,0,0,263.1,203.5Z" transform="translate(-0.5 -0.5)"/><path class="cls-19" d="M270.3,219.5c4.8,1.4,8.1,6.4,6.5,10.2a6.76,6.76,0,0,1,2.9,1.1,16.69,16.69,0,0,0,8.6-10.6,9.78,9.78,0,0,0,.1-4.8,3,3,0,0,1-.8-.4,7.64,7.64,0,0,1-.9-.9h-.1a7.89,7.89,0,0,1-1.7-3.1h0c-.1-.3-.2-.7-.3-1a2.87,2.87,0,0,1,.3-2.2,4.35,4.35,0,0,0,.4-.7,15.92,15.92,0,0,0-7.2-3.3,19.36,19.36,0,0,0-9.9.7,13.53,13.53,0,0,0-3.4,1.7,15.5,15.5,0,0,0-3.7,3.5c0,.1-.1.1-.1.2-.2.4-.5.8-.7,1.2a16.65,16.65,0,0,0-.9,13.3,1.42,1.42,0,0,1,.2.6,4.92,4.92,0,0,1,.4-2.1C261.5,219.1,264.7,217.8,270.3,219.5Zm5.8-2.6a1.45,1.45,0,0,1,1.5,1.4h0a1.5,1.5,0,1,1-1.5-1.4Zm-11.7-.7a1.4,1.4,0,1,1-1.4-1.4,1.51,1.51,0,0,1,1.4,1.4Z" transform="translate(-0.5 -0.5)"/><path class="cls-19" d="M273.6,232.6Z" transform="translate(-0.5 -0.5)"/><path class="cls-12" d="M283.3,230.5Z" transform="translate(-0.5 -0.5)"/><path class="cls-23" d="M283.3,230.5Z" transform="translate(-0.5 -0.5)"/><path class="cls-12" d="M287.1,227.6h0c.2-.1.3-.3.4-.4v-.1C287.4,227.3,287.2,227.4,287.1,227.6Z" transform="translate(-0.5 -0.5)"/><path class="cls-23" d="M287.1,227.6h0c.2-.1.3-.3.4-.4v-.1C287.4,227.3,287.2,227.4,287.1,227.6Z" transform="translate(-0.5 -0.5)"/><path class="cls-16" d="M287.5,227.1v.1a13.63,13.63,0,0,0,2.9-10.3,6.75,6.75,0,0,0-.2-1.4h-.1c.1.4.1.9.2,1.4A13.77,13.77,0,0,1,287.5,227.1Z" transform="translate(-0.5 -0.5)"/><path class="cls-23" d="M287.5,227.1v.1a13.63,13.63,0,0,0,2.9-10.3,6.75,6.75,0,0,0-.2-1.4h-.1c.1.4.1.9.2,1.4A13.77,13.77,0,0,1,287.5,227.1Z" transform="translate(-0.5 -0.5)"/><path class="cls-19" d="M283.2,230.5a.1.1,0,0,0,.1-.1,6,6,0,0,1,3.7-2.9c.1-.2.3-.3.4-.5a13.77,13.77,0,0,0,2.8-10.2,6.75,6.75,0,0,0-.2-1.4c-.2,0-.4.1-.7.1a4.25,4.25,0,0,1-1.1-.2,9.8,9.8,0,0,1-.1,4.8,16.85,16.85,0,0,1-8.6,10.6,5.55,5.55,0,0,1,.8.6A3,3,0,0,1,283.2,230.5Z" transform="translate(-0.5 -0.5)"/><path class="cls-23" d="M283.2,230.5a.1.1,0,0,0,.1-.1,6,6,0,0,1,3.7-2.9c.1-.2.3-.3.4-.5a13.77,13.77,0,0,0,2.8-10.2,6.75,6.75,0,0,0-.2-1.4c-.2,0-.4.1-.7.1a4.25,4.25,0,0,1-1.1-.2,9.8,9.8,0,0,1-.1,4.8,16.85,16.85,0,0,1-8.6,10.6,5.55,5.55,0,0,1,.8.6A3,3,0,0,1,283.2,230.5Z" transform="translate(-0.5 -0.5)"/><path class="cls-17" d="M264.3,231.6a11.08,11.08,0,0,0,3.5,1.1,14.14,14.14,0,0,0,5.8-.1h0a3.09,3.09,0,0,1,.4-2.3,3.52,3.52,0,0,1,2.8-.7c1.6-3.8-1.7-8.7-6.5-10.2-5.5-1.6-8.8-.3-10.2,3.4a5.22,5.22,0,0,0-.4,2.1,7.7,7.7,0,0,0,3.3,5.9,14.8,14.8,0,0,0,1.3.8Zm-.4-10.4c1.6-1.5,5.2-.1,5.5,1.1.4,1.4-1.6,3-3.3,2.9a5,5,0,0,0-.2,2.7,1.76,1.76,0,0,1-.5.4h0a.32.32,0,0,1-.3-.3,7.69,7.69,0,0,1,.3-3C264.1,224.5,262.5,222.4,263.9,221.2Z" transform="translate(-0.5 -0.5)"/><path class="cls-14" d="M265.3,225a7.69,7.69,0,0,0-.3,3,.32.32,0,0,0,.3.3h0a2.18,2.18,0,0,0,.5-.4,6.2,6.2,0,0,1,.2-2.7,6.37,6.37,0,0,0-.7-.2Z" transform="translate(-0.5 -0.5)"/><path class="cls-21" d="M265.3,225h0a2.35,2.35,0,0,0,.8.2c1.8.1,3.7-1.5,3.3-2.9-.3-1.2-4-2.6-5.5-1.1C262.5,222.4,264.1,224.5,265.3,225Z" transform="translate(-0.5 -0.5)"/><path class="cls-21" d="M284.6,209.8c.1.3.2.7.3,1,1.6-4.5,6-3.5,6.7-1.4s-.6,5.6-4.9,4.6l.9.9a2,2,0,0,0,.8.4,3.59,3.59,0,0,0,1.1.2,1.7,1.7,0,0,0,.7-.1h.1a5.65,5.65,0,1,0-1.8-11,6.62,6.62,0,0,0-3.1,2.5,2.51,2.51,0,0,0-.4.7A2.55,2.55,0,0,0,284.6,209.8Z" transform="translate(-0.5 -0.5)"/><path class="cls-17" d="M291.6,209.4c-.8-2.1-5.2-3.1-6.7,1.4h0a11.67,11.67,0,0,0,1.7,3.1h.1C291,215,292.4,211.4,291.6,209.4Z" transform="translate(-0.5 -0.5)"/><path class="cls-18" d="M263,214.9a1.4,1.4,0,1,0,1.4,1.4h0A1.36,1.36,0,0,0,263,214.9Z" transform="translate(-0.5 -0.5)"/><path class="cls-18" d="M276.1,219.9a1.54,1.54,0,0,0,1.5-1.5h0a1.39,1.39,0,0,0-1.5-1.4,1.45,1.45,0,1,0,0,2.9Z" transform="translate(-0.5 -0.5)"/><path class="cls-21" d="M288.4,278.4a1.38,1.38,0,0,0,.3-.4,44.9,44.9,0,0,0,1.1-9,101.83,101.83,0,0,0-.2-15.7,16.08,16.08,0,0,1-4.2,8,20,20,0,0,1-1.6,1.4,15.4,15.4,0,0,1-5.5,2.6,23.21,23.21,0,0,1-4.6.7,13.47,13.47,0,0,1,3.5,4.7,36.16,36.16,0,0,1,1.3,3.5c4.5-.4,6.2,2.5,6.2,2.5a9.08,9.08,0,0,0-5.1-1.5l-.3-.1a.76.76,0,0,1-.4.2h-.1c-.8.4-1.7.9-2.5,1.4h0a3,3,0,0,0-1.4,3.9c.9,1.5,2.9,2.3,7.1,1.6a10.44,10.44,0,0,0,5.5-2.5C287.9,279.1,288.2,278.7,288.4,278.4Z" transform="translate(-0.5 -0.5)"/><path class="cls-12" d="M313.9,220.8l-1.7,6.4L297,235.3a5.23,5.23,0,0,1-1.6.6,50.46,50.46,0,0,1,8.3,7c.4-.2.9-.3,1.3-.5,6.4-2.5,8.2-2.8,11.6-4.3,5.4-2.4,6.4-2.9,8.1-7.5.8-2.1,1.5-4,2.2-5.8.1-.4.3-.7.4-1.1C326.4,224.1,321.1,225.3,313.9,220.8Z" transform="translate(-0.5 -0.5)"/><path class="cls-12" d="M286.4,249.3a22.54,22.54,0,0,0,3.6-.6h0a8.45,8.45,0,0,0,1.7-.5l.9-.3a31.37,31.37,0,0,0-4.9-5.9c-.7-.6-1.3-1.2-1.9-1.8a17.12,17.12,0,0,1-4.6,1c-.7.1-1.4.1-2,.2a2.77,2.77,0,0,0-1.6.5,2.26,2.26,0,0,0-.2,2.8,8.19,8.19,0,0,0,7.6,4.8C285.4,249.4,285.9,249.4,286.4,249.3Z" transform="translate(-0.5 -0.5)"/><path class="cls-17" d="M316.5,208.7l-2.9,11.9c.1.1.2.1.3.2,7.2,4.5,12.5,3.3,13.4,3.1h.1a62.3,62.3,0,0,0,2.4-7.3c1.3-4.3,1.7-8.4,1-10.9-1.2-4.5-6.9-5.9-8-6.1h-.2C319.5,201.3,317.2,207.3,316.5,208.7Z" transform="translate(-0.5 -0.5)"/><path class="cls-21" d="M289.3,234.4c-1.3.6-3.8-.4-4.9-1a1.55,1.55,0,0,1-1.1.8,2.64,2.64,0,0,1-2.3-.1l-.3.6c.5,1.4,2.6,3.2,5.1,5.5.6.6,1.3,1.2,1.9,1.8a34.13,34.13,0,0,1,4.9,5.9l.6.9c.5.9,1,1.7,1.4,2.6.6,1.4,5.1,2.2,8.2-.8l.1-.1c4.1-4.2.8-7.5.8-7.5h0a46.64,46.64,0,0,0-8.3-7l-.1-.1a25.26,25.26,0,0,0-5.2-2.6A1.55,1.55,0,0,1,289.3,234.4Z" transform="translate(-0.5 -0.5)"/><path class="cls-6" d="M287.1,227.6a5.67,5.67,0,0,0-3.7,2.9v.1h0a2.19,2.19,0,0,1,.5.3l.2.2.3.3c.9-.5,3.5-2.1,3.7-1.5.3.8-3.2,1.8-3.2,1.8s3.6-.1,3.5.8c-.1.5-2.9-.1-3.7-.3a1.1,1.1,0,0,1,0,.8c0,.2-.1.3-.2.5,1.1.6,3.6,1.6,4.9,1a1.84,1.84,0,0,0,.8-1.2c.6-1.9,0-5.4-1.3-5.8a5.28,5.28,0,0,0-1.3.1.45.45,0,0,0-.5,0Z" transform="translate(-0.5 -0.5)"/><path class="cls-6" d="M284.6,232.1c.7.2,3.6.8,3.7.3.1-.9-3.5-.8-3.5-.8s3.6-1,3.2-1.8c-.2-.6-2.8,1-3.7,1.5A1.14,1.14,0,0,1,284.6,232.1Z" transform="translate(-0.5 -0.5)"/><path class="cls-23" d="M284.6,232.1c.7.2,3.6.8,3.7.3.1-.9-3.5-.8-3.5-.8s3.6-1,3.2-1.8c-.2-.6-2.8,1-3.7,1.5A1.14,1.14,0,0,1,284.6,232.1Z" transform="translate(-0.5 -0.5)"/><path class="cls-6" d="M283.4,234.2a1.78,1.78,0,0,0,1.1-.8.76.76,0,0,0,.2-.5,2.13,2.13,0,0,0,0-.8,4.88,4.88,0,0,0-.3-.7l-.3-.3-.2-.2a2.19,2.19,0,0,1-.5-.3h-.1a2.48,2.48,0,0,0-2.7.8l.5.5a2.29,2.29,0,0,1,.2,1.8.76.76,0,0,1-.2.4A3,3,0,0,0,283.4,234.2Z" transform="translate(-0.5 -0.5)"/><path class="cls-22" d="M283.4,234.2a1.78,1.78,0,0,0,1.1-.8.76.76,0,0,0,.2-.5,2.13,2.13,0,0,0,0-.8,4.88,4.88,0,0,0-.3-.7l-.3-.3-.2-.2a2.19,2.19,0,0,1-.5-.3h-.1a2.48,2.48,0,0,0-2.7.8l.5.5a2.29,2.29,0,0,1,.2,1.8.76.76,0,0,1-.2.4A3,3,0,0,0,283.4,234.2Z" transform="translate(-0.5 -0.5)"/><path class="cls-6" d="M275.6,237c1.8.6,4-.9,5.1-2.3.1-.2.3-.4.3-.6s.1-.3.2-.4a1.92,1.92,0,0,0-.7-2.3,5.55,5.55,0,0,0-.8-.6,9.19,9.19,0,0,0-2.9-1.1,3.52,3.52,0,0,0-2.8.7c-.4.3-.5,1.2-.4,2.3h0C273.8,234.4,274.7,236.7,275.6,237Zm5.7-4.2c-.3.3-3.6,2-3.8,1.4s3.1-1.6,3.1-1.6-3.9-.3-3.7-1c.1-.5,3.9.4,4.3.8C281.2,232.5,281.3,232.6,281.3,232.8Z" transform="translate(-0.5 -0.5)"/><path class="cls-6" d="M276.9,231.6c-.2.7,3.7,1,3.7,1s-3.3,1-3.1,1.6,3.6-1,3.8-1.4c0-.2-.1-.3-.1-.4C280.8,232,276.9,231.1,276.9,231.6Z" transform="translate(-0.5 -0.5)"/><path class="cls-23" d="M276.9,231.6c-.2.7,3.7,1,3.7,1s-3.3,1-3.1,1.6,3.6-1,3.8-1.4c0-.2-.1-.3-.1-.4C280.8,232,276.9,231.1,276.9,231.6Z" transform="translate(-0.5 -0.5)"/><path class="cls-17" d="M144.4,371.9c-1.7-.3-3.5-.8-5.2-.4-2.1.4-3.7,1.9-5.2,3.4a3.92,3.92,0,0,0-.8,1c2.7,1.1,5.2,2.2,7.3,3a43.12,43.12,0,0,1,8.3,4.2,11.47,11.47,0,0,1,2.9-7.4,47.66,47.66,0,0,1-4-3.5A18.41,18.41,0,0,1,144.4,371.9Z" transform="translate(-0.5 -0.5)"/><path class="cls-14" d="M184.1,397.5A79.12,79.12,0,0,1,176,393c-6.5-4.2-13.8-9.4-22.8-16.1a14.31,14.31,0,0,0-1.5-1.1h0C159.3,388.6,177.9,396.7,184.1,397.5Z" transform="translate(-0.5 -0.5)"/><path class="cls-14" d="M121.5,353.6a14.51,14.51,0,0,0-7.1,1.3,19.42,19.42,0,0,0-6.6,4.7l-.1.1a4.25,4.25,0,0,1,2.3-1.6c3.8-1.5,8.7.3,17,2.3a40.74,40.74,0,0,0,12.4,1,27.51,27.51,0,0,1-1.7-4.1,15.26,15.26,0,0,1-3,.3C130.2,357.3,126.1,353.9,121.5,353.6Z" transform="translate(-0.5 -0.5)"/><path class="cls-14" d="M121,360.9c-.2,0-.3-.1-.5-.1h0C120.7,360.8,120.8,360.9,121,360.9Z" transform="translate(-0.5 -0.5)"/><path class="cls-6" d="M134.1,363.2A79.61,79.61,0,0,1,121,361c-.2,0-.3-.1-.5-.1-2.1,3.1-2.2,8.3-2.2,8.3s-2.4-1-5.2-2.5c.9.5,1.8.9,2.6,1.3,3.1,1.6,8.3,4,12.2,5.7a2.19,2.19,0,0,1-.5-.3,6.26,6.26,0,0,1,.3-2.7c.3-.8,1.5-.3,1.2.5a12.65,12.65,0,0,0-.3,2.8c-.2,0-.3-.1-.5-.2,2.9,1.3,5,2.2,5,2.2l.1-.1a3.92,3.92,0,0,1,.8-1,11.26,11.26,0,0,1,5.2-3.4c1.7-.3,3.5.2,5.2.4a17.33,17.33,0,0,0,3.2.3,41.35,41.35,0,0,1-7.3-9.2C138.4,363.2,136.2,363.2,134.1,363.2Zm-13.9,6.9a6.26,6.26,0,0,1,.3-2.7.63.63,0,0,1,1.2.4,12.65,12.65,0,0,0-.3,2.8A3.34,3.34,0,0,1,120.2,370.1Zm4.8,2.2a4.33,4.33,0,0,1-1.2-.5,6.26,6.26,0,0,1,.3-2.7.63.63,0,1,1,1.2.4A12.65,12.65,0,0,0,125,372.3Z" transform="translate(-0.5 -0.5)"/><path class="cls-22" d="M134.1,363.2A79.61,79.61,0,0,1,121,361c-.2,0-.3-.1-.5-.1-2.1,3.1-2.2,8.3-2.2,8.3s-2.4-1-5.2-2.5c.9.5,1.8.9,2.6,1.3,3.1,1.6,8.3,4,12.2,5.7a2.19,2.19,0,0,1-.5-.3,6.26,6.26,0,0,1,.3-2.7c.3-.8,1.5-.3,1.2.5a12.65,12.65,0,0,0-.3,2.8c-.2,0-.3-.1-.5-.2,2.9,1.3,5,2.2,5,2.2l.1-.1a3.92,3.92,0,0,1,.8-1,11.26,11.26,0,0,1,5.2-3.4c1.7-.3,3.5.2,5.2.4a17.33,17.33,0,0,0,3.2.3,41.35,41.35,0,0,1-7.3-9.2C138.4,363.2,136.2,363.2,134.1,363.2Zm-13.9,6.9a6.26,6.26,0,0,1,.3-2.7.63.63,0,0,1,1.2.4,12.65,12.65,0,0,0-.3,2.8A3.34,3.34,0,0,1,120.2,370.1Zm4.8,2.2a4.33,4.33,0,0,1-1.2-.5,6.26,6.26,0,0,1,.3-2.7.63.63,0,1,1,1.2.4A12.65,12.65,0,0,0,125,372.3Z" transform="translate(-0.5 -0.5)"/><path class="cls-9" d="M120.5,360.8h0a59.2,59.2,0,0,0-6.1-1.2c-5.3-.6-7.1,2.7-7.1,2.7,0,.3.3,1.4,3.4,3.1.8.4,1.6.9,2.4,1.3l5.2,2.5S118.3,363.9,120.5,360.8Z" transform="translate(-0.5 -0.5)"/><path class="cls-9" d="M121.6,367.8a.63.63,0,1,0-1.2-.4,8.31,8.31,0,0,0-.3,2.7,3.08,3.08,0,0,0,1.2.5C121.4,369.7,121.5,368.7,121.6,367.8Z" transform="translate(-0.5 -0.5)"/><path class="cls-9" d="M124.8,368.7a.74.74,0,0,0-.8.4,8.31,8.31,0,0,0-.3,2.7,3.08,3.08,0,0,0,1.2.5,13.33,13.33,0,0,1,.3-2.8A.52.52,0,0,0,124.8,368.7Z" transform="translate(-0.5 -0.5)"/><path class="cls-9" d="M128.9,371.2c.3-.8-1-1.3-1.2-.5a6.26,6.26,0,0,0-.3,2.7c.2.1.3.2.5.3s.1.1.2.1.3.1.5.2A13.33,13.33,0,0,1,128.9,371.2Z" transform="translate(-0.5 -0.5)"/><path class="cls-10" d="M127.1,360.4c-8.3-1.9-13.2-3.7-17-2.3a4.84,4.84,0,0,0-2.3,1.6,2.75,2.75,0,0,0-.4,2.5h0s1.8-3.3,7.1-2.7c1.8.2,3.8.7,6.1,1.2.2,0,.3.1.5.1a62.93,62.93,0,0,0,13.1,2.2,44.22,44.22,0,0,0,6.3-.2,8,8,0,0,1-.8-1.6A35.35,35.35,0,0,1,127.1,360.4Z" transform="translate(-0.5 -0.5)"/><path class="cls-5" d="M217,350.6l17.3-10,25.1-14.5a2.18,2.18,0,0,0,1-2.1,6.92,6.92,0,0,0-2-4.5l-42.9,24.7h0a3,3,0,0,1-1.3.5,1.55,1.55,0,0,1-1.2-.2h0l-34.3-19.8a4.7,4.7,0,0,1-.9,1.2l33,19a7.67,7.67,0,0,1,3.6,5.9c0,2.1-1.6,2.9-3.6,1.7L184,337.2h-.1l3.9,2.3a46,46,0,0,1-5,1.3c-3.8.6-5.1.3-8.9-.3-1.2-.2-2.5-.4-3.7-.7-14.8,1.3-29.8-1.3-34.7-6.5,0,4.2,0,8.3.2,12.5a40.17,40.17,0,0,0,2.1,11.5c.5,1.3,1,2.7,1.7,4.1.3.5.5,1,.8,1.6a41.35,41.35,0,0,0,7.3,9.2c1.2,1.2,2.6,2.3,4,3.5a11.26,11.26,0,0,0-2.9,7.4v.2s3.2,2.5,8.2,6c6.1,4.2,20.6,13.7,30.3,14.6,8.5.9,13.8-.2,16.7-1.3a7.58,7.58,0,0,0,1.6-.3l-10.8-6.2,12.8-16.3c-10.5-12.2-29.9-27.7-29.9-27.7,2.4-1.2,8.1-4.2,10-7.6-.8,4.3-3.3,6.5-5.7,8.3,3.7,3.3,19.3,16.5,23.5,20.5,1.4,1.3,2.8,2.7,4.1,4.1l.2-.2,21.9-12.6C227.6,359.2,222.3,354.9,217,350.6Zm-63.8,26.2c9,6.8,16.3,12,22.8,16.1,2.1,1.3,4.9,2.9,8.1,4.5-6.2-.8-24.8-8.9-32.4-21.7h0A14.31,14.31,0,0,0,153.2,376.8Z" transform="translate(-0.5 -0.5)"/><path class="cls-14" d="M205.4,373.3c-4.2-4-19.8-17.2-23.5-20.5,2.4-1.8,4.9-4,5.7-8.3-1.9,3.4-7.5,6.4-10,7.6,0,0,19.4,15.5,29.9,27.7l1.9-2.4A51.38,51.38,0,0,0,205.4,373.3Z" transform="translate(-0.5 -0.5)"/><path class="cls-18" d="M194.3,275.4a32.51,32.51,0,0,1,.2,3.3.1.1,0,0,0,.1-.1,29.85,29.85,0,0,1,7.1-1.9c-.6-3.1-1.2-6.5-1.7-9l-.3-1.5c-1.1-5.4-2-8.7-4.4-10.8-2.6-2.3-4.9-2.8-10.8-3.4v.1h.1C188.1,255.2,193.6,265.5,194.3,275.4Z" transform="translate(-0.5 -0.5)"/><path class="cls-14" d="M143.6,278.6c-.9,2.5-6.6,21.9-6.6,21.9a.75.75,0,0,0-.5.1l-.5,1.7c.1,1.8.2,3.6.3,5.3l-.2,3.7c5.6,3.2,19.3,10.6,22.2,11.7a8,8,0,0,0,5.7.3q1-.15,1.8-.3v-1.7l3.1,1.8a15.21,15.21,0,0,0,3.7,0,1.27,1.27,0,0,0,.6-.1l-7.4-4.3h0l1.5-.8-.5-.3a2.18,2.18,0,0,1-1-2.1,6.68,6.68,0,0,1,2.3-4.8l-1-.6a2.77,2.77,0,0,1-1.3-2.3V302l12.5-7.2c.4-1.7,1.7-6.2,2.8-7.6,1.8-2.4,7.9-6,13.7-8.4-.1-1.2-.1-2.3-.2-3.3-.8-10-6.2-20.3-9.7-23.3h-.1l-6.7-.4-4.4-.3v.5c5.8,5.7-11.3,10.1-19.2,1v-1l-16.4,3.4h0C145.1,258.6,144.4,276.1,143.6,278.6Z" transform="translate(-0.5 -0.5)"/><path class="cls-14" d="M135.5,333.3c4.9,5.1,19.9,7.8,34.7,6.5-2.2-.5-4.4-1-6.5-1.7-2.3-.9-14.4-4.1-20.5-5.8-2.6-.7-5.2-1.5-7.9-2.3l-.1,2.4v.6C135.2,333.1,135.4,333.2,135.5,333.3Z" transform="translate(-0.5 -0.5)"/><path class="cls-14" d="M151.7,224.7c1.2,1.1,2.5,3.5,3.5,3.1a3.33,3.33,0,0,0,2.3-2.3c.7-1.6.8-2.6.9-6.3,1-.5,3-1.4,3.8-2.5,1.6-2.2,1.3-3.4,1.4-5.3,8.1-2.5,16.9-3.3,20.3-.7,1.1,1.9,1.9,5.5,2.5,9.1h.1a8.68,8.68,0,0,0,3.4-4.4,15.2,15.2,0,0,0,.3-6.7,3.26,3.26,0,0,0-.4-1.4,3.11,3.11,0,0,0-2.5-1c-.6-.1-1.2-.1-1.7-.2a11.11,11.11,0,0,0,2.5-3.6,6.17,6.17,0,0,0,.1-3.3,2,2,0,0,0-.4-.8c-.5-.5-1.3-.3-2-.2a27.76,27.76,0,0,1-5.7.7c-1.9,0-3.7-.5-5.5-.5-3.4,0-6.7-.5-10.1-.3-7.1.4-14,3.4-15.3,10.6-5.7,1.6-5,11-3.6,15.1.1.4.3.7.4,1.1C147.7,222.4,150.6,223.7,151.7,224.7Z" transform="translate(-0.5 -0.5)"/><path class="cls-14" d="M151.5,236.9c1.3,2.6,2.3,4.9,2.3,6.6h0l-.3-7.7A3.63,3.63,0,0,1,151.5,236.9Z" transform="translate(-0.5 -0.5)"/><path class="cls-17" d="M173.5,252v-.5l-.2-4.6a29.08,29.08,0,0,0,5.9,0c3.7-.6,6.1-3.6,7.2-7.5,1-3.4,1.1-7.5.8-12.4-.1-1.9-.4-4.5-.8-7.2-.6-3.5-1.4-7.1-2.5-9.1-3.4-2.6-12.2-1.8-20.3.7-.1,1.9.2,3.1-1.4,5.3-.8,1.1-2.8,2-3.8,2.5-.1,3.7-.2,4.7-.9,6.3a3.33,3.33,0,0,1-2.3,2.3c-1,.3-2.3-2-3.5-3.1s-4-2.4-6,0a3.46,3.46,0,0,0-.7,1.2,8.42,8.42,0,0,0,2.6,10.1,5,5,0,0,0,4,.9,4.71,4.71,0,0,0,2.1-1.1l.3,7.7.3,8.5v1C162.2,262,179.3,257.7,173.5,252Zm-.6-12.5h0a1.07,1.07,0,0,1-.6-.2c-.1,0-.1-.1-.2-.1s-.2-.1-.3-.2-.1-.1-.2-.1l-.2-.2a5.5,5.5,0,0,1-.7-.9h0a3.08,3.08,0,0,1-.3-1.9l5.6,1.2A2.67,2.67,0,0,1,172.9,239.5Zm11-15.3a1.67,1.67,0,0,1-1.6,1.7h0a1.71,1.71,0,0,1-1.8-1.7,1.83,1.83,0,0,1,1.6-1.8,1.67,1.67,0,0,1,1.8,1.5v.3Zm-1.4-7h.2a2.26,2.26,0,0,1,1.4,2.7l-3.9-1.4A1.85,1.85,0,0,1,182.5,217.2Zm.8,13.3-6.4,2-1.8-11.9ZM171.4,225h0a1.77,1.77,0,0,1-1.7,1.8,1.75,1.75,0,0,1-1.7-1.7V225a1.58,1.58,0,0,1,1.6-1.6A1.69,1.69,0,0,1,171.4,225Zm-5.1-5.9a2.07,2.07,0,0,1,2.8.5v.1l-3.4,2.3A2.18,2.18,0,0,1,166.3,219.1Zm-7.7,23.4c2.3,2.3,10.5,4.2,14.6,4.4l.1,2.6a59.33,59.33,0,0,1-7.2-1c-2.7-.6-7-1.8-8.7-4.4s-2-8.6-2-8.6S156.4,240.3,158.6,242.5Z" transform="translate(-0.5 -0.5)"/><path class="cls-19" d="M157.5,244.1c1.6,2.6,6,3.8,8.7,4.4a44.53,44.53,0,0,0,7.2,1l-.1-2.6c-4.2-.3-12.4-2.2-14.6-4.4s-3.1-7-3.1-7S155.9,241.5,157.5,244.1Z" transform="translate(-0.5 -0.5)"/><path class="cls-18" d="M168,225h0a1.77,1.77,0,0,0,1.7,1.8,1.75,1.75,0,0,0,1.7-1.7V225a1.7,1.7,0,0,0-3.4,0Z" transform="translate(-0.5 -0.5)"/><path class="cls-18" d="M169.1,219.7h0a2,2,0,0,0-2.8-.6,2.18,2.18,0,0,0-.6,2.9Z" transform="translate(-0.5 -0.5)"/><path class="cls-18" d="M182.7,217.2h-.2a1.85,1.85,0,0,0-2.3,1.3l3.9,1.4A2.1,2.1,0,0,0,182.7,217.2Z" transform="translate(-0.5 -0.5)"/><path class="cls-18" d="M182,222.5a1.83,1.83,0,0,0-1.6,1.8,1.71,1.71,0,0,0,1.8,1.7h0a1.67,1.67,0,0,0,1.6-1.7h0v-.2A1.63,1.63,0,0,0,182,222.5Z" transform="translate(-0.5 -0.5)"/><polygon class="cls-19" points="176.4 232 182.8 230 174.6 220.1 176.4 232"/><path class="cls-19" d="M172.3,239.3c-.1,0-.1-.1-.2-.1A.35.35,0,0,0,172.3,239.3Z" transform="translate(-0.5 -0.5)"/><path class="cls-19" d="M171.8,239c-.1,0-.1-.1-.2-.1A.35.35,0,0,1,171.8,239Z" transform="translate(-0.5 -0.5)"/><path class="cls-19" d="M170.8,237.8c-.1-.3-.2-.5-.3-.8a2.56,2.56,0,0,1,2.6,2.5h-.3a2.85,2.85,0,0,0,3.3-2.3l-5.6-1.2A2.89,2.89,0,0,0,170.8,237.8Z" transform="translate(-0.5 -0.5)"/><path class="cls-19" d="M170.8,237.9a5.5,5.5,0,0,0,.7.9A2.76,2.76,0,0,1,170.8,237.9Z" transform="translate(-0.5 -0.5)"/><path class="cls-12" d="M170.5,237a1.14,1.14,0,0,0,.3.8h0a5.5,5.5,0,0,0,.7.9l.2.2c.1,0,.1.1.2.1s.2.1.3.2.1.1.2.1.3.1.5.2h.4A2.89,2.89,0,0,0,170.5,237Z" transform="translate(-0.5 -0.5)"/><path class="cls-5" d="M165.7,319h0l7.4,4.3c1-.1,1.8-.2,2.5-.3l-8.4-4.9Z" transform="translate(-0.5 -0.5)"/><path class="cls-14" d="M210.6,352.5c1.9,1.1,3.6.3,3.6-1.7a7.67,7.67,0,0,0-3.6-5.9l-33-19a5.78,5.78,0,0,1-2,1.3l33,19a2.47,2.47,0,0,1,1.2,1.9c0,.7-.5,1-1.2.6L173,328.2c-1.6.5-3,.7-3,1l9.8,5.7,4.2,2.4h.1Z" transform="translate(-0.5 -0.5)"/><path class="cls-18" d="M208.6,348.7c.7.3,1.2.1,1.2-.6a2.47,2.47,0,0,0-1.2-1.9l-33-19c-.9.4-1.8.7-2.6,1Z" transform="translate(-0.5 -0.5)"/><path class="cls-18" d="M165.7,323.2a15.82,15.82,0,0,1,3.1.1l-3.1-1.8Z" transform="translate(-0.5 -0.5)"/><path class="cls-16" d="M215.4,344.2a4.28,4.28,0,0,1-1.3.5A3.49,3.49,0,0,0,215.4,344.2Z" transform="translate(-0.5 -0.5)"/><path class="cls-16" d="M212.8,344.4h0q-.9-.45-.9-2.1a8.05,8.05,0,0,1,3.6-5.8l44.9-25.9h0l-1.8-1.1-45.3,26.2a1.91,1.91,0,0,1-1.3.2,2.11,2.11,0,0,1-1.3-.5l-42.6-24.6a8,8,0,0,0-2.3,4.8,2.28,2.28,0,0,0,1,2.1l.5.3,8.4,4.9c2.3-.2,3.2-.2,3.2.2a3.19,3.19,0,0,1-.3,1.4Z" transform="translate(-0.5 -0.5)"/><path class="cls-3" d="M260.3,313.2v2.5h0v1A2.77,2.77,0,0,1,259,319l-.7.4h0l.7-.4a2.77,2.77,0,0,0,1.3-2.3v-6.1h0v2.6Z" transform="translate(-0.5 -0.5)"/><path class="cls-22" d="M260.3,313.2v2.5h0v1A2.77,2.77,0,0,1,259,319l-.7.4h0l.7-.4a2.77,2.77,0,0,0,1.3-2.3v-6.1h0v2.6Z" transform="translate(-0.5 -0.5)"/><path class="cls-5" d="M215.4,344.2h0l42.9-24.7h0Z" transform="translate(-0.5 -0.5)"/><path class="cls-22" d="M215.4,344.2h0l42.9-24.7h0Z" transform="translate(-0.5 -0.5)"/><path class="cls-5" d="M214.1,344.7a2.54,2.54,0,0,1-1.2-.2A3.73,3.73,0,0,0,214.1,344.7Z" transform="translate(-0.5 -0.5)"/><path class="cls-22" d="M214.1,344.7a2.54,2.54,0,0,1-1.2-.2A3.73,3.73,0,0,0,214.1,344.7Z" transform="translate(-0.5 -0.5)"/><path class="cls-16" d="M215.4,336.5a8.05,8.05,0,0,0-3.6,5.8,2.39,2.39,0,0,0,1,2.1,2.54,2.54,0,0,0,1.2.2,4.28,4.28,0,0,0,1.3-.5h0l42.9-24.7.7-.4a2.77,2.77,0,0,0,1.3-2.3v-1l-42.8,24.7c-.7.3-1.2.1-1.2-.6a2.47,2.47,0,0,1,1.2-1.9l42.8-24.7v-2.6Z" transform="translate(-0.5 -0.5)"/><path class="cls-22" d="M215.4,336.5a8.05,8.05,0,0,0-3.6,5.8,2.39,2.39,0,0,0,1,2.1,2.54,2.54,0,0,0,1.2.2,4.28,4.28,0,0,0,1.3-.5h0l42.9-24.7.7-.4a2.77,2.77,0,0,0,1.3-2.3v-1l-42.8,24.7c-.7.3-1.2.1-1.2-.6a2.47,2.47,0,0,1,1.2-1.9l42.8-24.7v-2.6Z" transform="translate(-0.5 -0.5)"/><polygon class="cls-3" points="258.88 313.07 258.88 313.07 260.65 314.84 260.65 314.84 258.88 313.07"/><polygon class="cls-22" points="258.88 313.07 258.88 313.07 260.65 314.84 260.65 314.84 258.88 313.07"/><polygon class="cls-22" points="258.88 313.07 258.88 313.07 260.65 314.84 260.65 314.84 258.88 313.07"/><path class="cls-16" d="M217.5,337.9a2.47,2.47,0,0,0-1.2,1.9c0,.7.5,1,1.2.6l42.8-24.7v-2.5Z" transform="translate(-0.5 -0.5)"/><path class="cls-22" d="M217.5,337.9a2.47,2.47,0,0,0-1.2,1.9c0,.7.5,1,1.2.6l42.8-24.7v-2.5Z" transform="translate(-0.5 -0.5)"/><path class="cls-22" d="M217.5,337.9a2.47,2.47,0,0,0-1.2,1.9c0,.7.5,1,1.2.6l42.8-24.7v-2.5Z" transform="translate(-0.5 -0.5)"/><path class="cls-6" d="M210.6,327.9a7.67,7.67,0,0,1,3.6,5.9,2.1,2.1,0,0,1-1,2l45.3-26.2.9-.5a2.18,2.18,0,0,0,1-2.1,7.1,7.1,0,0,0-3.6-5.8l-44.9-25.9-2.8,1.6a10.72,10.72,0,0,1,1.7.6c3.2,1.7,7.5,7.7,8.3,10.8s-2.9,14.1-2.9,14l-7-4.9.4,8.8a72.74,72.74,0,0,1-14,1c-13.6-.3-16.8-9-17.7-11.7,0,0,.1-.3.2-.7L165.6,302Zm20.8-15.5a1.21,1.21,0,0,1,.7.7v.1a1.17,1.17,0,0,1-.7,1.4,4,4,0,0,1-3.7,0,1.21,1.21,0,0,1-.7-.7v-.1a1.17,1.17,0,0,1,.7-1.4A4,4,0,0,1,231.4,312.4Zm-8.9-3a4,4,0,0,1-3.7,0h0a1.21,1.21,0,0,1-.7-.7,1.19,1.19,0,0,1,.7-1.5,4,4,0,0,1,3.7,0,1.21,1.21,0,0,1,.7.7v.1A1.08,1.08,0,0,1,222.5,309.4Zm5.6,8.3a12.46,12.46,0,0,1,5.1,6l.1.2-1-1.5a12.61,12.61,0,0,0-3.5-3.4l-16.9-10.7Z" transform="translate(-0.5 -0.5)"/><path class="cls-6" d="M211.9,336a3.49,3.49,0,0,1-1.3-.5A1.9,1.9,0,0,0,211.9,336Z" transform="translate(-0.5 -0.5)"/><path class="cls-16" d="M211.9,336a1.91,1.91,0,0,0,1.3-.2h0A3.18,3.18,0,0,1,211.9,336Z" transform="translate(-0.5 -0.5)"/><path class="cls-22" d="M211.9,336a1.91,1.91,0,0,0,1.3-.2h0A3.18,3.18,0,0,1,211.9,336Z" transform="translate(-0.5 -0.5)"/><path class="cls-6" d="M210.6,335.5a4.28,4.28,0,0,0,1.3.5,3,3,0,0,0,1.3-.2h0a2.1,2.1,0,0,0,1-2,7.67,7.67,0,0,0-3.6-5.9L165.7,302v6.1a2.77,2.77,0,0,0,1.3,2.3l1,.6Zm-44.9-28.4v-2.5l42.8,24.7a2.47,2.47,0,0,1,1.2,1.9c0,.7-.5,1-1.2.6Z" transform="translate(-0.5 -0.5)"/><path class="cls-22" d="M210.6,335.5a4.28,4.28,0,0,0,1.3.5,3,3,0,0,0,1.3-.2h0a2.1,2.1,0,0,0,1-2,7.67,7.67,0,0,0-3.6-5.9L165.7,302v6.1a2.77,2.77,0,0,0,1.3,2.3l1,.6Zm-44.9-28.4v-2.5l42.8,24.7a2.47,2.47,0,0,1,1.2,1.9c0,.7-.5,1-1.2.6Z" transform="translate(-0.5 -0.5)"/><path class="cls-6" d="M208.6,331.8c.7.3,1.2.1,1.2-.6a2.47,2.47,0,0,0-1.2-1.9l-42.8-24.7v2.5Z" transform="translate(-0.5 -0.5)"/><path class="cls-22" d="M208.6,331.8c.7.3,1.2.1,1.2-.6a2.47,2.47,0,0,0-1.2-1.9l-42.8-24.7v2.5Z" transform="translate(-0.5 -0.5)"/><path class="cls-22" d="M208.6,331.8c.7.3,1.2.1,1.2-.6a2.47,2.47,0,0,0-1.2-1.9l-42.8-24.7v2.5Z" transform="translate(-0.5 -0.5)"/><path class="cls-5" d="M195.6,307.2a66,66,0,0,0,14-1l-.4-8.8,7,4.9c.1.1,3.8-10.9,2.9-14s-5.1-9.1-8.3-10.8a4.92,4.92,0,0,0-1.7-.6,19.55,19.55,0,0,0-7.3-.1,29.85,29.85,0,0,0-7.1,1.9.1.1,0,0,0-.1.1c-5.8,2.4-11.9,6-13.7,8.4-1.1,1.5-2.3,5.9-2.8,7.6-.1.4-.2.7-.2.7C178.8,298.1,182,306.8,195.6,307.2Zm-7.7-23.4c3.2-2.6,11.5-5.9,15.7-6.2s8.5,2.3,8.3,8.9c.3,4.4-2.7,10.7-2.7,10.7s-13,2.1-20.8-1.6c-2.3-1-3.7-1.9-3.9-2.9h-.1A9.14,9.14,0,0,1,187.9,283.8Z" transform="translate(-0.5 -0.5)"/><path class="cls-14" d="M184.5,292.9h0c-.3-1.4,1.6-3,6.8-6,8.9-5.1,15.3-6.8,19.2-3.6a4.3,4.3,0,0,1,1.5,3.3c.2-6.6-4.2-9.1-8.3-8.9s-12.5,3.6-15.7,6.2A8.7,8.7,0,0,0,184.5,292.9Z" transform="translate(-0.5 -0.5)"/><path class="cls-6" d="M210.5,283.2c-4-3.1-10.3-1.5-19.2,3.6-5.1,2.9-7,4.6-6.7,6,.2,1,1.7,1.8,3.9,2.9,7.8,3.6,20.8,1.6,20.8,1.6s3-6.3,2.7-10.7A5.37,5.37,0,0,0,210.5,283.2Z" transform="translate(-0.5 -0.5)"/><path class="cls-22" d="M210.5,283.2c-4-3.1-10.3-1.5-19.2,3.6-5.1,2.9-7,4.6-6.7,6,.2,1,1.7,1.8,3.9,2.9,7.8,3.6,20.8,1.6,20.8,1.6s3-6.3,2.7-10.7A5.37,5.37,0,0,0,210.5,283.2Z" transform="translate(-0.5 -0.5)"/><path class="cls-6" d="M232.2,322.3l1,1.5-.1-.2a12.46,12.46,0,0,0-5.1-6l-16.2-9.4,16.9,10.7A12.61,12.61,0,0,1,232.2,322.3Z" transform="translate(-0.5 -0.5)"/><path class="cls-22" d="M232.2,322.3l1,1.5-.1-.2a12.46,12.46,0,0,0-5.1-6l-16.2-9.4,16.9,10.7A12.61,12.61,0,0,1,232.2,322.3Z" transform="translate(-0.5 -0.5)"/><path class="cls-5" d="M222.5,307.3a4,4,0,0,0-3.7,0,1.19,1.19,0,0,0-.7,1.5,1.21,1.21,0,0,0,.7.7h0a4,4,0,0,0,3.7,0,1.08,1.08,0,0,0,.7-1.4V308C223.1,307.6,222.9,307.3,222.5,307.3Z" transform="translate(-0.5 -0.5)"/><path class="cls-5" d="M226.9,313.7v.1a1.21,1.21,0,0,0,.7.7,4,4,0,0,0,3.7,0,1.08,1.08,0,0,0,.7-1.4V313a1.21,1.21,0,0,0-.7-.7,4,4,0,0,0-3.7,0A1.12,1.12,0,0,0,226.9,313.7Z" transform="translate(-0.5 -0.5)"/><path class="cls-17" d="M135.3,330c2.6.8,5.3,1.6,7.9,2.3,6.2,1.7,18.2,4.9,20.5,5.8,2.2.7,4.3,1.2,6.5,1.7,1.2.3,2.5.5,3.7.7,3.8.6,5.1,1,8.9.3a40.71,40.71,0,0,0,5-1.3l-3.9-2.3-4.2-2.4-9.8-5.7c0-.2,1.3-.5,3-1a20,20,0,0,0,2.6-1,9.86,9.86,0,0,0,2-1.3,3.45,3.45,0,0,0,.9-1.2,3.19,3.19,0,0,0,.3-1.4c0-.4-.9-.4-3.2-.2-.7.1-1.5.1-2.5.3a1.27,1.27,0,0,0-.6.1,22.82,22.82,0,0,1-3.7,0c-1-.1-2-.1-3.1-.1a5.66,5.66,0,0,0-1.8.3,9.25,9.25,0,0,1-5.7-.3c-2.8-1.1-16.5-8.5-22.2-11.7-1.2-.7-2.1-1.2-2.4-1.4l2.3-7.6.5-1.7a23.78,23.78,0,0,1-11.5-1.4c-4.9-1.8-7-4.1-7.7-5.3a160.24,160.24,0,0,0-3.3,16.6c-.7,4.7-.5,6.4,0,7.7a6.25,6.25,0,0,0,1.3,2C118.5,324,126.6,327.3,135.3,330Z" transform="translate(-0.5 -0.5)"/><path class="cls-18" d="M124.9,299.3a23.78,23.78,0,0,0,11.5,1.4.75.75,0,0,0,.5-.1s5.7-19.4,6.6-21.9,1.6-20-5.8-23.2h0c-4.2.8-7.5,1.1-10.6,4.9s-4,9.2-5.8,15.6-4.6,17.3-4.6,17.3a2.77,2.77,0,0,0,.4.7C118,295.2,120,297.5,124.9,299.3Z" transform="translate(-0.5 -0.5)"/><path class="cls-6" d="M373.1,160.8c3.1-1,5.5-5.4,8.8-4.1s11,12.7,11,12.7c3.6-3.6,6.8-8.3,6.8-14.3A12.72,12.72,0,0,0,387,142.4a12.5,12.5,0,0,0-11.9,8.5,26.65,26.65,0,0,1-4.8,7.2C369,159.6,369.9,161.7,373.1,160.8Z" transform="translate(-0.5 -0.5)"/><path class="cls-6" d="M345.8,172.7c4.1,3.8,12.6,3.8,16.4.7a58.24,58.24,0,0,0,6.6,4.4l5.7,3.3a1.2,1.2,0,0,0,1.4,0,1.34,1.34,0,0,0,.5-1.9h0a.22.22,0,0,0-.2-.2l-4.7-5.4a1.07,1.07,0,0,1,.1-1.4,1,1,0,0,1,1.4.1h0l5,5.8a1.62,1.62,0,0,0,2.3.3h.1a1.82,1.82,0,0,0,.7-2.5c-.1-.1-.1-.2-.2-.3l-4.8-5.5a1,1,0,0,1,.1-1.4h0a1,1,0,0,1,1.4.1h0L383,175a1.73,1.73,0,0,0,2.4.3,1.75,1.75,0,0,0,.5-2.4.1.1,0,0,0-.1-.1c0-.1-.1-.1-.1-.2l-5.4-6.2a1,1,0,0,1,.1-1.4h0a1,1,0,0,1,1.4.1h0l5.5,6.4a1.92,1.92,0,0,0,3-2.4c-2.3-3-7.7-10.1-9.1-10.7a.9.9,0,0,0-.5-.1c-.8,0-1.8.8-2.9,1.7a13.29,13.29,0,0,1-4.1,2.5,6.93,6.93,0,0,1-2,.3,4.65,4.65,0,0,1-2.3-.6,3.64,3.64,0,0,1-1.4-1.6,3.89,3.89,0,0,1,1-4.2,32.78,32.78,0,0,0,3.2-4.4,25.91,25.91,0,0,0,1.4-2.9,3,3,0,0,0,.4-1,12.7,12.7,0,0,0-23.4,8.5h0a19.41,19.41,0,0,0,4.7,10C352.8,172.1,345.8,172.7,345.8,172.7Z" transform="translate(-0.5 -0.5)"/><path class="cls-6" d="M382.8,325.6c-.7-2.6.1-7.3,1.9-7.8a6.61,6.61,0,0,1,3.4,1,6.53,6.53,0,0,1-1.5-4.4,19.75,19.75,0,0,1-.8-2.6,14.18,14.18,0,0,1,1.2-9.5,16,16,0,0,1,4-4.9,2.18,2.18,0,0,1-.5-.8,13.93,13.93,0,0,0-3-4.7l-6.7-3.9v39A24.26,24.26,0,0,1,382.8,325.6Z" transform="translate(-0.5 -0.5)"/><path class="cls-24" d="M382.8,325.6c-.7-2.6.1-7.3,1.9-7.8a6.61,6.61,0,0,1,3.4,1,6.53,6.53,0,0,1-1.5-4.4,19.75,19.75,0,0,1-.8-2.6,14.18,14.18,0,0,1,1.2-9.5,16,16,0,0,1,4-4.9,2.18,2.18,0,0,1-.5-.8,13.93,13.93,0,0,0-3-4.7l-6.7-3.9v39A24.26,24.26,0,0,1,382.8,325.6Z" transform="translate(-0.5 -0.5)"/><path class="cls-6" d="M417.9,309.5v.4c0,6.2-3.5,10.7-9.2,12.8a3,3,0,0,1,.4,1.8c2.1.1,5,4,7.8,8.6L437.8,321l-2.6-1.5Z" transform="translate(-0.5 -0.5)"/><path class="cls-24" d="M417.9,309.5v.4c0,6.2-3.5,10.7-9.2,12.8a3,3,0,0,1,.4,1.8c2.1.1,5,4,7.8,8.6L437.8,321l-2.6-1.5Z" transform="translate(-0.5 -0.5)"/><path class="cls-6" d="M367.5,301.1a2.36,2.36,0,0,1,1.2-2.3,5.25,5.25,0,0,1,6.3,8.4,2.45,2.45,0,0,1-3,.3,13.39,13.39,0,0,1,.1,5.3h0a2.7,2.7,0,0,1-.8,5.3,1.27,1.27,0,0,1-.6-.1,10.57,10.57,0,0,1-8.1,5.6v1.1h.1l3.6,1.1v.2a21.55,21.55,0,0,0,9.1,1.1,2.09,2.09,0,0,1,.6-.4,1.89,1.89,0,0,0,1-.8.22.22,0,0,1,.2-.2c.2,0,.4.1.4.3a2.77,2.77,0,0,1-.1.9,1.7,1.7,0,0,0,.7-.1c.4-.1.8-.2,1,0s0,.7-.7.9a2.2,2.2,0,0,0,.8.1c.1,0,.2.1.3.1a14.7,14.7,0,0,1,1.3-1V288L361,299.5h.5A11.14,11.14,0,0,1,367.5,301.1Z" transform="translate(-0.5 -0.5)"/><path class="cls-24" d="M367.5,301.1a2.36,2.36,0,0,1,1.2-2.3,5.25,5.25,0,0,1,6.3,8.4,2.45,2.45,0,0,1-3,.3,13.39,13.39,0,0,1,.1,5.3h0a2.7,2.7,0,0,1-.8,5.3,1.27,1.27,0,0,1-.6-.1,10.57,10.57,0,0,1-8.1,5.6v1.1h.1l3.6,1.1v.2a21.55,21.55,0,0,0,9.1,1.1,2.09,2.09,0,0,1,.6-.4,1.89,1.89,0,0,0,1-.8.22.22,0,0,1,.2-.2c.2,0,.4.1.4.3a2.77,2.77,0,0,1-.1.9,1.7,1.7,0,0,0,.7-.1c.4-.1.8-.2,1,0s0,.7-.7.9a2.2,2.2,0,0,0,.8.1c.1,0,.2.1.3.1a14.7,14.7,0,0,1,1.3-1V288L361,299.5h.5A11.14,11.14,0,0,1,367.5,301.1Z" transform="translate(-0.5 -0.5)"/><path class="cls-23" d="M367.5,301.1a2.36,2.36,0,0,1,1.2-2.3,5.25,5.25,0,0,1,6.3,8.4,2.45,2.45,0,0,1-3,.3,13.39,13.39,0,0,1,.1,5.3h0a2.7,2.7,0,0,1-.8,5.3,1.27,1.27,0,0,1-.6-.1,10.57,10.57,0,0,1-8.1,5.6v1.1h.1l3.6,1.1v.2a21.55,21.55,0,0,0,9.1,1.1,2.09,2.09,0,0,1,.6-.4,1.89,1.89,0,0,0,1-.8.22.22,0,0,1,.2-.2c.2,0,.4.1.4.3a2.77,2.77,0,0,1-.1.9,1.7,1.7,0,0,0,.7-.1c.4-.1.8-.2,1,0s0,.7-.7.9a2.2,2.2,0,0,0,.8.1c.1,0,.2.1.3.1a14.7,14.7,0,0,1,1.3-1V288L361,299.5h.5A11.14,11.14,0,0,1,367.5,301.1Z" transform="translate(-0.5 -0.5)"/><path class="cls-6" d="M378.3,328.6l.3.1.2-.2A.75.75,0,0,1,378.3,328.6Z" transform="translate(-0.5 -0.5)"/><path class="cls-24" d="M378.3,328.6l.3.1.2-.2A.75.75,0,0,1,378.3,328.6Z" transform="translate(-0.5 -0.5)"/><path class="cls-23" d="M378.3,328.6l.3.1.2-.2A.75.75,0,0,1,378.3,328.6Z" transform="translate(-0.5 -0.5)"/><path class="cls-6" d="M374.7,332.6a24.55,24.55,0,0,1,3-3.1,2.35,2.35,0,0,1-.8-.2,3.19,3.19,0,0,0-1.4-.3,22.56,22.56,0,0,1-5.8-.2,15.25,15.25,0,0,1-3.7-.8l-.7,5.1h-.1l2.3,8.7a9.25,9.25,0,0,1,5.1,3.4,22.29,22.29,0,0,1,5-1.4,11.92,11.92,0,0,1,.3-4.7C374.7,338.3,373.9,334.1,374.7,332.6Z" transform="translate(-0.5 -0.5)"/><path class="cls-24" d="M374.7,332.6a24.55,24.55,0,0,1,3-3.1,2.35,2.35,0,0,1-.8-.2,3.19,3.19,0,0,0-1.4-.3,22.56,22.56,0,0,1-5.8-.2,15.25,15.25,0,0,1-3.7-.8l-.7,5.1h-.1l2.3,8.7a9.25,9.25,0,0,1,5.1,3.4,22.29,22.29,0,0,1,5-1.4,11.92,11.92,0,0,1,.3-4.7C374.7,338.3,373.9,334.1,374.7,332.6Z" transform="translate(-0.5 -0.5)"/><path class="cls-23" d="M374.7,332.6a24.55,24.55,0,0,1,3-3.1,2.35,2.35,0,0,1-.8-.2,3.19,3.19,0,0,0-1.4-.3,22.56,22.56,0,0,1-5.8-.2,15.25,15.25,0,0,1-3.7-.8l-.7,5.1h-.1l2.3,8.7a9.25,9.25,0,0,1,5.1,3.4,22.29,22.29,0,0,1,5-1.4,11.92,11.92,0,0,1,.3-4.7C374.7,338.3,373.9,334.1,374.7,332.6Z" transform="translate(-0.5 -0.5)"/><path class="cls-6" d="M354.8,338.9l2-5.8-.6-5.1a18.61,18.61,0,0,1-4.1.8,22.53,22.53,0,0,1-5.8-.1,6.75,6.75,0,0,0-1.4.2,10.28,10.28,0,0,1-1.7.1.39.39,0,0,1-.2-.7.55.55,0,0,0,.5-.3,1.93,1.93,0,0,1-1-.3c-.3-.4-.2-1,.3-.9h.8c-.7-.3-.9-.8-.6-.9a1.7,1.7,0,0,1,1,0,1.7,1.7,0,0,0,.7.1,2.77,2.77,0,0,1-.1-.9c.1-.2.2-.2.4-.2h0a.22.22,0,0,1,.2.2,2,2,0,0,0,.9.9,1.21,1.21,0,0,1,.5.5,21.36,21.36,0,0,0,9.4-.7v-.3l3.7-1v-1.2a10.58,10.58,0,0,1-7.8-6.1c-.2,0-.4.1-.6,0a2.7,2.7,0,0,1-.6-5.3v-.2a9.43,9.43,0,0,1,0-5,2.3,2.3,0,0,1-2.2-.4l-4.3,2.5-.5.3-10,5.8-9.9,5.7Z" transform="translate(-0.5 -0.5)"/><path class="cls-24" d="M354.8,338.9l2-5.8-.6-5.1a18.61,18.61,0,0,1-4.1.8,22.53,22.53,0,0,1-5.8-.1,6.75,6.75,0,0,0-1.4.2,10.28,10.28,0,0,1-1.7.1.39.39,0,0,1-.2-.7.55.55,0,0,0,.5-.3,1.93,1.93,0,0,1-1-.3c-.3-.4-.2-1,.3-.9h.8c-.7-.3-.9-.8-.6-.9a1.7,1.7,0,0,1,1,0,1.7,1.7,0,0,0,.7.1,2.77,2.77,0,0,1-.1-.9c.1-.2.2-.2.4-.2h0a.22.22,0,0,1,.2.2,2,2,0,0,0,.9.9,1.21,1.21,0,0,1,.5.5,21.36,21.36,0,0,0,9.4-.7v-.3l3.7-1v-1.2a10.58,10.58,0,0,1-7.8-6.1c-.2,0-.4.1-.6,0a2.7,2.7,0,0,1-.6-5.3v-.2a9.43,9.43,0,0,1,0-5,2.3,2.3,0,0,1-2.2-.4l-4.3,2.5-.5.3-10,5.8-9.9,5.7Z" transform="translate(-0.5 -0.5)"/><path class="cls-23" d="M354.8,338.9l2-5.8-.6-5.1a18.61,18.61,0,0,1-4.1.8,22.53,22.53,0,0,1-5.8-.1,6.75,6.75,0,0,0-1.4.2,10.28,10.28,0,0,1-1.7.1.39.39,0,0,1-.2-.7.55.55,0,0,0,.5-.3,1.93,1.93,0,0,1-1-.3c-.3-.4-.2-1,.3-.9h.8c-.7-.3-.9-.8-.6-.9a1.7,1.7,0,0,1,1,0,1.7,1.7,0,0,0,.7.1,2.77,2.77,0,0,1-.1-.9c.1-.2.2-.2.4-.2h0a.22.22,0,0,1,.2.2,2,2,0,0,0,.9.9,1.21,1.21,0,0,1,.5.5,21.36,21.36,0,0,0,9.4-.7v-.3l3.7-1v-1.2a10.58,10.58,0,0,1-7.8-6.1c-.2,0-.4.1-.6,0a2.7,2.7,0,0,1-.6-5.3v-.2a9.43,9.43,0,0,1,0-5,2.3,2.3,0,0,1-2.2-.4l-4.3,2.5-.5.3-10,5.8-9.9,5.7Z" transform="translate(-0.5 -0.5)"/><polygon class="cls-25" points="437.4 377.7 441.2 375.5 443.5 374.2 437.4 370.7 437.4 377.7"/><path class="cls-26" d="M391,297.4a7.1,7.1,0,0,1,1.4-1,42.29,42.29,0,0,0-4.4-6.9c-2.9-3.4-3.8-3.3-5.2-5.2-1.5-2.1.6-3.2,3.5-1.8,3.6,1.8,7.6,7.3,9.5,12.2a12.76,12.76,0,0,1,2.8-.7c-2.8-9.4-13.3-18.9-18.5-16.7-3.3,1.4-3.1,3.9-1,6.4s5.7,5.1,8.5,8.3a17,17,0,0,1,3,4.7C390.6,296.9,390.8,297.1,391,297.4Z" transform="translate(-0.5 -0.5)"/><path class="cls-12" d="M395.7,294.7c-1.9-4.9-5.9-10.4-9.5-12.2-2.9-1.4-4.9-.3-3.5,1.8,1.4,1.9,2.3,1.8,5.2,5.2a35.18,35.18,0,0,1,4.4,6.9A15.44,15.44,0,0,1,395.7,294.7Z" transform="translate(-0.5 -0.5)"/><path class="cls-15" d="M378.4,348.2c.2.3.3.6.5.9a15.08,15.08,0,0,1-1-2.8,5.08,5.08,0,0,1-.3-1.7,1.27,1.27,0,0,0-.1-.6,35,35,0,0,0-5,1.4,9.25,9.25,0,0,0-5.1-3.4l.8,3.2c-.2.1-.5.2-.7.3a6.55,6.55,0,0,1,1.5,1.8l11.6,6.7h0l1-.6A17.66,17.66,0,0,1,378.4,348.2Zm-3.3,1.9a20.84,20.84,0,0,0-2.4-4.7,8.8,8.8,0,0,1,1.5-.5A11.44,11.44,0,0,1,375.1,350.1Z" transform="translate(-0.5 -0.5)"/><path class="cls-10" d="M367.7,345.5c-.3.1-.6.3-.9.4l2.5,1.4A9.34,9.34,0,0,0,367.7,345.5Z" transform="translate(-0.5 -0.5)"/><path class="cls-15" d="M374.1,344.9a8.8,8.8,0,0,0-1.5.5,18.93,18.93,0,0,1,2.4,4.7A9.3,9.3,0,0,0,374.1,344.9Z" transform="translate(-0.5 -0.5)"/><path class="cls-23" d="M374.1,344.9a8.8,8.8,0,0,0-1.5.5,18.93,18.93,0,0,1,2.4,4.7A9.3,9.3,0,0,0,374.1,344.9Z" transform="translate(-0.5 -0.5)"/><path class="cls-15" d="M379.3,328.4a.6.6,0,0,1-.4.1l-.2.2.2.1c.3.1.3.6-.2.7h-1a18.73,18.73,0,0,0-3,3.1c-.8,1.5-.1,5.7,3.2,6.6,1.6-6.7,8-9,8-9a5,5,0,0,1,.2-1.2h0a5.73,5.73,0,0,1,.4-1.4c0-.1.1-.2.1-.3a5.88,5.88,0,0,1-2.7-.1,2.22,2.22,0,0,1-1.1-1.6c-.6.4-1.3.9-1.9,1.3-.4.3-.8.6-1.3,1C379.7,328.1,379.6,328.3,379.3,328.4Z" transform="translate(-0.5 -0.5)"/><path class="cls-13" d="M401.7,333.3c-2-1-4.9-4.8-4.9-4.8s-.7.9-2.8.7a2.87,2.87,0,0,1-2.6-1.7,13.64,13.64,0,0,1-5.3,1.6c-.1.4-.1.8-.2,1.2,0,0-6.4,2.3-8,9a17.43,17.43,0,0,0-.3,4.7,1.27,1.27,0,0,0,.1.6c.1.6.2,1.2.3,1.7a13.32,13.32,0,0,0,1,2.8,11.9,11.9,0,0,0,4,3.7l3.5-2c-4.5-1.4-7.8-4.9-7.5-8.8.5-6.3,6.7-10.7,13.4-8.8A10.77,10.77,0,0,1,400,343l6.9-4-1.1-5.1A6.49,6.49,0,0,1,401.7,333.3Z" transform="translate(-0.5 -0.5)"/><path class="cls-13" d="M386.4,327.7c0-.1.1-.2.1-.3h0A.49.49,0,0,1,386.4,327.7Z" transform="translate(-0.5 -0.5)"/><path class="cls-10" d="M394.2,322.7h0a4.25,4.25,0,0,0,1.1.2,8.86,8.86,0,0,1-1.7-.8h-.1A3.74,3.74,0,0,1,394.2,322.7Z" transform="translate(-0.5 -0.5)"/><path class="cls-10" d="M397.7,324.1a4.88,4.88,0,0,1,.7-.3l-1.2-.3C397.4,323.6,397.5,323.8,397.7,324.1Z" transform="translate(-0.5 -0.5)"/><path class="cls-10" d="M408,334.7c-.3-1.3-.6-2.5-.8-3.6a3.28,3.28,0,0,1-.8.6c-2.9.8-7.1-2-9.4-4.5-.1,0-.1.1-.2.1-1.4.9-4.2.5-4.7-1.3a39.25,39.25,0,0,1-5.6,1.3c0,.1-.1.2-.1.3-.1.5-.3.9-.4,1.4h0a14.74,14.74,0,0,0,5.3-1.6,2.87,2.87,0,0,0,2.6,1.7c2.1.2,2.8-.7,2.8-.7s2.9,3.7,4.9,4.8a6.09,6.09,0,0,0,4.2.4l1.1,5.1,1.9-1.1C408.5,336.7,408.2,335.6,408,334.7Z" transform="translate(-0.5 -0.5)"/><path class="cls-10" d="M379,349.1a4.05,4.05,0,0,1-.5-.9,13.09,13.09,0,0,0,3.4,5.2l1.1-.6A11.9,11.9,0,0,1,379,349.1Z" transform="translate(-0.5 -0.5)"/><path class="cls-15" d="M409.2,324.5a12.84,12.84,0,0,1-2,6.6c.2,1.1.5,2.3.8,3.6.2.9.5,2,.8,3.1l8.2-4.7C414.3,328.4,411.3,324.6,409.2,324.5Z" transform="translate(-0.5 -0.5)"/><path class="cls-13" d="M408.7,322.7h0c5.7-2.1,9.2-6.6,9.2-12.8C417.9,316.1,414.4,320.6,408.7,322.7Z" transform="translate(-0.5 -0.5)"/><path class="cls-13" d="M392.4,296.3a17,17,0,0,0-1.4,1,16,16,0,0,0-4,4.9,14.18,14.18,0,0,0-1.2,9.5,25.82,25.82,0,0,0,.8,2.6,2.28,2.28,0,0,1,.3-1.1c1.3-3.2,4.6-3.7,9-2.3,2.8,1,4.9,2.7,5.7,5a1.85,1.85,0,0,1,.2.7A4.79,4.79,0,0,1,398,322a8.56,8.56,0,0,1-3.9,0c-.2,0-.3-.1-.5-.1a13,13,0,0,0,1.7.8h.4a2,2,0,0,1,1.5.6l1.2.3c2.2-.9,6.2-2.4,8.8-1.9a16.44,16.44,0,0,0,8.5-10.4,10.13,10.13,0,0,0-.3-6l-.5.5a6.55,6.55,0,0,1-1.8-1.5.1.1,0,0,1-.1.1,13.09,13.09,0,0,1-1.7-2.4h0c-.1-.1-.1-.2-.2-.3h0a5,5,0,0,1-.5-1.3,3.87,3.87,0,0,1,0-2.6,4.87,4.87,0,0,0,.4-1.1,15.44,15.44,0,0,0-6.7-2.8,16.19,16.19,0,0,0-5.8-.1,22.91,22.91,0,0,0-2.8.7Q393.9,295.4,392.4,296.3Zm-1.7,10.4a1.6,1.6,0,1,1-1.6-1.6,1.72,1.72,0,0,1,1.6,1.6Zm10.5,2.6a1.58,1.58,0,0,1,1.6-1.6,1.56,1.56,0,0,1,1.6,1.5h0a1.58,1.58,0,0,1-1.6,1.6A1.5,1.5,0,0,1,401.2,309.3Z" transform="translate(-0.5 -0.5)"/><path class="cls-3" d="M417.6,306.3a11.28,11.28,0,0,0-.8-2.4l-.1.1a21.85,21.85,0,0,1,.9,2.3Z" transform="translate(-0.5 -0.5)"/><path class="cls-23" d="M417.6,306.3a11.28,11.28,0,0,0-.8-2.4l-.1.1a21.85,21.85,0,0,1,.9,2.3Z" transform="translate(-0.5 -0.5)"/><path class="cls-3" d="M417.9,308.3a4.87,4.87,0,0,0,.1,1.2h0a5.28,5.28,0,0,1-.1-1.2c-.1-.7-.2-1.4-.3-2h-.1A14.16,14.16,0,0,1,417.9,308.3Z" transform="translate(-0.5 -0.5)"/><path class="cls-4" d="M417.9,308.3a4.87,4.87,0,0,0,.1,1.2h0a5.28,5.28,0,0,1-.1-1.2c-.1-.7-.2-1.4-.3-2h-.1A14.16,14.16,0,0,1,417.9,308.3Z" transform="translate(-0.5 -0.5)"/><path class="cls-23" d="M417.9,308.3a4.87,4.87,0,0,0,.1,1.2h0a5.28,5.28,0,0,1-.1-1.2c-.1-.7-.2-1.4-.3-2h-.1A14.16,14.16,0,0,1,417.9,308.3Z" transform="translate(-0.5 -0.5)"/><path class="cls-6" d="M417.9,309.9v-.4h0Z" transform="translate(-0.5 -0.5)"/><path class="cls-24" d="M417.9,309.9v-.4h0Z" transform="translate(-0.5 -0.5)"/><path class="cls-23" d="M417.9,309.9v-.4h0Z" transform="translate(-0.5 -0.5)"/><path class="cls-13" d="M408.6,322.5c.1,0,.1.1.2.2,5.7-2.1,9.2-6.6,9.2-12.8v-.4a4.87,4.87,0,0,0-.1-1.2,14.16,14.16,0,0,0-.4-2,9,9,0,0,0-.8-2.3c-.4.5-.9,1-1.3,1.5a10.13,10.13,0,0,1,.3,6,16.76,16.76,0,0,1-8.5,10.4A3.51,3.51,0,0,1,408.6,322.5Z" transform="translate(-0.5 -0.5)"/><path class="cls-23" d="M408.6,322.5c.1,0,.1.1.2.2,5.7-2.1,9.2-6.6,9.2-12.8v-.4a4.87,4.87,0,0,0-.1-1.2,14.16,14.16,0,0,0-.4-2,9,9,0,0,0-.8-2.3c-.4.5-.9,1-1.3,1.5a10.13,10.13,0,0,1,.3,6,16.76,16.76,0,0,1-8.5,10.4A3.51,3.51,0,0,1,408.6,322.5Z" transform="translate(-0.5 -0.5)"/><path class="cls-6" d="M383.9,327.3a7.57,7.57,0,0,0,2.7.1h0a31.05,31.05,0,0,0,5.6-1.3h0a2.85,2.85,0,0,1,0-1.3v-.1c-.6.1-5,1.1-5.1.4-.2-1.1,4.7-1,4.7-1s-4.8-1.5-4.3-2.5c.3-.8,4.1,1.6,5.2,2.2a2.09,2.09,0,0,1,.4-.6l.1-.1a1.31,1.31,0,0,1,1.2-.3h0v-.1a5.55,5.55,0,0,0-.8-.6,9.27,9.27,0,0,1-5.4-3.3,7.83,7.83,0,0,0-3.4-1c-1.8.5-2.6,5.2-1.9,7.8C383,326.5,383.3,327.1,383.9,327.3Z" transform="translate(-0.5 -0.5)"/><path class="cls-22" d="M383.9,327.3a7.57,7.57,0,0,0,2.7.1h0a31.05,31.05,0,0,0,5.6-1.3h0a2.85,2.85,0,0,1,0-1.3v-.1c-.6.1-5,1.1-5.1.4-.2-1.1,4.7-1,4.7-1s-4.8-1.5-4.3-2.5c.3-.8,4.1,1.6,5.2,2.2a2.09,2.09,0,0,1,.4-.6l.1-.1a1.31,1.31,0,0,1,1.2-.3h0v-.1a5.55,5.55,0,0,0-.8-.6,9.27,9.27,0,0,1-5.4-3.3,7.83,7.83,0,0,0-3.4-1c-1.8.5-2.6,5.2-1.9,7.8C383,326.5,383.3,327.1,383.9,327.3Z" transform="translate(-0.5 -0.5)"/><path class="cls-6" d="M387.4,321.6c-.4,1,4.3,2.5,4.3,2.5s-4.9-.1-4.7,1c.2.7,4.6-.3,5.1-.4a3.55,3.55,0,0,1,.4-.9C391.5,323.1,387.7,320.8,387.4,321.6Z" transform="translate(-0.5 -0.5)"/><path class="cls-22" d="M387.4,321.6c-.4,1,4.3,2.5,4.3,2.5s-4.9-.1-4.7,1c.2.7,4.6-.3,5.1-.4a3.55,3.55,0,0,1,.4-.9C391.5,323.1,387.7,320.8,387.4,321.6Z" transform="translate(-0.5 -0.5)"/><path class="cls-23" d="M387.4,321.6c-.4,1,4.3,2.5,4.3,2.5s-4.9-.1-4.7,1c.2.7,4.6-.3,5.1-.4a3.55,3.55,0,0,1,.4-.9C391.5,323.1,387.7,320.8,387.4,321.6Z" transform="translate(-0.5 -0.5)"/><path class="cls-6" d="M394.2,322.8a2.38,2.38,0,0,0-1.2.3l-.1.1a2.09,2.09,0,0,1-.4.6,3.55,3.55,0,0,0-.4.9v.1a2.85,2.85,0,0,0,0,1.3h0c.5,1.8,3.3,2.2,4.7,1.3.1,0,.1-.1.2-.1-.1-.1-.2-.3-.3-.4a2.57,2.57,0,0,1-.1-1.5v-.2c.1-.3.2-.5.3-.8a4.56,4.56,0,0,0,.8-.4,2.65,2.65,0,0,0-.5-.6,2,2,0,0,0-1.5-.6h-1.5Z" transform="translate(-0.5 -0.5)"/><path class="cls-27" d="M394.2,322.8a2.38,2.38,0,0,0-1.2.3l-.1.1a2.09,2.09,0,0,1-.4.6,3.55,3.55,0,0,0-.4.9v.1a2.85,2.85,0,0,0,0,1.3h0c.5,1.8,3.3,2.2,4.7,1.3.1,0,.1-.1.2-.1-.1-.1-.2-.3-.3-.4a2.57,2.57,0,0,1-.1-1.5v-.2c.1-.3.2-.5.3-.8a4.56,4.56,0,0,0,.8-.4,2.65,2.65,0,0,0-.5-.6,2,2,0,0,0-1.5-.6h-1.5Z" transform="translate(-0.5 -0.5)"/><path class="cls-12" d="M393.4,322h.1c.2,0,.3.1.5.1a8.56,8.56,0,0,0,3.9,0,4.68,4.68,0,0,0,3.8-5.4,1.85,1.85,0,0,0-.2-.7,8.5,8.5,0,0,0-5.7-5c-4.4-1.5-7.7-1-9,2.3-.1.3-.2.7-.3,1.1a6.53,6.53,0,0,0,1.5,4.4A9.17,9.17,0,0,0,393.4,322ZM390,312c1.6-1.6,5.5-.1,5.8,1.2s-1.6,3.1-3.4,3l-.3,1.8a.32.32,0,0,1-.3.3.43.43,0,0,1-.4-.4l.3-1.9h-.1C390.2,315.6,388.6,313.3,390,312Z" transform="translate(-0.5 -0.5)"/><path class="cls-5" d="M391.4,316.1h.1l-.3,1.9a.43.43,0,0,0,.4.4.32.32,0,0,0,.3-.3l.3-1.8c1.9.1,3.8-1.6,3.4-3s-4.2-2.8-5.8-1.2C388.6,313.3,390.2,315.6,391.4,316.1Z" transform="translate(-0.5 -0.5)"/><path class="cls-6" d="M396.9,324.4a6.89,6.89,0,0,0-.3.8v-.1c.6-.4,5.8-1.6,6-1.1.2,1-5.1,1.4-5.1,1.4s4.4,1.4,4.2,2.3-4.9-1.5-5.2-1.9v-.3a2.57,2.57,0,0,0,.1,1.5c.1.1.2.3.3.4,2.3,2.5,6.5,5.3,9.4,4.5a1.56,1.56,0,0,0,.8-.6c1.2-1.3,2.1-4.4,2-6.6a4.36,4.36,0,0,0-.4-1.8l-.1-.1c0-.1-.1-.1-.2-.2a3.51,3.51,0,0,0-1.4-.6c-2.6-.5-6.6.9-8.8,1.9a4.88,4.88,0,0,0-.7.3Z" transform="translate(-0.5 -0.5)"/><path class="cls-22" d="M396.9,324.4a6.89,6.89,0,0,0-.3.8v-.1c.6-.4,5.8-1.6,6-1.1.2,1-5.1,1.4-5.1,1.4s4.4,1.4,4.2,2.3-4.9-1.5-5.2-1.9v-.3a2.57,2.57,0,0,0,.1,1.5c.1.1.2.3.3.4,2.3,2.5,6.5,5.3,9.4,4.5a1.56,1.56,0,0,0,.8-.6c1.2-1.3,2.1-4.4,2-6.6a4.36,4.36,0,0,0-.4-1.8l-.1-.1c0-.1-.1-.1-.2-.2a3.51,3.51,0,0,0-1.4-.6c-2.6-.5-6.6.9-8.8,1.9a4.88,4.88,0,0,0-.7.3Z" transform="translate(-0.5 -0.5)"/><path class="cls-26" d="M411.3,302.1Z" transform="translate(-0.5 -0.5)"/><path class="cls-26" d="M410.6,300.5a6.94,6.94,0,0,0,.5,1.3,35.68,35.68,0,0,0,2.6-10.7c.3-4.5-.4-5-.1-7.4s2.6-1.8,3.7,1.1c1.9,5.1-.7,15.7-4.3,19.7a11.92,11.92,0,0,0,1.8,1.5c.2-.1.3-.3.5-.5a17.38,17.38,0,0,0,1.3-1.5l.1-.1c4.6-6.1,5.5-17.3,3.1-23.3a6.77,6.77,0,0,0-2.6-3.6l-.6-.3c-3.4-1.3-5,.6-5.2,3.9-.2,4.4,1.2,11.1-.4,16.2-.1.4-.3.7-.4,1.1A3,3,0,0,0,410.6,300.5Z" transform="translate(-0.5 -0.5)"/><path class="cls-12" d="M417.3,284.8c-1.1-2.9-3.4-3.6-3.7-1.1-.3,2.3.3,2.9.1,7.4a32.91,32.91,0,0,1-2.6,10.7h0c.1.1.1.2.2.3h0a10.39,10.39,0,0,0,1.7,2.4.1.1,0,0,1,.1-.1C416.7,300.5,419.2,289.9,417.3,284.8Z" transform="translate(-0.5 -0.5)"/><path class="cls-12" d="M392.4,333.1c-6.8-1.8-12.9,2.5-13.4,8.8-.3,3.9,3,7.4,7.5,8.8l13.6-7.9C399.8,338.7,396.9,334.3,392.4,333.1Z" transform="translate(-0.5 -0.5)"/><path class="cls-6" d="M396.6,325.3v0Z" transform="translate(-0.5 -0.5)"/><path class="cls-27" d="M396.6,325.3v0Z" transform="translate(-0.5 -0.5)"/><path class="cls-23" d="M396.6,325.3v0Z" transform="translate(-0.5 -0.5)"/><path class="cls-6" d="M401.7,327.5c.2-.9-4.2-2.3-4.2-2.3s5.3-.4,5.1-1.4c-.2-.5-5.4.7-6,1.1v.6C396.9,326.1,401.6,328.4,401.7,327.5Z" transform="translate(-0.5 -0.5)"/><path class="cls-22" d="M401.7,327.5c.2-.9-4.2-2.3-4.2-2.3s5.3-.4,5.1-1.4c-.2-.5-5.4.7-6,1.1v.6C396.9,326.1,401.6,328.4,401.7,327.5Z" transform="translate(-0.5 -0.5)"/><path class="cls-23" d="M401.7,327.5c.2-.9-4.2-2.3-4.2-2.3s5.3-.4,5.1-1.4c-.2-.5-5.4.7-6,1.1v.6C396.9,326.1,401.6,328.4,401.7,327.5Z" transform="translate(-0.5 -0.5)"/><path class="cls-14" d="M389.2,305.2a1.6,1.6,0,1,0,1.6,1.6h0A1.72,1.72,0,0,0,389.2,305.2Z" transform="translate(-0.5 -0.5)"/><path class="cls-14" d="M404.3,309.3h0a1.6,1.6,0,1,0-1.6,1.6A1.58,1.58,0,0,0,404.3,309.3Z" transform="translate(-0.5 -0.5)"/><path class="cls-5" d="M368.4,345.1l-.8-3.2-2.3-8.7a11.6,11.6,0,0,1-8.4-.1V333l-2,5.8,11.9,6.9a3.55,3.55,0,0,0,.9-.4A2.54,2.54,0,0,0,368.4,345.1Z" transform="translate(-0.5 -0.5)"/><path class="cls-17" d="M348.6,314.8a2.76,2.76,0,0,0,2.6,2.8h.6a10.39,10.39,0,0,1-1.1-5.2A2.56,2.56,0,0,0,348.6,314.8Z" transform="translate(-0.5 -0.5)"/><path class="cls-17" d="M371.3,318.1a2.76,2.76,0,0,0,2.8-2.6,2.79,2.79,0,0,0-2-2.7,13,13,0,0,1-1.4,5.2C370.9,318,371.1,318.1,371.3,318.1Z" transform="translate(-0.5 -0.5)"/><path class="cls-12" d="M346.5,326.7a1.21,1.21,0,0,0-.5-.5,2,2,0,0,1-.9-.9.22.22,0,0,0-.2-.2h0c-.2-.1-.3,0-.4.2a2.77,2.77,0,0,0,.1.9,1.7,1.7,0,0,1-.7-.1,1.7,1.7,0,0,0-1,0c-.3.1-.1.6.6.9h-.8c-.4-.1-.5.4-.3.9a1.69,1.69,0,0,0,1,.3c-.1.2-.3.2-.5.3s-.3.6.2.7a4.73,4.73,0,0,0,1.7-.1,6.75,6.75,0,0,1,1.4-.2,28.12,28.12,0,0,0,5.8.1,18.61,18.61,0,0,0,4.1-.8l-.3-2.1A24,24,0,0,1,346.5,326.7Z" transform="translate(-0.5 -0.5)"/><path class="cls-12" d="M369.8,328.9a28.16,28.16,0,0,0,5.8.2,3.53,3.53,0,0,1,1.4.3c.2.1.5.1.8.2h1a.39.39,0,0,0,.2-.7l-.2-.1-.3-.1h.5c.2,0,.3-.1.4-.1.3-.1.4-.3.3-.5a.37.37,0,0,0-.3-.1,2.2,2.2,0,0,1-.8-.1c.7-.2.9-.7.7-.9s-.5-.1-1,0a1.7,1.7,0,0,1-.7.1,2.77,2.77,0,0,0,.1-.9.54.54,0,0,0-.4-.3.22.22,0,0,0-.2.2,2,2,0,0,1-1,.8,2.09,2.09,0,0,0-.6.4,21.55,21.55,0,0,1-9.1-1.1l-.3,2A22,22,0,0,0,369.8,328.9Z" transform="translate(-0.5 -0.5)"/><path class="cls-6" d="M365.3,333.3h0l.8-5.2.3-2v-.2l-3.6-1.1h-.1v.8c-.3,1-2.8,1-2.9-.1v-.7l-3.7,1v.3l.3,2.1.6,5.1v.1A12.46,12.46,0,0,0,365.3,333.3Z" transform="translate(-0.5 -0.5)"/><path class="cls-28" d="M365.3,333.3h0l.8-5.2.3-2v-.2l-3.6-1.1h-.1v.8c-.3,1-2.8,1-2.9-.1v-.7l-3.7,1v.3l.3,2.1.6,5.1v.1A12.46,12.46,0,0,0,365.3,333.3Z" transform="translate(-0.5 -0.5)"/><path class="cls-17" d="M362.6,325.5v-1.9a7.57,7.57,0,0,1-1.5.1,7.72,7.72,0,0,1-1.5-.2v1.9C359.8,326.6,362.3,326.5,362.6,325.5Z" transform="translate(-0.5 -0.5)"/><path class="cls-12" d="M362.6,323.6a10.64,10.64,0,0,0,8.1-5.6,12.53,12.53,0,0,0,1.4-5.2h0c-.5-.1-9.6-1.4-10.5-8.1-1.4,6.9-10.9,7.5-10.9,7.5v.1a12.4,12.4,0,0,0,1.1,5.2,10.76,10.76,0,0,0,7.8,6.1c.5.1,1,.1,1.5.2C361.6,323.7,362.1,323.7,362.6,323.6Zm6.4-9.2h.3a1.84,1.84,0,1,1-2.2,1.4v-.2A1.66,1.66,0,0,1,369,314.4Zm-3.1-1.1a1.4,1.4,0,1,1,1.4,1.4,1.37,1.37,0,0,1-1.4-1.4Zm-11.8,4.3a1.82,1.82,0,0,1-.6-3.6h.3a1.58,1.58,0,0,1,1.7,1.5A1.74,1.74,0,0,1,354.1,317.6Zm2.8-4.5a1.4,1.4,0,1,1-1.4-1.4,1.4,1.4,0,0,1,1.4,1.2Zm.6,4.5c-.1-.3.1-.4.3-.5s.4.1.5.3a3.43,3.43,0,0,0,4.6,1.4,3.74,3.74,0,0,0,1.3-1.2.41.41,0,0,1,.8.2,4.07,4.07,0,0,1-3.9,2.3h-.5A4.32,4.32,0,0,1,357.5,317.6Z" transform="translate(-0.5 -0.5)"/><path class="cls-14" d="M355.6,311.7a1.4,1.4,0,1,0,1.4,1.4V313A1.34,1.34,0,0,0,355.6,311.7Z" transform="translate(-0.5 -0.5)"/><path class="cls-17" d="M353.8,314h-.3a1.82,1.82,0,0,0,.6,3.6,1.83,1.83,0,0,0,1.5-2.1A1.75,1.75,0,0,0,353.8,314Z" transform="translate(-0.5 -0.5)"/><path class="cls-14" d="M367.3,314.7a1.4,1.4,0,1,0-1.4-1.4h0A1.37,1.37,0,0,0,367.3,314.7Z" transform="translate(-0.5 -0.5)"/><path class="cls-17" d="M367.2,315.6v.2a1.84,1.84,0,1,0,2.2-1.4H369A1.51,1.51,0,0,0,367.2,315.6Z" transform="translate(-0.5 -0.5)"/><path class="cls-14" d="M361.3,320a4.07,4.07,0,0,0,3.9-2.3c0-.2-.1-.5-.3-.5s-.5.1-.5.3a3.74,3.74,0,0,1-1.3,1.2,3.34,3.34,0,0,1-4.6-1.4c-.1-.3-.3-.4-.5-.3s-.4.3-.3.5a3.67,3.67,0,0,0,3.2,2.4Z" transform="translate(-0.5 -0.5)"/><path class="cls-14" d="M350.7,307.1a8.52,8.52,0,0,0,0,5v.1s9.5-.6,10.9-7.5c.9,6.8,10.1,8.1,10.5,8.1h0a13.39,13.39,0,0,0-.1-5.3,2.61,2.61,0,0,0,3-.3,5.27,5.27,0,0,0,1-7.4,5.14,5.14,0,0,0-7.3-1,2.36,2.36,0,0,0-1.2,2.3,11.14,11.14,0,0,0-6-1.6H361a10.72,10.72,0,0,0-5.1,1.3,2.69,2.69,0,0,0-1.1-2.4,5.33,5.33,0,0,0-6.8,8.2,1.38,1.38,0,0,0,.4.3A3.15,3.15,0,0,0,350.7,307.1Z" transform="translate(-0.5 -0.5)"/><polygon class="cls-6" points="390.7 374.4 380.4 353.5 380.4 413.2 437.4 380.2 437.4 377.7 437.4 370.7 437.4 347.5 390.7 374.4"/><polygon class="cls-23" points="390.7 374.4 380.4 353.5 380.4 413.2 437.4 380.2 437.4 377.7 437.4 370.7 437.4 347.5 390.7 374.4"/><polygon class="cls-6" points="393.3 369.9 380.4 353.5 390.7 374.4 437.4 347.5 437.4 344.5 393.3 369.9"/><polygon class="cls-23" points="393.3 369.9 380.4 353.5 390.7 374.4 437.4 347.5 437.4 344.5 393.3 369.9"/><polygon class="cls-23" points="393.3 369.9 380.4 353.5 390.7 374.4 437.4 347.5 437.4 344.5 393.3 369.9"/><polygon class="cls-6" points="380.4 353.5 370 374.4 323.2 347.5 323.2 367 340 376.7 340 376.7 353.8 395.3 351.6 396.6 380.4 413.2 380.4 353.5"/><polygon class="cls-6" points="370 374.4 380.4 353.5 380.4 353.5 367.4 369.9 323.2 344.4 323.2 347.5 370 374.4"/><polygon class="cls-23" points="370 374.4 380.4 353.5 380.4 353.5 367.4 369.9 323.2 344.4 323.2 347.5 370 374.4"/><polygon class="cls-6" points="367.4 369.9 380.4 353.5 380.4 353.5 368.7 346.8 366.3 345.3 354.3 338.4 323.2 320.5 310.3 337 323.2 344.4 367.4 369.9"/><polygon class="cls-24" points="367.4 369.9 380.4 353.5 380.4 353.5 368.7 346.8 366.3 345.3 354.3 338.4 323.2 320.5 310.3 337 323.2 344.4 367.4 369.9"/><polygon class="cls-6" points="437.7 321 437.4 320.5 416.5 332.6 408.3 337.3 406.4 338.4 399.5 342.4 385.9 350.3 382.4 352.3 381.4 352.9 380.4 353.5 393.3 369.9 437.4 344.5 440.1 343 450.4 337 437.7 321"/><polygon class="cls-29" points="437.7 321 437.4 320.5 416.5 332.6 408.3 337.3 406.4 338.4 399.5 342.4 385.9 350.3 382.4 352.3 381.4 352.9 380.4 353.5 393.3 369.9 437.4 344.5 440.1 343 450.4 337 437.7 321"/><path class="cls-6" d="M323.7,367.5l-48.6-28.1v8.1l38.5,22.2a6.56,6.56,0,0,1,3.1,5.2,1.92,1.92,0,0,1-.9,1.8l-.8.5,1.7,1v5.5a2.44,2.44,0,0,1-1.2,2.1l-.5.2a6.58,6.58,0,0,1,1.7,4,1.8,1.8,0,0,1-.2,1l23.9-13.8h0Z" transform="translate(-0.5 -0.5)"/><path class="cls-30" d="M323.7,367.5l-48.6-28.1v8.1l38.5,22.2a6.56,6.56,0,0,1,3.1,5.2,1.92,1.92,0,0,1-.9,1.8l-.8.5,1.7,1v5.5a2.44,2.44,0,0,1-1.2,2.1l-.5.2a6.58,6.58,0,0,1,1.7,4,1.8,1.8,0,0,1-.2,1l23.9-13.8h0Z" transform="translate(-0.5 -0.5)"/><path class="cls-23" d="M323.7,367.5l-48.6-28.1v8.1l38.5,22.2a6.56,6.56,0,0,1,3.1,5.2,1.92,1.92,0,0,1-.9,1.8l-.8.5,1.7,1v5.5a2.44,2.44,0,0,1-1.2,2.1l-.5.2a6.58,6.58,0,0,1,1.7,4,1.8,1.8,0,0,1-.2,1l23.9-13.8h0Z" transform="translate(-0.5 -0.5)"/><path class="cls-3" d="M209.7,420.8Z" transform="translate(-0.5 -0.5)"/><path class="cls-4" d="M209.7,420.8Z" transform="translate(-0.5 -0.5)"/><path class="cls-23" d="M209.7,420.8Z" transform="translate(-0.5 -0.5)"/><path class="cls-6" d="M232.7,387.8v-2.3l1.3-.7-.4-.2a2.14,2.14,0,0,1-.9-1.8,6.78,6.78,0,0,1,2.1-4.4l-.8-.5a2.25,2.25,0,0,1-1.2-2.1v-5.5l41.1-23.7,1.3.8v-8.1l-27.3,15.8-16.3,9.4-21.9,12.6,23.1,13.3v-2.6Z" transform="translate(-0.5 -0.5)"/><path class="cls-30" d="M232.7,387.8v-2.3l1.3-.7-.4-.2a2.14,2.14,0,0,1-.9-1.8,6.78,6.78,0,0,1,2.1-4.4l-.8-.5a2.25,2.25,0,0,1-1.2-2.1v-5.5l41.1-23.7,1.3.8v-8.1l-27.3,15.8-16.3,9.4-21.9,12.6,23.1,13.3v-2.6Z" transform="translate(-0.5 -0.5)"/><path class="cls-23" d="M232.7,387.8v-2.3l1.3-.7-.4-.2a2.14,2.14,0,0,1-.9-1.8,6.78,6.78,0,0,1,2.1-4.4l-.8-.5a2.25,2.25,0,0,1-1.2-2.1v-5.5l41.1-23.7,1.3.8v-8.1l-27.3,15.8-16.3,9.4-21.9,12.6,23.1,13.3v-2.6Z" transform="translate(-0.5 -0.5)"/><path class="cls-23" d="M232.7,387.8v-2.3l1.3-.7-.4-.2a2.14,2.14,0,0,1-.9-1.8,6.78,6.78,0,0,1,2.1-4.4l-.8-.5a2.25,2.25,0,0,1-1.2-2.1v-5.5l41.1-23.7,1.3.8v-8.1l-27.3,15.8-16.3,9.4-21.9,12.6,23.1,13.3v-2.6Z" transform="translate(-0.5 -0.5)"/><polygon class="cls-6" points="232.2 389.5 232.2 390 232.3 390 232.3 389.6 232.2 389.5"/><path class="cls-6" d="M275.8,413.8a7.43,7.43,0,0,0-3.2-5.2l-39.8-23v2.2l38,22a2.06,2.06,0,0,1,1,1.7c0,.6-.4.9-1,.5l-38-22v.5l42.3,24.4.6-.3A2.2,2.2,0,0,0,275.8,413.8Z" transform="translate(-0.5 -0.5)"/><path class="cls-22" d="M275.8,413.8a7.43,7.43,0,0,0-3.2-5.2l-39.8-23v2.2l38,22a2.06,2.06,0,0,1,1,1.7c0,.6-.4.9-1,.5l-38-22v.5l42.3,24.4.6-.3A2.2,2.2,0,0,0,275.8,413.8Z" transform="translate(-0.5 -0.5)"/><polygon class="cls-6" points="232.2 389.5 232.3 389.6 232.3 387.3 232.2 387.3 232.2 389.5"/><polygon class="cls-22" points="232.2 389.5 232.3 389.6 232.3 387.3 232.2 387.3 232.2 389.5"/><path class="cls-6" d="M270.8,412c.6.3,1,.1,1-.5a2.33,2.33,0,0,0-1-1.7l-38-22v2.3Z" transform="translate(-0.5 -0.5)"/><path class="cls-22" d="M270.8,412c.6.3,1,.1,1-.5a2.33,2.33,0,0,0-1-1.7l-38-22v2.3Z" transform="translate(-0.5 -0.5)"/><path class="cls-22" d="M270.8,412c.6.3,1,.1,1-.5a2.33,2.33,0,0,0-1-1.7l-38-22v2.3Z" transform="translate(-0.5 -0.5)"/><polygon class="cls-6" points="316.2 377.7 316.2 380 316.2 380 316.2 377.7 314.5 376.7 314.5 376.7 316.2 377.7"/><path class="cls-6" d="M316.7,383.6a2.44,2.44,0,0,1-1.2,2.1L276.9,408a2.34,2.34,0,0,1-2.3.3L234,384.8l-1.3.7v2.3h.1v-2.2l39.8,23a7.12,7.12,0,0,1,3.2,5.2,2,2,0,0,1-.1.8L316.6,391a3,3,0,0,0,.2-1,6.58,6.58,0,0,0-1.7-4l.5-.3a2.36,2.36,0,0,0,1.1-2.1v-.9h0Z" transform="translate(-0.5 -0.5)"/><path class="cls-16" d="M274.6,408.2a2.41,2.41,0,0,0,2.3-.3l38.7-22.3L276.9,408c-1.7,1-3.1.3-3.1-1.6a6.56,6.56,0,0,1,3.1-5.2l39.9-23-1.7-1-39.9,23a4.88,4.88,0,0,1-.7.3,2.32,2.32,0,0,1-1.8-.4l-37.8-21.8a7,7,0,0,0-2.1,4.4,1.92,1.92,0,0,0,.9,1.8l.4.2Z" transform="translate(-0.5 -0.5)"/><path class="cls-16" d="M276.9,401.2a6.56,6.56,0,0,0-3.1,5.2c0,1.8,1.4,2.5,3.1,1.6l38.7-22.3a2.25,2.25,0,0,0,1.2-2.1v-.9l-38,21.9c-.6.3-1,.1-1-.5a2.33,2.33,0,0,1,1-1.7l38-21.9v-2.3Z" transform="translate(-0.5 -0.5)"/><path class="cls-22" d="M276.9,401.2a6.56,6.56,0,0,0-3.1,5.2c0,1.8,1.4,2.5,3.1,1.6l38.7-22.3a2.25,2.25,0,0,0,1.2-2.1v-.9l-38,21.9c-.6.3-1,.1-1-.5a2.33,2.33,0,0,1,1-1.7l38-21.9v-2.3Z" transform="translate(-0.5 -0.5)"/><polygon class="cls-6" points="315.71 380.15 315.71 380.15 316.83 382.15 316.83 382.15 315.71 380.15"/><polygon class="cls-22" points="315.71 380.15 315.71 380.15 316.83 382.15 316.83 382.15 315.71 380.15"/><path class="cls-16" d="M278.7,402.4a2.06,2.06,0,0,0-1,1.7c0,.6.4.9,1,.5l38-21.9v-2.3Z" transform="translate(-0.5 -0.5)"/><path class="cls-22" d="M278.7,402.4a2.06,2.06,0,0,0-1,1.7c0,.6.4.9,1,.5l38-21.9v-2.3Z" transform="translate(-0.5 -0.5)"/><path class="cls-22" d="M278.7,402.4a2.06,2.06,0,0,0-1,1.7c0,.6.4.9,1,.5l38-21.9v-2.3Z" transform="translate(-0.5 -0.5)"/><path class="cls-5" d="M232.7,370.4v2.3h.1l-.1-2.3,39.9,23a7.12,7.12,0,0,1,3.2,5.2,2.09,2.09,0,0,1-.7,1.7l39.9-23h0l.8-.5a2.14,2.14,0,0,0,.9-1.8,6.56,6.56,0,0,0-3.1-5.2l-38.5-22.2-1.3-.8Z" transform="translate(-0.5 -0.5)"/><path class="cls-5" d="M272.6,400.2a2.32,2.32,0,0,0,1.8.4,4.54,4.54,0,0,1-1.8-.4L234,377.9a2.25,2.25,0,0,1-1.2-2.1V375h-.1v.9a2.44,2.44,0,0,0,1.2,2.1l.8.5Z" transform="translate(-0.5 -0.5)"/><path class="cls-14" d="M270.8,394.6a2.06,2.06,0,0,1,1,1.7c0,.6-.4.9-1,.5l-38-21.9v.8a2.44,2.44,0,0,0,1.2,2.1l38.7,22.3a2.83,2.83,0,0,0,1.7.4.91.91,0,0,0,.7-.3,1.83,1.83,0,0,0,.7-1.7,7.43,7.43,0,0,0-3.2-5.2l-39.8-23v2.3Z" transform="translate(-0.5 -0.5)"/><path class="cls-18" d="M270.8,396.9c.6.3,1,.1,1-.5a2.33,2.33,0,0,0-1-1.7l-38-21.9h-.1v2.3h.1Z" transform="translate(-0.5 -0.5)"/><polygon class="cls-6" points="340 415.9 340 403.3 340 403.3 340 404.3 299.6 427.5 327.5 427.5 340 420.3 340 415.9"/><polygon class="cls-28" points="340 415.9 340 403.3 340 403.3 340 404.3 299.6 427.5 327.5 427.5 340 420.3 340 415.9"/><polygon class="cls-6" points="274.6 414.4 274.6 427.5 282.1 427.5 274.6 414.4"/><polygon class="cls-28" points="274.6 414.4 274.6 427.5 282.1 427.5 274.6 414.4"/><polygon class="cls-6" points="316.1 390.5 316.1 390.5 340 376.7 340 376.7 316.1 390.5"/><polygon class="cls-30" points="316.1 390.5 316.1 390.5 340 376.7 340 376.7 316.1 390.5"/><polygon class="cls-23" points="316.1 390.5 316.1 390.5 340 376.7 340 376.7 316.1 390.5"/><polygon class="cls-23" points="316.1 390.5 316.1 390.5 340 376.7 340 376.7 316.1 390.5"/><polygon class="cls-6" points="275.2 414.1 275.2 414.1 316.1 390.5 316.1 390.5 275.2 414.1"/><polygon class="cls-23" points="275.2 414.1 275.2 414.1 316.1 390.5 316.1 390.5 275.2 414.1"/><polygon class="cls-6" points="274.6 414.4 275.2 414.1 275.2 414.1 274.6 414.4"/><polygon class="cls-22" points="274.6 414.4 275.2 414.1 275.2 414.1 274.6 414.4"/><polygon class="cls-23" points="274.6 414.4 275.2 414.1 275.2 414.1 274.6 414.4"/><polygon class="cls-6" points="340 404.3 340 403.3 330.1 408.9 329.9 409.5 329.3 409.4 297.9 427.5 299.6 427.5 340 404.3"/><polygon class="cls-28" points="340 404.3 340 403.3 330.1 408.9 329.9 409.5 329.3 409.4 297.9 427.5 299.6 427.5 340 404.3"/><polygon class="cls-23" points="340 404.3 340 403.3 330.1 408.9 329.9 409.5 329.3 409.4 297.9 427.5 299.6 427.5 340 404.3"/><polygon class="cls-6" points="274.6 414.4 282.1 427.5 284.3 427.5 274.6 414.4"/><polygon class="cls-28" points="274.6 414.4 282.1 427.5 284.3 427.5 274.6 414.4"/><polygon class="cls-23" points="274.6 414.4 282.1 427.5 284.3 427.5 274.6 414.4"/><polygon class="cls-6" points="329.9 409.5 330.1 408.9 329.3 409.4 329.9 409.5"/><polygon class="cls-31" points="329.9 409.5 330.1 408.9 329.3 409.4 329.9 409.5"/><polygon class="cls-23" points="329.9 409.5 330.1 408.9 329.3 409.4 329.9 409.5"/><polygon class="cls-6" points="209.2 407.5 209.2 416.1 209.2 420.3 209.2 420.3 221.7 427.5 243.8 427.5 209.2 407.5"/><polygon class="cls-30" points="209.2 407.5 209.2 416.1 209.2 420.3 209.2 420.3 221.7 427.5 243.8 427.5 209.2 407.5"/><polygon class="cls-6" points="274.6 414.4 268.1 427.5 274.6 427.5 274.6 414.4"/><polygon class="cls-30" points="274.6 414.4 268.1 427.5 274.6 427.5 274.6 414.4"/><polygon class="cls-6" points="209.2 404.1 209.2 405.7 209.2 407.5 243.8 427.5 249.8 427.5 209.2 404.1"/><polygon class="cls-30" points="209.2 404.1 209.2 405.7 209.2 407.5 243.8 427.5 249.8 427.5 209.2 404.1"/><polygon class="cls-23" points="209.2 404.1 209.2 405.7 209.2 407.5 243.8 427.5 249.8 427.5 209.2 404.1"/><polygon class="cls-6" points="274.6 414.4 264.3 427.5 268.1 427.5 274.6 414.4"/><polygon class="cls-30" points="274.6 414.4 264.3 427.5 268.1 427.5 274.6 414.4"/><polygon class="cls-23" points="274.6 414.4 264.3 427.5 268.1 427.5 274.6 414.4"/><polygon class="cls-6" points="274.6 414.4 232.3 390 232.2 390 209.2 376.7 209 376.9 207.1 379.3 194.4 395.6 205.2 401.8 209.2 404.1 249.8 427.5 264.3 427.5 274.6 414.4"/><polygon class="cls-28" points="274.6 414.4 232.3 390 232.2 390 209.2 376.7 209 376.9 207.1 379.3 194.4 395.6 205.2 401.8 209.2 404.1 249.8 427.5 264.3 427.5 274.6 414.4"/><polygon class="cls-6" points="329.3 409.4 330.1 408.9 340 403.3 340 403.3 346.6 399.5 351.6 396.6 353.8 395.3 340 376.7 340 376.7 340 376.7 316.1 390.5 275.2 414.1 274.6 414.4 284.3 427.5 297.9 427.5 329.3 409.4"/><polygon class="cls-30" points="329.3 409.4 330.1 408.9 340 403.3 340 403.3 346.6 399.5 351.6 396.6 353.8 395.3 340 376.7 340 376.7 340 376.7 316.1 390.5 275.2 414.1 274.6 414.4 284.3 427.5 297.9 427.5 329.3 409.4"/><path class="cls-32" d="M186,40H402a41.06,41.06,0,0,1,41,41h0a41.06,41.06,0,0,1-41,41H186a41.06,41.06,0,0,1-41-41h0A41.06,41.06,0,0,1,186,40Z" transform="translate(-0.5 -0.5)"/><path class="cls-32" d="M239,122v24.6L263.6,122Z" transform="translate(-0.5 -0.5)"/><g class="cls-33"><path class="cls-5" d="M220.8,68.2V99h-7.1V74H199.8V99h-7.1V68.2Z" transform="translate(-0.5 -0.5)"/><path class="cls-5" d="M234.5,97.5a15.47,15.47,0,0,1-8.2-13.9,15.52,15.52,0,0,1,2.2-8.2,16.41,16.41,0,0,1,6-5.7,17.66,17.66,0,0,1,8.6-2.1,17.39,17.39,0,0,1,8.6,2.1,15.47,15.47,0,0,1,8.2,13.9,15.47,15.47,0,0,1-8.2,13.9,17.66,17.66,0,0,1-8.6,2.1A20.57,20.57,0,0,1,234.5,97.5Zm13.6-5.3a9.06,9.06,0,0,0,3.5-3.5,10.72,10.72,0,0,0,1.3-5.1,9.69,9.69,0,0,0-1.3-5.1,8.44,8.44,0,0,0-3.5-3.5,10.23,10.23,0,0,0-4.9-1.3,9.63,9.63,0,0,0-8.4,4.8,10.65,10.65,0,0,0,0,10.2,9.06,9.06,0,0,0,3.5,3.5,9.88,9.88,0,0,0,9.8,0Z" transform="translate(-0.5 -0.5)"/><path class="cls-5" d="M293.6,99V80.6l-9.1,15.2h-3.2L272.2,81V99h-6.7V68.2h5.9l11.5,19.1,11.4-19.1h5.9V99Z" transform="translate(-0.5 -0.5)"/><path class="cls-5" d="M314,97.5a15.47,15.47,0,0,1-8.2-13.9,15.52,15.52,0,0,1,2.2-8.2,16.41,16.41,0,0,1,6-5.7,18.66,18.66,0,0,1,17.2,0,15.67,15.67,0,0,1,6,5.7,15,15,0,0,1,2.2,8.2,15.47,15.47,0,0,1-8.2,13.9,17.66,17.66,0,0,1-8.6,2.1A19.84,19.84,0,0,1,314,97.5Zm13.5-5.3a9.06,9.06,0,0,0,3.5-3.5,10.65,10.65,0,0,0,0-10.2,9.06,9.06,0,0,0-3.5-3.5,10.23,10.23,0,0,0-4.9-1.3,9.63,9.63,0,0,0-8.4,4.8,10.65,10.65,0,0,0,0,10.2,9.06,9.06,0,0,0,3.5,3.5,10.23,10.23,0,0,0,4.9,1.3A9.94,9.94,0,0,0,327.5,92.2Z" transform="translate(-0.5 -0.5)"/><path class="cls-5" d="M366.6,74H352V99h-7V68.2h21.7Z" transform="translate(-0.5 -0.5)"/><path class="cls-5" d="M398.8,68.2,385.7,92.6a15.11,15.11,0,0,1-4.6,5.3,10.19,10.19,0,0,1-5.8,1.8,13.3,13.3,0,0,1-5-1.1l1.7-5.4a10.42,10.42,0,0,0,3.1.6,4.75,4.75,0,0,0,2.4-.6,6.13,6.13,0,0,0,1.9-2l.3-.4L367.6,68.2h7.6l8.2,16.5,8.4-16.5Z" transform="translate(-0.5 -0.5)"/></g></g></svg>