<svg width="30" height="28" viewBox="0 0 30 28" fill="none" xmlns="http://www.w3.org/2000/svg">
<path d="M29.5072 25.1383L23.8423 19.907C25.67 17.7503 26.6618 15.0871 26.6581 12.3454C26.6581 9.90372 25.8763 7.51686 24.4117 5.48667C22.9471 3.45648 20.8654 1.87414 18.4298 0.939743C15.9943 0.00534903 13.3143 -0.239131 10.7287 0.237219C8.1431 0.713569 5.76809 1.88935 3.90399 3.61589C2.03989 5.34243 0.770423 7.54217 0.25612 9.93694C-0.258184 12.3317 0.00577522 14.814 1.01462 17.0698C2.02346 19.3256 3.73188 21.2537 5.92383 22.6102C8.11578 23.9668 10.6928 24.6908 13.329 24.6908C16.2892 24.6942 19.1646 23.7757 21.4931 22.0828L27.1413 27.3296C27.2961 27.4743 27.4804 27.5891 27.6835 27.6674C27.8865 27.7458 28.1043 27.7861 28.3242 27.7861C28.5442 27.7861 28.7619 27.7458 28.965 27.6674C29.168 27.5891 29.3523 27.4743 29.5072 27.3296C29.6633 27.1862 29.7873 27.0155 29.8719 26.8275C29.9565 26.6394 30 26.4377 30 26.234C30 26.0303 29.9565 25.8286 29.8719 25.6405C29.7873 25.4525 29.6633 25.2818 29.5072 25.1383ZM3.33227 12.3454C3.33227 10.5141 3.91857 8.724 5.01703 7.20135C6.11549 5.67871 7.67677 4.49195 9.50344 3.79116C11.3301 3.09036 13.3401 2.907 15.2793 3.26427C17.2185 3.62153 18.9998 4.50337 20.3978 5.79827C21.7959 7.09317 22.748 8.74298 23.1337 10.5391C23.5195 12.3351 23.3215 14.1968 22.5649 15.8887C21.8082 17.5806 20.5269 19.0266 18.883 20.044C17.239 21.0614 15.3062 21.6045 13.329 21.6045C10.6777 21.6045 8.13501 20.629 6.26025 18.8925C4.38549 17.1561 3.33227 14.8011 3.33227 12.3454Z" fill="#ED1C24"/>
</svg>
