<svg width="31" height="31" viewBox="0 0 31 31" fill="none" xmlns="http://www.w3.org/2000/svg">
<path fill-rule="evenodd" clip-rule="evenodd" d="M21.1364 11.2727C21.1364 12.7676 20.5425 14.2012 19.4855 15.2582C18.4285 16.3153 16.9949 16.9091 15.5 16.9091C14.0052 16.9091 12.5715 16.3153 11.5145 15.2582C10.4575 14.2012 9.86365 12.7676 9.86365 11.2727C9.86365 9.77786 10.4575 8.34423 11.5145 7.28721C12.5715 6.23018 14.0052 5.63635 15.5 5.63635C16.9949 5.63635 18.4285 6.23018 19.4855 7.28721C20.5425 8.34423 21.1364 9.77786 21.1364 11.2727ZM18.3182 11.2727C18.3182 12.0201 18.0213 12.737 17.4928 13.2655C16.9643 13.794 16.2474 14.0909 15.5 14.0909C14.7526 14.0909 14.0358 13.794 13.5073 13.2655C12.9787 12.737 12.6818 12.0201 12.6818 11.2727C12.6818 10.5253 12.9787 9.80847 13.5073 9.27996C14.0358 8.75145 14.7526 8.45453 15.5 8.45453C16.2474 8.45453 16.9643 8.75145 17.4928 9.27996C18.0213 9.80847 18.3182 10.5253 18.3182 11.2727Z" fill="black"/>
<path fill-rule="evenodd" clip-rule="evenodd" d="M15.5 0C6.93977 0 0 6.93977 0 15.5C0 24.0602 6.93977 31 15.5 31C24.0602 31 31 24.0602 31 15.5C31 6.93977 24.0602 0 15.5 0ZM2.81818 15.5C2.81818 18.445 3.82286 21.1561 5.50673 23.3092C6.68928 21.7562 8.21486 20.4977 9.96429 19.6319C11.7137 18.7661 13.6396 18.3165 15.5916 18.3182C17.5183 18.3164 19.42 18.7543 21.1518 19.5987C22.8836 20.4431 24.3998 21.6717 25.5849 23.1908C26.8058 21.5895 27.6278 19.7205 27.983 17.7385C28.3382 15.7564 28.2162 13.7183 27.6273 11.7927C27.0384 9.86707 25.9994 8.10939 24.5964 6.66505C23.1933 5.22072 21.4664 4.13126 19.5587 3.48681C17.651 2.84236 15.6172 2.66145 13.6257 2.95905C11.6342 3.25665 9.74216 4.02421 8.10617 5.19821C6.47019 6.37221 5.13728 7.91891 4.21773 9.71032C3.29818 11.5017 2.81844 13.4864 2.81818 15.5ZM15.5 28.1818C12.5887 28.1862 9.76538 27.1847 7.50764 25.3467C8.4164 24.0458 9.62598 22.9836 11.0335 22.2505C12.4409 21.5175 14.0047 21.1352 15.5916 21.1364C17.1587 21.1351 18.7036 21.5078 20.0978 22.2234C21.492 22.939 22.6953 23.9769 23.6079 25.2509C21.3326 27.1485 18.4627 28.186 15.5 28.1818Z" fill="black"/>
</svg>
