<svg width="23" height="22" viewBox="0 0 23 22" fill="none" xmlns="http://www.w3.org/2000/svg">
<path fill-rule="evenodd" clip-rule="evenodd" d="M2.59239 0.702885C2.83292 0.462324 3.12185 0.275659 3.44002 0.155272C3.7582 0.034886 4.09833 -0.0164697 4.43786 0.00461227C4.77739 0.0256942 5.10856 0.118732 5.40939 0.277553C5.71023 0.436375 5.97385 0.657349 6.18278 0.925818L8.64824 4.09674C9.10144 4.67754 9.2613 5.43581 9.08237 6.15007L8.32997 9.16113C8.29084 9.31737 8.29284 9.48108 8.33576 9.63633C8.37868 9.79157 8.46107 9.93305 8.57491 10.047L11.9541 13.4247C12.068 13.5386 12.2095 13.6209 12.3648 13.6639C12.52 13.7068 12.6837 13.7088 12.84 13.6697L15.8496 12.9173C16.2026 12.8291 16.571 12.8224 16.927 12.8976C17.283 12.9728 17.6172 13.128 17.9044 13.3514L21.0753 15.8169C22.2149 16.7027 22.3205 18.3879 21.2997 19.4072L19.877 20.8299C18.8606 21.8463 17.3397 22.2936 15.9214 21.795C12.2935 20.518 8.99958 18.4407 6.28398 15.7171C3.55986 13.0017 1.48204 9.70774 0.204657 6.07967C-0.294009 4.66141 0.153324 3.14048 1.16972 2.12262L2.59239 0.701418V0.702885Z" fill="#ED1C24"/>
</svg>
