<svg xmlns="http://www.w3.org/2000/svg" width="44" height="38" viewBox="0 0 44 38"><defs><style>.a,.f{fill:#fff;}.a{stroke:#707070;stroke-width:2px;}.b{fill:#707070;}.c{fill:#1875f0;}.d,.f{stroke:none;}.e{fill:none;}</style></defs><g transform="translate(-852 -483)"><g transform="translate(140)"><g class="a" transform="translate(714 485)"><circle class="d" cx="16" cy="16" r="16"/><circle class="e" cx="16" cy="16" r="17"/></g><path class="b" d="M7.56-14a6.486,6.486,0,0,1,4.28,1.3A4.409,4.409,0,0,1,13.4-9.12a4.409,4.409,0,0,1-1.56,3.58,6.486,6.486,0,0,1-4.28,1.3H4.1V0h-2V-14ZM7.5-5.98a4.514,4.514,0,0,0,2.9-.81,2.825,2.825,0,0,0,1-2.33,2.825,2.825,0,0,0-1-2.33,4.514,4.514,0,0,0-2.9-.81H4.1v6.28Z" transform="translate(723 508)"/></g><g class="c" transform="translate(-345 128)"><path class="d" d="M 1240.000366210938 391.9996032714844 L 1239.000366210938 391.9996032714844 L 1223.000122070313 391.9996032714844 L 1222.000122070313 391.9996032714844 L 1222.000122070313 390.9996032714844 L 1222.000122070313 377.0001220703125 L 1222.000122070313 375.0003051757813 L 1222.000122070313 374.0003051757813 L 1223.000122070313 374.0003051757813 L 1239.000366210938 374.0003051757813 L 1240.000366210938 374.0003051757813 L 1240.000366210938 375.0003051757813 L 1240.000366210938 388.9998168945313 L 1240.000366210938 390.9996032714844 L 1240.000366210938 391.9996032714844 Z M 1233.000122070313 387.9998168945313 L 1235.999633789063 387.9998168945313 L 1235.999633789063 385.0003051757813 L 1234.999877929688 385.0003051757813 L 1233.000122070313 385.0003051757813 L 1233.000122070313 387 L 1233.000122070313 387.9998168945313 Z M 1225.999877929688 387.9998168945313 L 1229.000366210938 387.9998168945313 L 1229.000366210938 387 L 1229.000366210938 385.0003051757813 L 1226.999755859375 385.0003051757813 L 1225.999877929688 385.0003051757813 L 1225.999877929688 387.9998168945313 Z M 1233.000122070313 380.9996032714844 L 1234.999877929688 380.9996032714844 L 1235.999633789063 380.9996032714844 L 1235.999633789063 378.0001220703125 L 1233.000122070313 378.0001220703125 L 1233.000122070313 378.9999084472656 L 1233.000122070313 380.9996032714844 Z M 1225.999877929688 380.9996032714844 L 1226.999755859375 380.9996032714844 L 1229.000366210938 380.9996032714844 L 1229.000366210938 378.9999084472656 L 1229.000366210938 378.0001220703125 L 1225.999877929688 378.0001220703125 L 1225.999877929688 380.9996032714844 Z"/><path class="f" d="M 1239.000366210938 390.9996032714844 L 1239.000366210938 388.9998168945313 L 1239.000366210938 375.0003051757813 L 1223.000122070313 375.0003051757813 L 1223.000122070313 377.0001220703125 L 1223.000122070313 390.9996032714844 L 1239.000366210938 390.9996032714844 M 1224.999877929688 377.0001220703125 L 1236.999633789063 377.0001220703125 L 1236.999633789063 388.9998168945313 L 1224.999877929688 388.9998168945313 L 1224.999877929688 377.0001220703125 M 1232.000122070313 387 L 1232.000122070313 384.0003051757813 L 1234.999877929688 384.0003051757813 L 1234.999877929688 381.9996032714844 L 1232.000122070313 381.9996032714844 L 1232.000122070313 378.9999084472656 L 1230.000366210938 378.9999084472656 L 1230.000366210938 381.9996032714844 L 1226.999755859375 381.9996032714844 L 1226.999755859375 384.0003051757813 L 1230.000366210938 384.0003051757813 L 1230.000366210938 387 L 1232.000122070313 387 M 1241.000366210938 392.9996032714844 L 1239.000366210938 392.9996032714844 L 1223.000122070313 392.9996032714844 L 1221.000122070313 392.9996032714844 L 1221.000122070313 390.9996032714844 L 1221.000122070313 377.0001220703125 L 1221.000122070313 375.0003051757813 L 1221.000122070313 373.0003051757813 L 1223.000122070313 373.0003051757813 L 1239.000366210938 373.0003051757813 L 1241.000366210938 373.0003051757813 L 1241.000366210938 375.0003051757813 L 1241.000366210938 388.9998168945313 L 1241.000366210938 390.9996032714844 L 1241.000366210938 392.9996032714844 Z M 1234.000122070313 386.9998168945313 L 1234.999633789063 386.9998168945313 L 1234.999633789063 386.0003051757813 L 1234.000122070313 386.0003051757813 L 1234.000122070313 386.9998168945313 Z M 1226.999877929688 386.9998168945313 L 1228.000366210938 386.9998168945313 L 1228.000366210938 386.0003051757813 L 1226.999877929688 386.0003051757813 L 1226.999877929688 386.9998168945313 Z M 1234.000122070313 379.9996032714844 L 1234.999633789063 379.9996032714844 L 1234.999633789063 379.0001220703125 L 1234.000122070313 379.0001220703125 L 1234.000122070313 379.9996032714844 Z M 1226.999877929688 379.9996032714844 L 1228.000366210938 379.9996032714844 L 1228.000366210938 379.0001220703125 L 1226.999877929688 379.0001220703125 L 1226.999877929688 379.9996032714844 Z"/></g></g></svg>