<svg xmlns="http://www.w3.org/2000/svg" width="49" height="29" viewBox="0 0 49 29"><defs><style>.a,.e{fill:none;}.a,.b{stroke:#707070;}.a{stroke-width:2px;}.b,.f{fill:#fff;}.c{fill:#1875f0;}.d,.f{stroke:none;}</style></defs><g transform="translate(-710 -378)"><g transform="translate(4 128)"><g class="a" transform="translate(706 254)"><rect class="d" width="40" height="16"/><rect class="e" x="1" y="1" width="38" height="14"/></g><g class="b" transform="translate(713 250)"><rect class="d" width="8" height="2"/><rect class="e" x="0.5" y="0.5" width="7" height="1"/></g><g class="b" transform="translate(713 272)"><rect class="d" width="8" height="2"/><rect class="e" x="0.5" y="0.5" width="7" height="1"/></g><g class="b" transform="translate(718 252) rotate(90)"><rect class="d" width="20" height="2"/><rect class="e" x="0.5" y="0.5" width="19" height="1"/></g></g><g class="c" transform="translate(-482 14)"><path class="d" d="M 1240.000366210938 391.9996032714844 L 1239.000366210938 391.9996032714844 L 1223.000122070313 391.9996032714844 L 1222.000122070313 391.9996032714844 L 1222.000122070313 390.9996032714844 L 1222.000122070313 377.0001220703125 L 1222.000122070313 375.0003051757813 L 1222.000122070313 374.0003051757813 L 1223.000122070313 374.0003051757813 L 1239.000366210938 374.0003051757813 L 1240.000366210938 374.0003051757813 L 1240.000366210938 375.0003051757813 L 1240.000366210938 388.9998168945313 L 1240.000366210938 390.9996032714844 L 1240.000366210938 391.9996032714844 Z M 1233.000122070313 387.9998168945313 L 1235.999633789063 387.9998168945313 L 1235.999633789063 385.0003051757813 L 1234.999877929688 385.0003051757813 L 1233.000122070313 385.0003051757813 L 1233.000122070313 387 L 1233.000122070313 387.9998168945313 Z M 1225.999877929688 387.9998168945313 L 1229.000366210938 387.9998168945313 L 1229.000366210938 387 L 1229.000366210938 385.0003051757813 L 1226.999755859375 385.0003051757813 L 1225.999877929688 385.0003051757813 L 1225.999877929688 387.9998168945313 Z M 1233.000122070313 380.9996032714844 L 1234.999877929688 380.9996032714844 L 1235.999633789063 380.9996032714844 L 1235.999633789063 378.0001220703125 L 1233.000122070313 378.0001220703125 L 1233.000122070313 378.9999084472656 L 1233.000122070313 380.9996032714844 Z M 1225.999877929688 380.9996032714844 L 1226.999755859375 380.9996032714844 L 1229.000366210938 380.9996032714844 L 1229.000366210938 378.9999084472656 L 1229.000366210938 378.0001220703125 L 1225.999877929688 378.0001220703125 L 1225.999877929688 380.9996032714844 Z"/><path class="f" d="M 1239.000366210938 390.9996032714844 L 1239.000366210938 388.9998168945313 L 1239.000366210938 375.0003051757813 L 1223.000122070313 375.0003051757813 L 1223.000122070313 377.0001220703125 L 1223.000122070313 390.9996032714844 L 1239.000366210938 390.9996032714844 M 1224.999877929688 377.0001220703125 L 1236.999633789063 377.0001220703125 L 1236.999633789063 388.9998168945313 L 1224.999877929688 388.9998168945313 L 1224.999877929688 377.0001220703125 M 1232.000122070313 387 L 1232.000122070313 384.0003051757813 L 1234.999877929688 384.0003051757813 L 1234.999877929688 381.9996032714844 L 1232.000122070313 381.9996032714844 L 1232.000122070313 378.9999084472656 L 1230.000366210938 378.9999084472656 L 1230.000366210938 381.9996032714844 L 1226.999755859375 381.9996032714844 L 1226.999755859375 384.0003051757813 L 1230.000366210938 384.0003051757813 L 1230.000366210938 387 L 1232.000122070313 387 M 1241.000366210938 392.9996032714844 L 1239.000366210938 392.9996032714844 L 1223.000122070313 392.9996032714844 L 1221.000122070313 392.9996032714844 L 1221.000122070313 390.9996032714844 L 1221.000122070313 377.0001220703125 L 1221.000122070313 375.0003051757813 L 1221.000122070313 373.0003051757813 L 1223.000122070313 373.0003051757813 L 1239.000366210938 373.0003051757813 L 1241.000366210938 373.0003051757813 L 1241.000366210938 375.0003051757813 L 1241.000366210938 388.9998168945313 L 1241.000366210938 390.9996032714844 L 1241.000366210938 392.9996032714844 Z M 1234.000122070313 386.9998168945313 L 1234.999633789063 386.9998168945313 L 1234.999633789063 386.0003051757813 L 1234.000122070313 386.0003051757813 L 1234.000122070313 386.9998168945313 Z M 1226.999877929688 386.9998168945313 L 1228.000366210938 386.9998168945313 L 1228.000366210938 386.0003051757813 L 1226.999877929688 386.0003051757813 L 1226.999877929688 386.9998168945313 Z M 1234.000122070313 379.9996032714844 L 1234.999633789063 379.9996032714844 L 1234.999633789063 379.0001220703125 L 1234.000122070313 379.0001220703125 L 1234.000122070313 379.9996032714844 Z M 1226.999877929688 379.9996032714844 L 1228.000366210938 379.9996032714844 L 1228.000366210938 379.0001220703125 L 1226.999877929688 379.0001220703125 L 1226.999877929688 379.9996032714844 Z"/></g></g></svg>