<svg xmlns="http://www.w3.org/2000/svg" width="47" height="39" viewBox="0 0 47 39"><defs><style>.a{fill:none;}.b{fill:#1875f0;}.c,.d,.e{stroke:none;}.d{fill:#707070;}.e{fill:#fff;}</style></defs><g transform="translate(-431 -368)"><g class="a" transform="translate(-434 -329.589)"><path class="c" d="M901,725.589v-17H885l-9-9h-9v26Z"/><path class="d" d="M 901 725.5889282226563 L 901 708.5889282226563 L 885 708.5889282226563 L 876 699.5889282226563 L 867 699.5889282226563 L 867 725.5889282226563 L 901 725.5889282226563 M 903 727.5889282226563 L 901 727.5889282226563 L 867 727.5889282226563 L 865 727.5889282226563 L 865 725.5889282226563 L 865 699.5889282226563 L 865 697.5889282226563 L 867 697.5889282226563 L 876 697.5889282226563 L 876.8284301757813 697.5889282226563 L 877.4141845703125 698.1747436523438 L 885.8284301757813 706.5889282226563 L 901 706.5889282226563 L 903 706.5889282226563 L 903 708.5889282226563 L 903 725.5889282226563 L 903 727.5889282226563 Z"/></g><g class="a" transform="translate(0 125)"><path class="c" d="M467,252H452l-3-3h18Z"/><path class="d" d="M 467 252 L 467 249 L 449 249 L 452 252 L 467 252 M 469 254 L 467 254 L 452 254 L 451.1715698242188 254 L 450.5857849121094 253.4142150878906 L 447.5857849121094 250.4142150878906 L 444.1715698242188 247 L 449 247 L 467 247 L 469 247 L 469 249 L 469 252 L 469 254 Z"/></g><g class="b" transform="translate(-763 14)"><path class="c" d="M 1240.000366210938 391.9996032714844 L 1239.000366210938 391.9996032714844 L 1223.000122070313 391.9996032714844 L 1222.000122070313 391.9996032714844 L 1222.000122070313 390.9996032714844 L 1222.000122070313 377.0001220703125 L 1222.000122070313 375.0003051757813 L 1222.000122070313 374.0003051757813 L 1223.000122070313 374.0003051757813 L 1239.000366210938 374.0003051757813 L 1240.000366210938 374.0003051757813 L 1240.000366210938 375.0003051757813 L 1240.000366210938 388.9998168945313 L 1240.000366210938 390.9996032714844 L 1240.000366210938 391.9996032714844 Z M 1233.000122070313 387.9998168945313 L 1235.999633789063 387.9998168945313 L 1235.999633789063 385.0003051757813 L 1234.999877929688 385.0003051757813 L 1233.000122070313 385.0003051757813 L 1233.000122070313 387 L 1233.000122070313 387.9998168945313 Z M 1225.999877929688 387.9998168945313 L 1229.000366210938 387.9998168945313 L 1229.000366210938 387 L 1229.000366210938 385.0003051757813 L 1226.999755859375 385.0003051757813 L 1225.999877929688 385.0003051757813 L 1225.999877929688 387.9998168945313 Z M 1233.000122070313 380.9996032714844 L 1234.999877929688 380.9996032714844 L 1235.999633789063 380.9996032714844 L 1235.999633789063 378.0001220703125 L 1233.000122070313 378.0001220703125 L 1233.000122070313 378.9999084472656 L 1233.000122070313 380.9996032714844 Z M 1225.999877929688 380.9996032714844 L 1226.999755859375 380.9996032714844 L 1229.000366210938 380.9996032714844 L 1229.000366210938 378.9999084472656 L 1229.000366210938 378.0001220703125 L 1225.999877929688 378.0001220703125 L 1225.999877929688 380.9996032714844 Z"/><path class="e" d="M 1239.000366210938 390.9996032714844 L 1239.000366210938 388.9998168945313 L 1239.000366210938 375.0003051757813 L 1223.000122070313 375.0003051757813 L 1223.000122070313 377.0001220703125 L 1223.000122070313 390.9996032714844 L 1239.000366210938 390.9996032714844 M 1224.999877929688 377.0001220703125 L 1236.999633789063 377.0001220703125 L 1236.999633789063 388.9998168945313 L 1224.999877929688 388.9998168945313 L 1224.999877929688 377.0001220703125 M 1232.000122070313 387 L 1232.000122070313 384.0003051757813 L 1234.999877929688 384.0003051757813 L 1234.999877929688 381.9996032714844 L 1232.000122070313 381.9996032714844 L 1232.000122070313 378.9999084472656 L 1230.000366210938 378.9999084472656 L 1230.000366210938 381.9996032714844 L 1226.999755859375 381.9996032714844 L 1226.999755859375 384.0003051757813 L 1230.000366210938 384.0003051757813 L 1230.000366210938 387 L 1232.000122070313 387 M 1241.000366210938 392.9996032714844 L 1239.000366210938 392.9996032714844 L 1223.000122070313 392.9996032714844 L 1221.000122070313 392.9996032714844 L 1221.000122070313 390.9996032714844 L 1221.000122070313 377.0001220703125 L 1221.000122070313 375.0003051757813 L 1221.000122070313 373.0003051757813 L 1223.000122070313 373.0003051757813 L 1239.000366210938 373.0003051757813 L 1241.000366210938 373.0003051757813 L 1241.000366210938 375.0003051757813 L 1241.000366210938 388.9998168945313 L 1241.000366210938 390.9996032714844 L 1241.000366210938 392.9996032714844 Z M 1234.000122070313 386.9998168945313 L 1234.999633789063 386.9998168945313 L 1234.999633789063 386.0003051757813 L 1234.000122070313 386.0003051757813 L 1234.000122070313 386.9998168945313 Z M 1226.999877929688 386.9998168945313 L 1228.000366210938 386.9998168945313 L 1228.000366210938 386.0003051757813 L 1226.999877929688 386.0003051757813 L 1226.999877929688 386.9998168945313 Z M 1234.000122070313 379.9996032714844 L 1234.999633789063 379.9996032714844 L 1234.999633789063 379.0001220703125 L 1234.000122070313 379.0001220703125 L 1234.000122070313 379.9996032714844 Z M 1226.999877929688 379.9996032714844 L 1228.000366210938 379.9996032714844 L 1228.000366210938 379.0001220703125 L 1226.999877929688 379.0001220703125 L 1226.999877929688 379.9996032714844 Z"/></g></g></svg>