<svg xmlns="http://www.w3.org/2000/svg" width="40.001" height="35.001" viewBox="0 0 40.001 35.001"><defs><style>.a{fill:none;stroke:#707070;stroke-width:2px;}.b{fill:#1875f0;}.c,.d{stroke:none;}.d{fill:#fff;}</style></defs><g transform="translate(-856 -371.999)"><g transform="translate(807.701 373)"><g transform="translate(49.299 0)"><path class="a" d="M61.118.008a12.261,12.261,0,0,0-11.6,14.577h0s.019.132.082.384a12.285,12.285,0,0,0,.825,2.432c1.228,2.91,4.069,7.78,10.445,13.078a1.065,1.065,0,0,0,1.361,0c6.375-5.292,9.216-10.161,10.451-13.084a11.765,11.765,0,0,0,.825-2.432c.057-.246.082-.384.082-.384h0A12.263,12.263,0,0,0,61.118.008Zm.435,18.344A5.953,5.953,0,1,1,67.506,12.4,5.952,5.952,0,0,1,61.553,18.352Z" transform="translate(-49.299 0)"/></g></g><g class="b" transform="translate(-345 14)"><path class="c" d="M 1240.000366210938 391.9996032714844 L 1239.000366210938 391.9996032714844 L 1223.000122070313 391.9996032714844 L 1222.000122070313 391.9996032714844 L 1222.000122070313 390.9996032714844 L 1222.000122070313 377.0001220703125 L 1222.000122070313 375.0003051757813 L 1222.000122070313 374.0003051757813 L 1223.000122070313 374.0003051757813 L 1239.000366210938 374.0003051757813 L 1240.000366210938 374.0003051757813 L 1240.000366210938 375.0003051757813 L 1240.000366210938 388.9998168945313 L 1240.000366210938 390.9996032714844 L 1240.000366210938 391.9996032714844 Z M 1233.000122070313 387.9998168945313 L 1235.999633789063 387.9998168945313 L 1235.999633789063 385.0003051757813 L 1234.999877929688 385.0003051757813 L 1233.000122070313 385.0003051757813 L 1233.000122070313 387 L 1233.000122070313 387.9998168945313 Z M 1225.999877929688 387.9998168945313 L 1229.000366210938 387.9998168945313 L 1229.000366210938 387 L 1229.000366210938 385.0003051757813 L 1226.999755859375 385.0003051757813 L 1225.999877929688 385.0003051757813 L 1225.999877929688 387.9998168945313 Z M 1233.000122070313 380.9996032714844 L 1234.999877929688 380.9996032714844 L 1235.999633789063 380.9996032714844 L 1235.999633789063 378.0001220703125 L 1233.000122070313 378.0001220703125 L 1233.000122070313 378.9999084472656 L 1233.000122070313 380.9996032714844 Z M 1225.999877929688 380.9996032714844 L 1226.999755859375 380.9996032714844 L 1229.000366210938 380.9996032714844 L 1229.000366210938 378.9999084472656 L 1229.000366210938 378.0001220703125 L 1225.999877929688 378.0001220703125 L 1225.999877929688 380.9996032714844 Z"/><path class="d" d="M 1239.000366210938 390.9996032714844 L 1239.000366210938 388.9998168945313 L 1239.000366210938 375.0003051757813 L 1223.000122070313 375.0003051757813 L 1223.000122070313 377.0001220703125 L 1223.000122070313 390.9996032714844 L 1239.000366210938 390.9996032714844 M 1224.999877929688 377.0001220703125 L 1236.999633789063 377.0001220703125 L 1236.999633789063 388.9998168945313 L 1224.999877929688 388.9998168945313 L 1224.999877929688 377.0001220703125 M 1232.000122070313 387 L 1232.000122070313 384.0003051757813 L 1234.999877929688 384.0003051757813 L 1234.999877929688 381.9996032714844 L 1232.000122070313 381.9996032714844 L 1232.000122070313 378.9999084472656 L 1230.000366210938 378.9999084472656 L 1230.000366210938 381.9996032714844 L 1226.999755859375 381.9996032714844 L 1226.999755859375 384.0003051757813 L 1230.000366210938 384.0003051757813 L 1230.000366210938 387 L 1232.000122070313 387 M 1241.000366210938 392.9996032714844 L 1239.000366210938 392.9996032714844 L 1223.000122070313 392.9996032714844 L 1221.000122070313 392.9996032714844 L 1221.000122070313 390.9996032714844 L 1221.000122070313 377.0001220703125 L 1221.000122070313 375.0003051757813 L 1221.000122070313 373.0003051757813 L 1223.000122070313 373.0003051757813 L 1239.000366210938 373.0003051757813 L 1241.000366210938 373.0003051757813 L 1241.000366210938 375.0003051757813 L 1241.000366210938 388.9998168945313 L 1241.000366210938 390.9996032714844 L 1241.000366210938 392.9996032714844 Z M 1234.000122070313 386.9998168945313 L 1234.999633789063 386.9998168945313 L 1234.999633789063 386.0003051757813 L 1234.000122070313 386.0003051757813 L 1234.000122070313 386.9998168945313 Z M 1226.999877929688 386.9998168945313 L 1228.000366210938 386.9998168945313 L 1228.000366210938 386.0003051757813 L 1226.999877929688 386.0003051757813 L 1226.999877929688 386.9998168945313 Z M 1234.000122070313 379.9996032714844 L 1234.999633789063 379.9996032714844 L 1234.999633789063 379.0001220703125 L 1234.000122070313 379.0001220703125 L 1234.000122070313 379.9996032714844 Z M 1226.999877929688 379.9996032714844 L 1228.000366210938 379.9996032714844 L 1228.000366210938 379.0001220703125 L 1226.999877929688 379.0001220703125 L 1226.999877929688 379.9996032714844 Z"/></g></g></svg>