<svg xmlns="http://www.w3.org/2000/svg" width="45.921" height="46.369" viewBox="0 0 45.921 46.369"><defs><style>.a,.b,.g{fill:none;}.b,.c{stroke:#707070;stroke-width:2px;}.c,.h{fill:#fff;}.d{fill:#1875f0;}.e,.f,.h{stroke:none;}.f{fill:#707070;}</style></defs><g transform="translate(-567.08 -477.631)"><g transform="translate(134 2)"><g class="a" transform="translate(480.456 -170.923) rotate(45)"><path class="e" d="M465,507V484l-10-9-11,9v23Z"/><path class="f" d="M 465 507 L 465 484 L 455 475 L 444 484 L 444 507 L 465 507 M 467 509 L 465 509 L 444 509 L 442 509 L 442 507 L 442 484 L 442 483.05224609375 L 442.7335205078125 482.4520874023438 L 453.7335205078125 473.4520874023438 L 455.0620422363281 472.3651123046875 L 456.3379211425781 473.5133972167969 L 466.3379211425781 482.5133972167969 L 467 483.1092834472656 L 467 484 L 467 507 L 467 509 Z"/></g><line class="b" x2="23" transform="translate(439.444 497.293) rotate(45)"/><g class="c" transform="translate(457.121 488.808) rotate(45)"><circle class="e" cx="4.5" cy="4.5" r="4.5"/><circle class="g" cx="4.5" cy="4.5" r="3.5"/></g></g><g class="d" transform="translate(-628 131)"><path class="e" d="M 1240.000366210938 391.9996032714844 L 1239.000366210938 391.9996032714844 L 1223.000122070313 391.9996032714844 L 1222.000122070313 391.9996032714844 L 1222.000122070313 390.9996032714844 L 1222.000122070313 377.0001220703125 L 1222.000122070313 375.0003051757813 L 1222.000122070313 374.0003051757813 L 1223.000122070313 374.0003051757813 L 1239.000366210938 374.0003051757813 L 1240.000366210938 374.0003051757813 L 1240.000366210938 375.0003051757813 L 1240.000366210938 388.9998168945313 L 1240.000366210938 390.9996032714844 L 1240.000366210938 391.9996032714844 Z M 1233.000122070313 387.9998168945313 L 1235.999633789063 387.9998168945313 L 1235.999633789063 385.0003051757813 L 1234.999877929688 385.0003051757813 L 1233.000122070313 385.0003051757813 L 1233.000122070313 387 L 1233.000122070313 387.9998168945313 Z M 1225.999877929688 387.9998168945313 L 1229.000366210938 387.9998168945313 L 1229.000366210938 387 L 1229.000366210938 385.0003051757813 L 1226.999755859375 385.0003051757813 L 1225.999877929688 385.0003051757813 L 1225.999877929688 387.9998168945313 Z M 1233.000122070313 380.9996032714844 L 1234.999877929688 380.9996032714844 L 1235.999633789063 380.9996032714844 L 1235.999633789063 378.0001220703125 L 1233.000122070313 378.0001220703125 L 1233.000122070313 378.9999084472656 L 1233.000122070313 380.9996032714844 Z M 1225.999877929688 380.9996032714844 L 1226.999755859375 380.9996032714844 L 1229.000366210938 380.9996032714844 L 1229.000366210938 378.9999084472656 L 1229.000366210938 378.0001220703125 L 1225.999877929688 378.0001220703125 L 1225.999877929688 380.9996032714844 Z"/><path class="h" d="M 1239.000366210938 390.9996032714844 L 1239.000366210938 388.9998168945313 L 1239.000366210938 375.0003051757813 L 1223.000122070313 375.0003051757813 L 1223.000122070313 377.0001220703125 L 1223.000122070313 390.9996032714844 L 1239.000366210938 390.9996032714844 M 1224.999877929688 377.0001220703125 L 1236.999633789063 377.0001220703125 L 1236.999633789063 388.9998168945313 L 1224.999877929688 388.9998168945313 L 1224.999877929688 377.0001220703125 M 1232.000122070313 387 L 1232.000122070313 384.0003051757813 L 1234.999877929688 384.0003051757813 L 1234.999877929688 381.9996032714844 L 1232.000122070313 381.9996032714844 L 1232.000122070313 378.9999084472656 L 1230.000366210938 378.9999084472656 L 1230.000366210938 381.9996032714844 L 1226.999755859375 381.9996032714844 L 1226.999755859375 384.0003051757813 L 1230.000366210938 384.0003051757813 L 1230.000366210938 387 L 1232.000122070313 387 M 1241.000366210938 392.9996032714844 L 1239.000366210938 392.9996032714844 L 1223.000122070313 392.9996032714844 L 1221.000122070313 392.9996032714844 L 1221.000122070313 390.9996032714844 L 1221.000122070313 377.0001220703125 L 1221.000122070313 375.0003051757813 L 1221.000122070313 373.0003051757813 L 1223.000122070313 373.0003051757813 L 1239.000366210938 373.0003051757813 L 1241.000366210938 373.0003051757813 L 1241.000366210938 375.0003051757813 L 1241.000366210938 388.9998168945313 L 1241.000366210938 390.9996032714844 L 1241.000366210938 392.9996032714844 Z M 1234.000122070313 386.9998168945313 L 1234.999633789063 386.9998168945313 L 1234.999633789063 386.0003051757813 L 1234.000122070313 386.0003051757813 L 1234.000122070313 386.9998168945313 Z M 1226.999877929688 386.9998168945313 L 1228.000366210938 386.9998168945313 L 1228.000366210938 386.0003051757813 L 1226.999877929688 386.0003051757813 L 1226.999877929688 386.9998168945313 Z M 1234.000122070313 379.9996032714844 L 1234.999633789063 379.9996032714844 L 1234.999633789063 379.0001220703125 L 1234.000122070313 379.0001220703125 L 1234.000122070313 379.9996032714844 Z M 1226.999877929688 379.9996032714844 L 1228.000366210938 379.9996032714844 L 1228.000366210938 379.0001220703125 L 1226.999877929688 379.0001220703125 L 1226.999877929688 379.9996032714844 Z"/></g></g></svg>