<svg xmlns="http://www.w3.org/2000/svg" width="15" height="15" viewBox="0 0 15 15"><defs><style>.a{fill:#90c543;fill-rule:evenodd;}</style></defs><path class="a" d="M1158.5,869a7.5,7.5,0,1,0,7.5,7.5,7.5,7.5,0,0,0-7.5-7.5Zm2.05,10.4a2.4,2.4,0,0,1-1.6.73v1.061h-.89v-1.055a2.332,2.332,0,0,1-2.16-2.025l1.37-.358a1.2,1.2,0,0,0,1.27,1.16.994.994,0,0,0,.74-.248.868.868,0,0,0,.23-.6.677.677,0,0,0-.23-.551,4.326,4.326,0,0,0-1.05-.476,6.38,6.38,0,0,1-1.15-.5,1.919,1.919,0,0,1-.67-.694,2.07,2.07,0,0,1-.26-1.042,2.345,2.345,0,0,1,.46-1.4,2.066,2.066,0,0,1,1.45-.761v-.82h.89v.82a2.14,2.14,0,0,1,1.92,1.684l-1.22.5a1.236,1.236,0,0,0-1.11-1.033.8.8,0,0,0-.6.231.778.778,0,0,0-.23.56.646.646,0,0,0,.22.514,3.836,3.836,0,0,0,.94.443,8.226,8.226,0,0,1,1.24.546,1.958,1.958,0,0,1,.72.709,2.034,2.034,0,0,1,.27,1.059,2.282,2.282,0,0,1-.55,1.546Z" transform="translate(-1151 -869)"/></svg>