<svg xmlns="http://www.w3.org/2000/svg" width="38" height="30" viewBox="0 0 38 30"><defs><style>.a{fill:none;}.b,.c{stroke:none;}.c{fill:#707070;}</style></defs><g transform="translate(-431 -243)"><g class="a" transform="translate(-434 -454.589)"><path class="b" d="M901,725.589v-17H885l-9-9h-9v26Z"/><path class="c" d="M 901 725.5889282226563 L 901 708.5889282226563 L 885 708.5889282226563 L 876 699.5889282226563 L 873 699.5889282226563 L 867 699.5889282226563 L 867 725.5889282226563 L 901 725.5889282226563 M 903 727.5889282226563 L 901 727.5889282226563 L 867 727.5889282226563 L 865 727.5889282226563 L 865 725.5889282226563 L 865 699.5889282226563 L 865 697.5889282226563 L 867 697.5889282226563 L 873 697.5889282226563 L 876 697.5889282226563 L 876.8284301757813 697.5889282226563 L 877.4141845703125 698.1747436523438 L 885.8284301757813 706.5889282226563 L 901 706.5889282226563 L 903 706.5889282226563 L 903 708.5889282226563 L 903 725.5889282226563 L 903 727.5889282226563 Z"/></g><g class="a"><path class="b" d="M467,252H452l-3-3h18Z"/><path class="c" d="M 467 252 L 467 249 L 449 249 L 452 252 L 467 252 M 469 254 L 467 254 L 452 254 L 451.1715698242188 254 L 450.5857849121094 253.4142150878906 L 447.5857849121094 250.4142150878906 L 444.1715698242188 247 L 449 247 L 467 247 L 469 247 L 469 249 L 469 252 L 469 254 Z"/></g></g></svg>