<svg xmlns="http://www.w3.org/2000/svg" width="68.126" height="75.479" viewBox="0 0 68.126 75.479"><defs><style>.a{fill:#213e5c;}.b{fill:#1c354e;}.c{fill:#fff;fill-rule:evenodd;}</style></defs><g transform="translate(-1431 -215)"><path class="a" d="M1.95,19.32C-.073,18.157,34.5-1.78,34.5.544c0-2.324,34.563,17.613,32.551,18.776,2.023-1.163,2.023,38.713,0,37.552C69.071,58.033,34.5,77.97,34.5,75.646,34.5,77.97-.063,58.033,1.95,56.872-.063,58.033-.063,18.157,1.95,19.32Z" transform="translate(1430.56 214.644)"/><path class="b" d="M110.6,122.143c.652.374,1.092-3.54,1.323-8.987-.023-.015-.04-.035-.061-.051a1.314,1.314,0,0,0-.132-.162,1.194,1.194,0,0,0-.177-.144,1.118,1.118,0,0,0-.132-.162,1.065,1.065,0,0,1-.306-.309,1.355,1.355,0,0,0-.174-.144,1.1,1.1,0,0,0-.306-.306,1.6,1.6,0,0,0-.131-.162,1.338,1.338,0,0,0-.177-.144,1.011,1.011,0,0,0-.132-.162,1.19,1.19,0,0,0-.174-.147,1.1,1.1,0,0,0-.306-.306,1.6,1.6,0,0,0-.132-.162,1.338,1.338,0,0,0-.177-.144,1.151,1.151,0,0,0-.132-.162,1.192,1.192,0,0,0-.174-.147,1.1,1.1,0,0,0-.306-.3,1.6,1.6,0,0,0-.131-.162,1.338,1.338,0,0,0-.177-.144,1.314,1.314,0,0,0-.132-.162,1.192,1.192,0,0,0-.174-.147,1.315,1.315,0,0,0-.132-.162,1.549,1.549,0,0,0-.174-.144,1.6,1.6,0,0,0-.132-.162,1.337,1.337,0,0,0-.177-.144,1.315,1.315,0,0,0-.132-.162,1.372,1.372,0,0,0-.174-.147,1.315,1.315,0,0,0-.131-.162,1.55,1.55,0,0,0-.174-.144,1.6,1.6,0,0,0-.131-.162,1.338,1.338,0,0,0-.177-.144,1.315,1.315,0,0,0-.132-.162,1.371,1.371,0,0,0-.174-.147,1.316,1.316,0,0,0-.132-.162,1.55,1.55,0,0,0-.174-.144,1.6,1.6,0,0,0-.131-.162,1.193,1.193,0,0,0-.177-.144,1.316,1.316,0,0,0-.132-.162,1.374,1.374,0,0,0-.174-.147,1.316,1.316,0,0,0-.131-.162,1.55,1.55,0,0,0-.174-.144,1.315,1.315,0,0,0-.131-.162,1.193,1.193,0,0,0-.177-.144,1.119,1.119,0,0,0-.131-.162,1.373,1.373,0,0,0-.174-.147,1.314,1.314,0,0,0-.132-.162,1.355,1.355,0,0,0-.174-.144,1.315,1.315,0,0,0-.132-.162,1.193,1.193,0,0,0-.177-.144,1.118,1.118,0,0,0-.131-.162,1.065,1.065,0,0,1-.306-.309,1.355,1.355,0,0,0-.174-.144,1.314,1.314,0,0,0-.132-.162,1.2,1.2,0,0,0-.177-.144,1.118,1.118,0,0,0-.132-.162,1.065,1.065,0,0,1-.306-.309,1.355,1.355,0,0,0-.174-.144,1.1,1.1,0,0,0-.306-.306,1.6,1.6,0,0,0-.131-.162,1.339,1.339,0,0,0-.177-.144,1.012,1.012,0,0,0-.132-.162,1.191,1.191,0,0,0-.174-.147,1.1,1.1,0,0,0-.306-.306,1.6,1.6,0,0,0-.132-.162,1.338,1.338,0,0,0-.177-.144,1.15,1.15,0,0,0-.132-.162,1.191,1.191,0,0,0-.174-.147,1.1,1.1,0,0,0-.306-.306,1.6,1.6,0,0,0-.132-.162,1.338,1.338,0,0,0-.177-.144,1.315,1.315,0,0,0-.132-.162,1.191,1.191,0,0,0-.174-.147,1.1,1.1,0,0,0-.306-.306,1.6,1.6,0,0,0-.132-.162,1.338,1.338,0,0,0-.177-.144,1.315,1.315,0,0,0-.132-.162,1.375,1.375,0,0,0-.174-.147,1.315,1.315,0,0,0-.132-.162,1.55,1.55,0,0,0-.174-.144,1.6,1.6,0,0,0-.131-.162,1.336,1.336,0,0,0-.177-.144,1.315,1.315,0,0,0-.132-.162A1.373,1.373,0,0,0,97.752,99a1.315,1.315,0,0,0-.132-.162,1.55,1.55,0,0,0-.174-.144,1.6,1.6,0,0,0-.132-.162,1.337,1.337,0,0,0-.177-.144,1.316,1.316,0,0,0-.131-.162,1.372,1.372,0,0,0-.174-.147,1.315,1.315,0,0,0-.131-.162,1.55,1.55,0,0,0-.174-.144,1.315,1.315,0,0,0-.131-.162,1.194,1.194,0,0,0-.177-.144,1.118,1.118,0,0,0-.131-.162,1.374,1.374,0,0,0-.174-.147,1.315,1.315,0,0,0-.131-.162,1.549,1.549,0,0,0-.174-.144,1.315,1.315,0,0,0-.131-.162,1.193,1.193,0,0,0-.177-.144,1.117,1.117,0,0,0-.131-.162,1.064,1.064,0,0,1-.306-.309,1.355,1.355,0,0,0-.174-.144,1.314,1.314,0,0,0-.132-.162,1.193,1.193,0,0,0-.177-.144,1.117,1.117,0,0,0-.131-.162,1.064,1.064,0,0,1-.306-.309,1.356,1.356,0,0,0-.174-.144,1.315,1.315,0,0,0-.132-.162,1.194,1.194,0,0,0-.177-.144,1.293,1.293,0,0,0-.129-.162,1.338,1.338,0,0,0-.177-.144,1.012,1.012,0,0,0-.132-.162,1.192,1.192,0,0,0-.174-.147,1.1,1.1,0,0,0-.306-.306,1.6,1.6,0,0,0-.132-.162,1.336,1.336,0,0,0-.177-.144,1.15,1.15,0,0,0-.131-.162,1.191,1.191,0,0,0-.174-.147,1.1,1.1,0,0,0-.306-.306,1.6,1.6,0,0,0-.132-.162,1.338,1.338,0,0,0-.177-.144,1.316,1.316,0,0,0-.131-.162A1.191,1.191,0,0,0,91,92.248a1.1,1.1,0,0,0-.306-.306,1.6,1.6,0,0,0-.131-.162,1.338,1.338,0,0,0-.177-.144,1.314,1.314,0,0,0-.132-.162,1.191,1.191,0,0,0-.174-.147,1.316,1.316,0,0,0-.131-.162,1.552,1.552,0,0,0-.174-.144,1.6,1.6,0,0,0-.132-.162,1.339,1.339,0,0,0-.177-.144,1.314,1.314,0,0,0-.132-.162,1.374,1.374,0,0,0-.174-.147,1.315,1.315,0,0,0-.132-.162,1.55,1.55,0,0,0-.174-.144,1.6,1.6,0,0,0-.132-.162,1.337,1.337,0,0,0-.177-.144,1.315,1.315,0,0,0-.132-.162,1.372,1.372,0,0,0-.174-.147,1.315,1.315,0,0,0-.132-.162,1.551,1.551,0,0,0-.174-.144,1.315,1.315,0,0,0-.132-.162,1.193,1.193,0,0,0-.177-.144,1.315,1.315,0,0,0-.132-.162,1.374,1.374,0,0,0-.174-.147,1.314,1.314,0,0,0-.132-.162,1.551,1.551,0,0,0-.174-.144,1.317,1.317,0,0,0-.132-.162,1.287,1.287,0,0,0-1.826,0l-3.639,3.636a1.3,1.3,0,0,0,0,1.831,1.374,1.374,0,0,0,.174.147,1.315,1.315,0,0,0,.132.162,1.55,1.55,0,0,0,.174.144,1.6,1.6,0,0,0,.132.162,1.338,1.338,0,0,0,.177.144,1.315,1.315,0,0,0,.131.162,1.064,1.064,0,0,1,.306.309,1.551,1.551,0,0,0,.174.144,1.6,1.6,0,0,0,.132.162,1.336,1.336,0,0,0,.177.144,1.315,1.315,0,0,0,.131.162,1.174,1.174,0,0,0,.174.144,1.012,1.012,0,0,0,.131.162,1.341,1.341,0,0,0,.174.147,1.6,1.6,0,0,0,.131.162,1.338,1.338,0,0,0,.177.144,1.315,1.315,0,0,0,.132.162,1.174,1.174,0,0,0,.174.144,1.151,1.151,0,0,0,.132.162,1.34,1.34,0,0,0,.174.147,1.314,1.314,0,0,0,.132.162,1.194,1.194,0,0,0,.177.144,1.315,1.315,0,0,0,.131.162.121.121,0,0,0,.028.023,1.3,1.3,0,0,0,.056,1.537,1.238,1.238,0,0,0,.268.253c0,.02.023.04.038.061a1.287,1.287,0,0,0,.268.253c.015.02.023.04.038.061a1.376,1.376,0,0,0,.268.253c.015.018.025.04.04.058a1.239,1.239,0,0,0,.268.253c.013.02.023.04.038.061a1.226,1.226,0,0,0,.268.253c.015.02.023.04.038.061a1.375,1.375,0,0,0,.268.253c.015.018.025.04.038.058a1.321,1.321,0,0,0,.271.253.46.46,0,0,0,.038.058,1.181,1.181,0,0,0,.268.253c.013.02.023.04.038.061a1.376,1.376,0,0,0,.268.253c.015.018.025.04.038.058a.388.388,0,0,0,.046.046,1.247,1.247,0,0,0-.367.268c-.023-.02-.051-.035-.073-.053q-.31-.3-.614-.614a1.517,1.517,0,0,0-.306-.306q-.31-.3-.614-.614a4.772,4.772,0,0,1-.607-.67,1.55,1.55,0,0,0-.309-.309,1.461,1.461,0,0,0-.306-.306,1.518,1.518,0,0,0-.306-.306,1.55,1.55,0,0,0-.309-.309,1.517,1.517,0,0,0-.306-.306,1.517,1.517,0,0,0-.306-.306,1.621,1.621,0,0,0-.309-.309,34709.283,34709.283,0,0,1-.612-.612,1.621,1.621,0,0,0-.309-.309,1.517,1.517,0,0,0-.306-.306,1.517,1.517,0,0,0-.306-.306,1.551,1.551,0,0,0-.309-.309,34709.283,34709.283,0,0,1-.612-.612,1.55,1.55,0,0,0-.309-.309,34709.283,34709.283,0,0,1-.612-.612,52.866,52.866,0,0,1-.614-.614,1.54,1.54,0,0,0-2.63,1.573l.488,1.012L61.4,111.307c-.035-.03-.076-.056-.114-.083a1.3,1.3,0,1,0-2.433.92l1.871,3.874a1.189,1.189,0,0,0,.407.47,69422.243,69422.243,0,0,0,.612.612,1.264,1.264,0,0,0,.306.309,1.224,1.224,0,0,0,.309.306,1.135,1.135,0,0,0,.306.306,1.264,1.264,0,0,0,.306.309,1.224,1.224,0,0,0,.309.306,1.135,1.135,0,0,0,.306.306,1.265,1.265,0,0,0,.306.309,1.224,1.224,0,0,0,.309.306,1.135,1.135,0,0,0,.306.306,49.73,49.73,0,0,1,.62.6,1.135,1.135,0,0,0,.306.306,1.224,1.224,0,0,0,.306.309,1.264,1.264,0,0,0,.309.306,1.173,1.173,0,0,0,.306.306,1.224,1.224,0,0,0,.291.309,1.264,1.264,0,0,0,.309.306,1.174,1.174,0,0,0,.306.306,1.224,1.224,0,0,0,.306.309,1.264,1.264,0,0,0,.309.306,1.173,1.173,0,0,0,.306.306,1.224,1.224,0,0,0,.306.309,1.265,1.265,0,0,0,.309.306,53.492,53.492,0,0,0,.632.612,1.234,1.234,0,0,0,.309.309,17354.966,17354.966,0,0,0,.612.612,1.264,1.264,0,0,0,.306.309,1.224,1.224,0,0,0,.309.306,1.135,1.135,0,0,0,.306.306,1.264,1.264,0,0,0,.306.309,1.224,1.224,0,0,0,.309.306,1.135,1.135,0,0,0,.306.306,1.264,1.264,0,0,0,.306.309,1.224,1.224,0,0,0,.309.306,1.135,1.135,0,0,0,.306.306q.3.31.614.615a1.135,1.135,0,0,0,.306.306,1.224,1.224,0,0,0,.306.309,1.265,1.265,0,0,0,.309.306,1.174,1.174,0,0,0,.3.3,1.224,1.224,0,0,0,.306.309,1.264,1.264,0,0,0,.309.306,1.174,1.174,0,0,0,.306.306,1.224,1.224,0,0,0,.306.309,1.264,1.264,0,0,0,.309.306,1.174,1.174,0,0,0,.306.306,1.224,1.224,0,0,0,.306.309,1.264,1.264,0,0,0,.309.306,2342403449870.93,2342403449870.93,0,0,1,.612.612,1.234,1.234,0,0,0,.309.309,17354.317,17354.317,0,0,0,.612.612,1.264,1.264,0,0,0,.306.309,1.224,1.224,0,0,0,.309.306,1.173,1.173,0,0,0,.306.306,1.265,1.265,0,0,0,.306.309,1.224,1.224,0,0,0,.309.306,1.136,1.136,0,0,0,.306.306,1.264,1.264,0,0,0,.306.309,1.224,1.224,0,0,0,.309.306,1.135,1.135,0,0,0,.306.306q.3.31.614.614a1.136,1.136,0,0,0,.306.306q.3.31.615.614a1.174,1.174,0,0,0,.306.306,1,1,0,0,0,.137.137C93.362,134.258,112.1,123.005,110.6,122.143Z" transform="translate(1387.005 149.374)"/><g transform="translate(1445.754 237.087)"><path class="c" d="M85.225,98.775a1.287,1.287,0,0,0,1.811.215l4.021-3.217a1.3,1.3,0,0,0,.2-1.821,1.285,1.285,0,0,0-1.811-.212l-4.021,3.214A1.3,1.3,0,0,0,85.225,98.775Zm-5.771-5.02a1.542,1.542,0,0,0-2.782,1.33L77.16,96.1,61.292,111.424l-.177-.369a1.234,1.234,0,0,0-2.225,1.065l1.871,3.874a1.232,1.232,0,1,0,2.223-1.065l-.177-.369,5.419-.685c-.2,2.253-.114,6.12,3,5.7,4.347-.582.314-4.076-.48-6.019l13.984-1.77.223.463a1.542,1.542,0,0,0,2.782-1.33Zm3.829-.207,3.641-3.639a1.3,1.3,0,0,0,0-1.831,1.287,1.287,0,0,0-1.826,0l-3.639,3.636a1.3,1.3,0,0,0,1.828,1.846Zm13.532,15.393a1.229,1.229,0,0,0-1.366-1.082l-4.9.554a1.229,1.229,0,1,0,.278,2.44l4.9-.554a1.229,1.229,0,0,0,1.087-1.358Zm-2.091-7.586a1.282,1.282,0,0,0-1.517-.966L88.3,101.473a1.249,1.249,0,0,0-.938,1.517,1.277,1.277,0,0,0,1.517.963l4.906-1.085a1.244,1.244,0,0,0,.938-1.5Z" transform="translate(-58.785 -87.698)"/></g></g></svg>