<svg xmlns="http://www.w3.org/2000/svg" width="30" height="39" viewBox="0 0 30 39"><defs><style>.a{fill:none;}.b,.d{fill:#707070;}.c,.d{stroke:none;}</style></defs><g transform="translate(-858 -597)"><g class="a" transform="translate(851 599)"><path class="c" d="M9,0H22.287L35,12.787V35H9Z"/><path class="d" d="M 9 0 L 9 35 L 35 35 L 35 12.78693008422852 L 22.28698921203613 0 L 9 0 M 7 -2 L 9 -2 L 22.28698921203613 -2 L 23.11882019042969 -2 L 23.70529937744141 -1.410110473632813 L 36.41831207275391 11.3768196105957 L 37 11.96190071105957 L 37 12.78693008422852 L 37 35 L 37 37 L 35 37 L 9 37 L 7 37 L 7 35 L 7 0 L 7 -2 Z"/></g><g class="a" transform="translate(873.938 597)"><path class="c" d="M.062,0l14,14h-14Z"/><path class="d" d="M 2.0615234375 4.82841968536377 L 2.0615234375 12 L 9.233102798461914 12 L 2.0615234375 4.82841968536377 M 0.0615234375 0 L 14.0615234375 14 L 0.0615234375 14 L 0.0615234375 0 Z"/></g><rect class="b" width="18" height="2" transform="translate(864 615)"/><rect class="b" width="18" height="2" transform="translate(864 619)"/><rect class="b" width="18" height="2" transform="translate(864 623)"/><rect class="b" width="9" height="2" transform="translate(864 627)"/></g></svg>