<svg xmlns="http://www.w3.org/2000/svg" width="28" height="28" viewBox="0 0 28 28"><defs><style>.a,.d{fill:none;}.a{stroke:#707070;stroke-width:2px;}.b{fill:#707070;}.c{stroke:none;}</style></defs><g transform="translate(-998 -251)"><g class="a" transform="translate(998 259)"><rect class="c" width="28" height="20"/><rect class="d" x="1" y="1" width="26" height="18"/></g><g class="a" transform="translate(998 253)"><rect class="c" width="28" height="8"/><rect class="d" x="1" y="1" width="26" height="6"/></g><rect class="b" width="2" height="2" transform="translate(1017 270)"/><rect class="b" width="2" height="2" transform="translate(1017 266)"/><rect class="b" width="2" height="6" transform="translate(1017 251)"/><rect class="b" width="2" height="6" transform="translate(1005 251)"/><rect class="b" width="2" height="2" transform="translate(1013 270)"/><rect class="b" width="2" height="2" transform="translate(1013 266)"/><rect class="b" width="2" height="2" transform="translate(1009 270)"/><rect class="b" width="2" height="2" transform="translate(1005 270)"/><rect class="b" width="2" height="2" transform="translate(1009 266)"/><rect class="b" width="2" height="2" transform="translate(1005 266)"/></g></svg>