<svg xmlns="http://www.w3.org/2000/svg" width="18" height="15.006" viewBox="0 0 18 15.006"><defs><style>.a{fill:#55acee;fill-rule:evenodd;}</style></defs><path class="a" d="M909,953.775a7.256,7.256,0,0,1-2.121.6,3.787,3.787,0,0,0,1.624-2.1,7.273,7.273,0,0,1-2.345.919,3.648,3.648,0,0,0-2.7-1.2,3.742,3.742,0,0,0-3.693,3.787,3.892,3.892,0,0,0,.1.863,10.4,10.4,0,0,1-7.612-3.956,3.855,3.855,0,0,0,1.143,5.056,3.611,3.611,0,0,1-1.673-.474v.048a3.767,3.767,0,0,0,2.962,3.713,3.6,3.6,0,0,1-1.667.065,3.71,3.71,0,0,0,3.449,2.63A7.3,7.3,0,0,1,891,965.3a10.259,10.259,0,0,0,5.661,1.7c6.792,0,10.507-5.77,10.507-10.775,0-.164,0-.327-.011-.49a7.581,7.581,0,0,0,1.843-1.96Z" transform="translate(-891 -951.994)"/></svg>