<svg xmlns="http://www.w3.org/2000/svg" width="15" height="15" viewBox="0 0 15 15"><defs><style>.a{fill:#6e6e6e;}</style></defs><path class="a" d="M35.51,24.862a7.5,7.5,0,1,0,2.2,5.3A7.45,7.45,0,0,0,35.51,24.862Zm-5.3-1.285A6.538,6.538,0,0,1,34.53,25.2l-1.958,1.958a3.826,3.826,0,0,0-4.731,0L25.883,25.2A6.539,6.539,0,0,1,30.207,23.577Zm2.917,6.588a2.918,2.918,0,1,1-.855-2.063A2.9,2.9,0,0,1,33.124,30.165Zm-9.5,0a6.539,6.539,0,0,1,1.619-4.324L27.2,27.8a3.827,3.827,0,0,0,0,4.731l-1.958,1.958A6.538,6.538,0,0,1,23.619,30.165Zm6.588,6.588a6.538,6.538,0,0,1-4.323-1.619l1.958-1.958a3.826,3.826,0,0,0,4.731,0l1.958,1.958A6.541,6.541,0,0,1,30.207,36.753Zm4.968-2.264-1.958-1.958a3.826,3.826,0,0,0,0-4.731l1.958-1.958a6.581,6.581,0,0,1,0,8.647Z" transform="translate(-22.707 -22.665)"/></svg>