<svg xmlns="http://www.w3.org/2000/svg" width="30" height="30" viewBox="0 0 30 30"><defs><style>.a,.b,.d{fill:none;}.a{stroke:#707070;stroke-width:2px;}.c,.e{stroke:none;}.e{fill:#707070;}</style></defs><g transform="translate(-575 -248)"><g class="a" transform="translate(577 250)"><rect class="c" width="26" height="26"/><rect class="d" x="-1" y="-1" width="28" height="28"/></g><g class="b" transform="translate(-1.682 0.97)"><path class="c" d="M591.682,253.03l5,2v-6h-10v6Z"/><path class="e" d="M 596.6817626953125 255.0295715332031 L 596.6817626953125 249.0295715332031 L 586.6817626953125 249.0295715332031 L 586.6817626953125 255.0295715332031 L 591.6817626953125 253.0295715332031 L 596.6817626953125 255.0295715332031 M 598.6817626953125 257.983642578125 L 595.93896484375 256.8865356445313 L 591.6817626953125 255.1836395263672 L 587.424560546875 256.8865356445313 L 584.6817626953125 257.983642578125 L 584.6817626953125 255.0295715332031 L 584.6817626953125 249.0295715332031 L 584.6817626953125 247.0295715332031 L 586.6817626953125 247.0295715332031 L 596.6817626953125 247.0295715332031 L 598.6817626953125 247.0295715332031 L 598.6817626953125 249.0295715332031 L 598.6817626953125 255.0295715332031 L 598.6817626953125 257.983642578125 Z"/></g></g></svg>