<svg xmlns="http://www.w3.org/2000/svg" width="9" height="17.009" viewBox="0 0 9 17.009"><defs><style>.a{fill:#3b5998;fill-rule:evenodd;}</style></defs><path class="a" d="M1003.66,951h-2.16a3.833,3.833,0,0,0-3.99,4.184v1.929h-2.171a.343.343,0,0,0-.339.346v2.8a.343.343,0,0,0,.339.347h2.171v7.053a.343.343,0,0,0,.339.346h2.831a.342.342,0,0,0,.34-.346V960.6h2.54a.342.342,0,0,0,.34-.347v-2.8a.366.366,0,0,0-.1-.245.329.329,0,0,0-.24-.1h-2.54v-1.636a.977.977,0,0,1,1.19-1.185h1.45a.342.342,0,0,0,.34-.347v-2.6a.343.343,0,0,0-.34-.34Z" transform="translate(-995 -950.996)"/></svg>