<svg xmlns="http://www.w3.org/2000/svg" width="26.513" height="32.798" viewBox="0 0 26.513 32.798"><defs><style>.a{fill:none;stroke:#707070;stroke-width:2px;}</style></defs><g transform="translate(-856 -244.999)"><g transform="translate(857 246)"><path class="a" d="M61.118.008a12.261,12.261,0,0,0-11.6,14.577h0s.019.132.082.384a12.285,12.285,0,0,0,.825,2.432c1.228,2.91,4.069,7.78,10.445,13.078a1.065,1.065,0,0,0,1.361,0c6.375-5.292,9.216-10.161,10.451-13.084a11.765,11.765,0,0,0,.825-2.432c.057-.246.082-.384.082-.384h0A12.263,12.263,0,0,0,61.118.008Zm.435,18.344A5.953,5.953,0,1,1,67.506,12.4,5.952,5.952,0,0,1,61.553,18.352Z" transform="translate(-49.299 0)"/></g></g></svg>