<svg xmlns="http://www.w3.org/2000/svg" width="32.316" height="32.316" viewBox="0 0 32.316 32.316"><defs><style>.a{fill:none;stroke:#707070;stroke-width:2px;fill-rule:evenodd;}</style></defs><g transform="translate(-994 -606.684)"><path class="a" d="M28.965,12.23c-.57-.085-1.155-.167-1.74-.243a.172.172,0,0,1-.146-.122,12.3,12.3,0,0,0-1.163-2.806.173.173,0,0,1,.016-.191c.359-.467.715-.939,1.058-1.4A1.6,1.6,0,0,0,26.835,5.4L24.918,3.482a1.6,1.6,0,0,0-2.068-.156c-.463.342-.935.7-1.4,1.058a.173.173,0,0,1-.191.016,12.3,12.3,0,0,0-2.806-1.163.172.172,0,0,1-.122-.146c-.076-.585-.158-1.17-.243-1.739A1.6,1.6,0,0,0,16.513,0H13.8a1.6,1.6,0,0,0-1.572,1.351c-.085.569-.167,1.155-.243,1.74a.172.172,0,0,1-.122.146A12.309,12.309,0,0,0,9.059,4.4a.173.173,0,0,1-.191-.016c-.468-.36-.94-.716-1.4-1.058A1.6,1.6,0,0,0,5.4,3.482L3.482,5.4a1.6,1.6,0,0,0-.156,2.068c.343.465.7.936,1.058,1.4a.173.173,0,0,1,.016.191,12.306,12.306,0,0,0-1.163,2.806.172.172,0,0,1-.146.122c-.584.076-1.169.158-1.739.243A1.6,1.6,0,0,0,0,13.8v2.71a1.6,1.6,0,0,0,1.351,1.572c.57.085,1.156.167,1.74.243a.172.172,0,0,1,.146.122A12.306,12.306,0,0,0,4.4,21.257a.173.173,0,0,1-.016.191c-.36.467-.716.939-1.058,1.4a1.6,1.6,0,0,0,.156,2.068L5.4,26.835a1.6,1.6,0,0,0,2.068.156c.463-.342.935-.7,1.4-1.058a.173.173,0,0,1,.191-.016,12.307,12.307,0,0,0,2.806,1.163.172.172,0,0,1,.122.146c.076.585.158,1.17.243,1.739A1.6,1.6,0,0,0,13.8,30.316h2.71a1.6,1.6,0,0,0,1.572-1.352c.085-.57.167-1.155.243-1.739a.172.172,0,0,1,.122-.146,12.31,12.31,0,0,0,2.806-1.163.173.173,0,0,1,.191.016c.468.36.94.716,1.4,1.058a1.6,1.6,0,0,0,2.068-.156l1.916-1.916a1.6,1.6,0,0,0,.156-2.068c-.343-.464-.7-.936-1.058-1.4a.173.173,0,0,1-.016-.191,12.306,12.306,0,0,0,1.163-2.806.172.172,0,0,1,.146-.122c.584-.076,1.169-.158,1.739-.243a1.6,1.6,0,0,0,1.352-1.572V13.8a1.6,1.6,0,0,0-1.351-1.572ZM15.158,8.578a6.58,6.58,0,1,0,6.58,6.58,6.58,6.58,0,0,0-6.58-6.58Z" transform="translate(995 607.684)"/></g></svg>