<svg xmlns="http://www.w3.org/2000/svg" width="31" height="38.737" viewBox="0 0 31 38.737"><defs><style>.a,.d{fill:#707070;}.b{fill:none;}.c,.d{stroke:none;}</style></defs><g transform="translate(-435 -604.263)"><rect class="a" width="2" height="2" transform="translate(441 635)"/><rect class="a" width="2" height="2" transform="translate(441 631)"/><rect class="a" width="15" height="2" transform="translate(445 635)"/><rect class="a" width="15" height="2" transform="translate(445 631)"/><g class="b" transform="translate(11 9)"><path class="c" d="M426,599l3,2,4-2,3,2,4-2,3,2,3-2,4,2,3-2v33H426Z"/><path class="d" d="M 426 599 L 426 632 L 453 632 L 453 599 L 450 601 L 446 599 L 443 601 L 440 599 L 436 601 L 433 599 L 429 601 L 426 599 M 424 595.2630004882813 L 427.1094055175781 597.3358764648438 L 429.1436767578125 598.6920776367188 L 432.1055603027344 597.2111206054688 L 433.1436767578125 596.6920776367188 L 434.1094055175781 597.3358764648438 L 436.1436767578125 598.6920776367188 L 439.1055603027344 597.2111206054688 L 440.1436767578125 596.6920776367188 L 441.1094055175781 597.3358764648438 L 443 598.5963134765625 L 444.8905944824219 597.3358764648438 L 445.8563232421875 596.6920776367188 L 446.8944396972656 597.2111206054688 L 449.8563232421875 598.6920776367188 L 451.8905944824219 597.3358764648438 L 455 595.2630004882813 L 455 599 L 455 632 L 455 634 L 453 634 L 426 634 L 424 634 L 424 632 L 424 599 L 424 595.2630004882813 Z"/></g><path class="a" d="M7.93-2.665A2.46,2.46,0,0,1,7.15-.839,3.792,3.792,0,0,1,4.9.1V1.56H3.6V.143A7.073,7.073,0,0,1,1.768-.2a4.613,4.613,0,0,1-1.4-.7l.715-1.586a4.71,4.71,0,0,0,1.157.611A5.29,5.29,0,0,0,3.6-1.56V-3.731a9.807,9.807,0,0,1-1.56-.494,2.751,2.751,0,0,1-1.066-.8,2.145,2.145,0,0,1-.429-1.4,2.507,2.507,0,0,1,.787-1.852A3.736,3.736,0,0,1,3.6-9.217V-10.66H4.9v1.417A5.713,5.713,0,0,1,7.54-8.45l-.65,1.6A5.17,5.17,0,0,0,4.9-7.527v2.21a9.363,9.363,0,0,1,1.541.474,2.7,2.7,0,0,1,1.06.793A2.123,2.123,0,0,1,7.93-2.665ZM2.639-6.526a.666.666,0,0,0,.247.533,2.034,2.034,0,0,0,.715.351V-7.488a1.408,1.408,0,0,0-.728.371A.845.845,0,0,0,2.639-6.526ZM4.9-1.612a1.4,1.4,0,0,0,.7-.338.763.763,0,0,0,.234-.559.673.673,0,0,0-.24-.533,2.112,2.112,0,0,0-.7-.364Z" transform="translate(447 625)"/></g></svg>