<svg xmlns="http://www.w3.org/2000/svg" width="28.001" height="30" viewBox="0 0 28.001 30"><g transform="translate(-575.999 -607)"><g transform="translate(578 616)" fill="none"><path d="M23.99,13H.007C0,12.743,0,12.476,0,12.194V12A12,12,0,0,1,20.486,3.515,11.921,11.921,0,0,1,24,12v.131c0,.3,0,.593-.01.868Z" stroke="none"/><path d="M 23.9904670715332 12.99960041046143 L 23.99050712585449 12.9986400604248 C 24.00077629089355 12.72307014465332 24.00057792663574 12.43525981903076 24.0003662109375 12.13040065765381 L 24.00029754638672 11.99970054626465 C 24.00029754638672 8.79463005065918 22.75215721130371 5.781310081481934 20.48580741882324 3.514830112457275 C 18.21933746337891 1.248260259628296 15.20590686798096 2.052307195299363e-07 12.00059700012207 2.052307195299363e-07 C 8.795236587524414 2.052307195299363e-07 5.781657218933105 1.248260259628296 3.514956951141357 3.514830112457275 C 1.2483069896698 5.781370162963867 7.003173777775373e-06 8.794690132141113 7.003173777775373e-06 11.99970054626465 L -0.0001729968207655475 12.19361019134521 C -0.0005829968140460551 12.47599983215332 -0.0009729968151077628 12.74273014068604 0.006537002976983786 12.99960041046143 L 8.666996955871582 12.99960041046143 L 23.98951721191406 12.99960041046143 L 23.9904670715332 12.99960041046143 M 23.9904670715332 14.99960041046143 L 23.98951721191406 14.99960041046143 L 8.666996955871582 14.99960041046143 L 0.006537002976983786 14.99960041046143 L -1.935842990875244 14.99960041046143 L -1.992612957954407 13.05805015563965 C -2.001013040542603 12.77060031890869 -2.000602960586548 12.4890604019165 -2.000173091888428 12.19099998474121 L -1.999992966651917 11.99783992767334 C -1.999992966651917 8.26045036315918 -0.5436429977416992 4.744880199432373 2.10077691078186 2.100580215454102 C 4.745236873626709 -0.5437197685241699 8.261056900024414 -1.999999761581421 12.00059700012207 -1.999999761581421 C 15.74012660980225 -1.999999761581421 19.25582695007324 -0.5436998009681702 21.90004730224609 2.100650310516357 C 24.54413795471191 4.744890213012695 26.00029754638672 8.260430335998535 26.00029754638672 11.99970054626465 L 26.0003662109375 12.1293306350708 C 26.00058746337891 12.45342063903809 26.00079727172852 12.75967979431152 25.98911666870117 13.0731201171875 L 25.98895645141602 13.07750988006592 L 25.98877716064453 13.08190059661865 L 25.90890693664551 14.9986400604248 L 23.9904670715332 14.99960041046143 Z" stroke="none" fill="#707070"/></g><g transform="translate(581 629)" fill="none" stroke="#707070" stroke-width="2"><rect width="6" height="8" stroke="none"/><rect x="1" y="1" width="4" height="6" fill="none"/></g><g transform="translate(593 629)" fill="none" stroke="#707070" stroke-width="2"><rect width="6" height="8" stroke="none"/><rect x="1" y="1" width="4" height="6" fill="none"/></g><rect width="2" height="9" transform="translate(589 607)" fill="#707070"/></g></svg>