<svg xmlns="http://www.w3.org/2000/svg" width="36" height="36" viewBox="0 0 36 36"><defs><style>.a{fill:#fff;stroke:#707070;stroke-width:2px;}.b{fill:#707070;}.c{stroke:none;}.d{fill:none;}</style></defs><g transform="translate(-712 -483)"><g class="a" transform="translate(714 485)"><circle class="c" cx="16" cy="16" r="16"/><circle class="d" cx="16" cy="16" r="17"/></g><path class="b" d="M7.56-14a6.486,6.486,0,0,1,4.28,1.3A4.409,4.409,0,0,1,13.4-9.12a4.409,4.409,0,0,1-1.56,3.58,6.486,6.486,0,0,1-4.28,1.3H4.1V0h-2V-14ZM7.5-5.98a4.514,4.514,0,0,0,2.9-.81,2.825,2.825,0,0,0,1-2.33,2.825,2.825,0,0,0-1-2.33,4.514,4.514,0,0,0-2.9-.81H4.1v6.28Z" transform="translate(723 508)"/></g></svg>