<svg xmlns="http://www.w3.org/2000/svg" width="35.996" height="36" viewBox="0 0 35.996 36"><defs><style>.a,.b,.e{fill:none;}.a{fill-rule:evenodd;}.b{stroke:#707070;stroke-width:2px;}.c,.d{stroke:none;}.d{fill:#707070;}</style></defs><g transform="translate(-714.471 -604)"><g class="a" transform="translate(682.939 572.506)"><path class="c" d="M64.776,55.139l-2.411.881A3.544,3.544,0,0,0,60,59.128l-.133,2.461a1.108,1.108,0,0,1-.482.849,1.219,1.219,0,0,1-.995.175l-2.494-.64a3.8,3.8,0,0,0-3.829,1.187l-1.623,1.917a1.21,1.21,0,0,1-1.826,0l-1.623-1.917a3.8,3.8,0,0,0-3.829-1.187l-2.494.64a1.219,1.219,0,0,1-.995-.175,1.108,1.108,0,0,1-.482-.849l-.133-2.461A3.544,3.544,0,0,0,36.7,56.02l-2.411-.881a1.144,1.144,0,0,1-.7-.7,1.077,1.077,0,0,1,.132-.957l1.408-2.066a3.391,3.391,0,0,0,0-3.842L33.72,45.507a1.077,1.077,0,0,1-.132-.957,1.144,1.144,0,0,1,.7-.7l2.411-.881a3.544,3.544,0,0,0,2.366-3.109l.133-2.461a1.108,1.108,0,0,1,.482-.849,1.219,1.219,0,0,1,.995-.175l2.494.64a3.8,3.8,0,0,0,3.829-1.187l1.623-1.917a1.21,1.21,0,0,1,1.826,0l1.623,1.917a3.8,3.8,0,0,0,3.829,1.187l2.494-.64a1.219,1.219,0,0,1,.995.175,1.108,1.108,0,0,1,.482.849L60,39.86a3.544,3.544,0,0,0,2.366,3.109l2.412.881a1.144,1.144,0,0,1,.7.7,1.077,1.077,0,0,1-.132.957l-1.408,2.066a3.391,3.391,0,0,0,0,3.842l1.408,2.066a1.077,1.077,0,0,1,.132.957A1.144,1.144,0,0,1,64.776,55.139Z"/><path class="d" d="M 49.52967071533203 65.49410247802734 C 49.88412857055664 65.49410247802734 50.21960830688477 65.34122467041016 50.44255065917969 65.07807159423828 L 52.06573867797852 63.16132354736328 C 52.77758026123047 62.32159423828125 53.83894348144531 61.85321044921875 54.93685150146484 61.85321044921875 C 55.25544357299805 61.85321044921875 55.57720184326172 61.89267349243164 55.89427947998047 61.97394180297852 L 58.38798141479492 62.61394119262695 C 58.48846435546875 62.63975524902344 58.59090805053711 62.65242767333984 58.69282150268555 62.65242767333984 C 58.93804931640625 62.65242767333984 59.17998504638672 62.5789909362793 59.3825798034668 62.43849182128906 C 59.66936111450195 62.23960113525391 59.84666061401367 61.9276008605957 59.8650016784668 61.58959197998047 L 59.99790954589844 59.12835311889648 C 60.07390975952148 57.73667144775391 61.00127029418945 56.51835250854492 62.36404037475586 56.01983261108398 L 64.7755126953125 55.13851165771484 C 65.10655212402344 55.01766204833984 65.36261749267578 54.76036071777344 65.47216796875 54.43851089477539 C 65.58173370361328 54.11666107177734 65.53304290771484 53.76477432250977 65.33969116210938 53.48114395141602 L 63.93149948120117 51.41532135009766 C 63.13581085205078 50.2471809387207 63.13581085205078 48.74098205566406 63.93149948120117 47.57284164428711 L 65.33969116210938 45.50702285766602 C 65.53301239013672 45.22342300415039 65.58170318603516 44.87158203125 65.47215270996094 44.54977416992188 C 65.36260223388672 44.22796249389648 65.10658264160156 43.970703125 64.77558135986328 43.84986114501953 L 62.36404037475586 42.96846389770508 C 61.00128173828125 42.46993255615234 60.07392120361328 41.25163269042969 59.99790954589844 39.85996246337891 L 59.86515045166016 37.3985710144043 C 59.84677124023438 37.06058120727539 59.66944885253906 36.74862289428711 59.3826789855957 36.54975128173828 C 59.1800651550293 36.40923690795898 58.93816757202148 36.33581924438477 58.69290542602539 36.33581924438477 C 58.59104156494141 36.33581924438477 58.48856735229492 36.34849166870117 58.38813018798828 36.37428283691406 L 55.89443206787109 37.0142822265625 C 55.57727432250977 37.0955696105957 55.25568771362305 37.13500595092773 54.93701553344727 37.13500595092773 C 53.83921051025391 37.13500595092773 52.77770233154297 36.66658782958984 52.06589126586914 35.82698059082031 L 50.44255065917969 33.91009140014648 C 50.21960830688477 33.64697265625 49.88415145874023 33.49410247802734 49.52970886230469 33.49410247802734 C 49.17528915405273 33.49410247802734 48.83982086181641 33.64697265625 48.61687850952148 33.91009140014648 L 46.9935417175293 35.82705307006836 C 46.2816162109375 36.66679382324219 45.22030639648438 37.13511276245117 44.12231826782227 37.13511276245117 C 43.80381393432617 37.13511276245117 43.48199081420898 37.09565353393555 43.16500091552734 37.01442337036133 L 40.67129898071289 36.37443161010742 C 40.57081985473633 36.34861755371094 40.46835708618164 36.33594131469727 40.3664436340332 36.33594131469727 C 40.12122344970703 36.33594131469727 39.87930679321289 36.40937042236328 39.67671966552734 36.54986190795898 C 39.38993072509766 36.74873352050781 39.21261978149414 37.06071090698242 39.19427871704102 37.39871215820313 L 39.06137084960938 39.86003112792969 C 38.9853515625 41.25169372558594 38.05799865722656 42.47000122070313 36.69524002075195 42.96853256225586 L 34.28376007080078 43.84986114501953 C 33.95273971557617 43.97068405151367 33.69667053222656 44.22795104980469 33.58710861206055 44.54978179931641 C 33.4775390625 44.87160110473633 33.52624130249023 45.22348403930664 33.71958160400391 45.50708389282227 L 35.12776947021484 47.57297134399414 C 35.92329025268555 48.74114227294922 35.92329025268555 50.24723434448242 35.12776947021484 51.4153938293457 L 33.71958160400391 53.48128128051758 C 33.52626037597656 53.76487350463867 33.47756958007813 54.11672210693359 33.58712005615234 54.43853378295898 C 33.69665908813477 54.76034164428711 33.95269012451172 55.01760101318359 34.28369140625 55.13844299316406 L 36.69515991210938 56.01977157592773 C 38.05792999267578 56.51829147338867 38.98527908325195 57.73660278320313 39.0612907409668 59.12827301025391 L 39.19421005249023 61.58959197998047 C 39.21255874633789 61.92758178710938 39.38986968994141 62.23956298828125 39.67663955688477 62.43845367431641 C 39.8792610168457 62.5789680480957 40.12119293212891 62.65240478515625 40.36645889282227 62.65240478515625 C 40.46833038330078 62.65240478515625 40.57077789306641 62.63973617553711 40.67121887207031 62.61394119262695 L 43.16492080688477 61.97394180297852 C 43.48226928710938 61.89250564575195 43.80414199829102 61.85298919677734 44.12302017211914 61.85298919677734 C 45.22075271606445 61.85298919677734 46.2821044921875 62.32150650024414 46.99362182617188 63.16132354736328 L 48.61679840087891 65.07807159423828 C 48.83974075317383 65.34122467041016 49.17522048950195 65.49410247802734 49.52967071533203 65.49410247802734 M 49.52967071533203 67.49410247802734 C 48.58449172973633 67.49410247802734 47.69556045532227 67.08470153808594 47.0908088684082 66.37088012695313 L 45.46736145019531 64.45381164550781 C 45.14873123168945 64.07773590087891 44.64606094360352 63.85299301147461 44.12302017211914 63.85299301147461 C 43.96757888793945 63.85299301147461 43.8124885559082 63.87256240844727 43.66205978393555 63.91117095947266 L 41.16839981079102 64.55116271972656 C 40.90684127807617 64.61832427978516 40.63695907592773 64.65240478515625 40.36645889282227 64.65240478515625 C 39.70769882202148 64.65240478515625 39.07503890991211 64.45513153076172 38.53688049316406 64.0819091796875 C 37.73759841918945 63.52757263183594 37.24930953979492 62.65868377685547 37.19715118408203 61.69801330566406 L 37.06420135498047 59.23612213134766 C 37.03200149536133 58.64666366577148 36.6174201965332 58.12095260620117 36.00806045532227 57.89804077148438 L 33.59716033935547 57.01692199707031 C 32.69385147094727 56.68714141845703 31.99987030029297 55.98217391967773 31.69379997253418 55.08299255371094 C 31.38377952575684 54.17229080200195 31.52330017089844 53.15237426757813 32.06703186035156 52.35475158691406 L 33.47518157958984 50.28892135620117 C 33.80881881713867 49.79898071289063 33.80881881713867 49.18938064575195 33.47468185424805 48.69872283935547 L 32.06698989868164 46.63355255126953 C 31.52326011657715 45.83598327636719 31.38372993469238 44.81599426269531 31.69384002685547 43.90518188476563 C 31.99992942810059 43.00603103637695 32.69398880004883 42.30106353759766 33.59801864624023 41.97109222412109 L 36.00870895385742 41.09005355834961 C 36.61748886108398 40.86735153198242 37.03208160400391 40.34163284301758 37.06435012817383 39.75094223022461 L 37.19718933105469 37.29087066650391 C 37.24935150146484 36.32958221435547 37.73770141601563 35.46064376831055 38.53704833984375 34.90634155273438 C 39.07514190673828 34.5331916809082 39.70774841308594 34.33594131469727 40.36643981933594 34.33594131469727 C 40.63702011108398 34.33594131469727 40.90700149536133 34.37005233764648 41.16888046264648 34.43732070922852 L 43.66217041015625 35.07720184326172 C 43.8118896484375 35.11557388305664 43.96694183349609 35.13511276245117 44.12232208251953 35.13511276245117 C 44.64567947387695 35.13511276245117 45.14873886108398 34.91029357910156 45.46800994873047 34.5337028503418 L 47.09062194824219 32.61760330200195 C 47.69570922851563 31.90345191955566 48.58459854125977 31.49410247802734 49.52970886230469 31.49410247802734 C 50.47481918334961 31.49410247802734 51.36371994018555 31.90345191955566 51.96846008300781 32.61719131469727 L 53.59212875366211 34.53447341918945 C 53.91067123413086 34.91020202636719 54.41368865966797 35.13501358032227 54.93701171875 35.13501358032227 C 55.09238052368164 35.13501358032227 55.24744033813477 35.11546325683594 55.39786911010742 35.076904296875 L 57.89094924926758 34.43706130981445 C 58.15251159667969 34.36990356445313 58.42240142822266 34.33582305908203 58.69290924072266 34.33582305908203 C 59.35166168212891 34.33582305908203 59.98429870605469 34.5330924987793 60.52244186401367 34.90629196166992 C 61.32162094116211 35.46051406860352 61.80995941162109 36.32934188842773 61.86220169067383 37.28997421264648 L 61.99501037597656 39.75224304199219 C 62.02719879150391 40.3415641784668 62.44179153442383 40.86728286743164 63.05115127563477 41.09020233154297 L 65.46214294433594 41.97140121459961 C 66.36537933349609 42.30115127563477 67.05937194824219 43.006103515625 67.36544799804688 43.90525436401367 C 67.67548370361328 44.81599426269531 67.53597259521484 45.83590316772461 66.99226379394531 46.63352203369141 L 65.58408355712891 48.6993408203125 C 65.25031280517578 49.1893424987793 65.25031280517578 49.79882431030273 65.58445739746094 50.28939437866211 L 66.99227142333984 52.35464096069336 C 67.53598785400391 53.15225219726563 67.67552185058594 54.17221069335938 67.365478515625 55.08301162719727 C 67.05941772460938 55.98219299316406 66.36538696289063 56.68721389770508 65.46135711669922 57.01724243164063 L 63.05057144165039 57.89831161499023 C 62.44178009033203 58.12101364135742 62.02719116210938 58.64672088623047 61.99493026733398 59.23741149902344 L 61.86209106445313 61.69744110107422 C 61.80992889404297 62.65869140625 61.32162857055664 63.52762222290039 60.52236175537109 64.08193969726563 C 59.98421096801758 64.45515441894531 59.35157012939453 64.65242004394531 58.69282150268555 64.65242004394531 C 58.42221832275391 64.65242004394531 58.15224838256836 64.61832427978516 57.89039993286133 64.55105590820313 L 55.39709854125977 63.91116333007813 C 55.24729156494141 63.87276077270508 55.09223175048828 63.85321426391602 54.93685150146484 63.85321426391602 C 54.41355133056641 63.85321426391602 53.91056060791016 64.07802581787109 53.59135055541992 64.45458221435547 L 51.96879959106445 66.37057495117188 C 51.36378860473633 67.08470153808594 50.47486114501953 67.49410247802734 49.52967071533203 67.49410247802734 Z"/></g><line class="b" x2="13" y2="13" transform="translate(725.5 615.5)"/><g class="b" transform="translate(736 617)"><circle class="c" cx="1" cy="1" r="1"/><circle class="e" cx="1" cy="1" r="2"/></g><g class="b" transform="translate(726 625)"><circle class="c" cx="1" cy="1" r="1"/><circle class="e" cx="1" cy="1" r="2"/></g></g></svg>