<svg xmlns="http://www.w3.org/2000/svg" width="19.015" height="13.001" viewBox="0 0 19.015 13.001"><defs><style>.a{fill:#cb2027;fill-rule:evenodd;}</style></defs><path class="a" d="M1096.67,955.088a2.382,2.382,0,0,0-2.05-1.833,98.22,98.22,0,0,0-14.23,0,2.394,2.394,0,0,0-2.06,1.833,29.614,29.614,0,0,0,0,8.818,2.382,2.382,0,0,0,2.05,1.833,97.856,97.856,0,0,0,14.23,0,2.371,2.371,0,0,0,2.05-1.833,19.105,19.105,0,0,0,.34-4.409,19.683,19.683,0,0,0-.33-4.409Zm-11.62,7.3V956.22c2.01,1.031,4.01,2.056,6.04,3.094-2.02,1.032-4.02,2.051-6.04,3.078Z" transform="translate(-1078 -952.997)"/></svg>