<svg xmlns="http://www.w3.org/2000/svg" width="13.997" height="15.001" viewBox="0 0 13.997 15.001"><defs><style>.a{fill:#29ace2;fill-rule:evenodd;}</style></defs><path class="a" d="M992.956,875.667a.462.462,0,0,0-.45-.369,1.558,1.558,0,0,1-1.45-1.028,1.753,1.753,0,0,1,.392-1.854.44.44,0,0,0,.042-.566,7.167,7.167,0,0,0-1.109-1.2.372.372,0,0,0-.532.046,1.537,1.537,0,0,1-1.745.42,1.679,1.679,0,0,1-.946-1.628.409.409,0,0,0-.343-.438,6.482,6.482,0,0,0-1.575,0,.408.408,0,0,0-.347.429,1.679,1.679,0,0,1-.958,1.6,1.543,1.543,0,0,1-1.733-.423.372.372,0,0,0-.528-.048,7.24,7.24,0,0,0-1.133,1.2.439.439,0,0,0,.042.57,1.746,1.746,0,0,1,.392,1.871,1.613,1.613,0,0,1-1.523,1.014.391.391,0,0,0-.4.368,8.108,8.108,0,0,0,0,1.706.47.47,0,0,0,.459.369,1.534,1.534,0,0,1,1.44,1.028,1.749,1.749,0,0,1-.391,1.854.437.437,0,0,0-.042.565,7.227,7.227,0,0,0,1.107,1.2.371.371,0,0,0,.533-.046,1.537,1.537,0,0,1,1.745-.42,1.677,1.677,0,0,1,.947,1.628.409.409,0,0,0,.343.438A6.6,6.6,0,0,0,986,884a6.373,6.373,0,0,0,.769-.046.408.408,0,0,0,.346-.429,1.679,1.679,0,0,1,.958-1.6,1.542,1.542,0,0,1,1.734.423.372.372,0,0,0,.528.047,7.155,7.155,0,0,0,1.132-1.2.438.438,0,0,0-.041-.57,1.744,1.744,0,0,1-.393-1.871,1.569,1.569,0,0,1,1.432-1.017h.087a.4.4,0,0,0,.41-.367A8.107,8.107,0,0,0,992.956,875.667Zm-6.945,3.351a2.508,2.508,0,1,1,2.335-2.5,2.426,2.426,0,0,1-2.335,2.5Z" transform="translate(-979.007 -869.002)"/></svg>