<svg xmlns="http://www.w3.org/2000/svg" width="43.582" height="43.582" viewBox="0 0 43.582 43.582"><defs><style>.a,.b,.f{fill:none;}.b,.c{stroke:#707070;stroke-width:2px;}.c{fill:#fff;}.d,.e{stroke:none;}.e{fill:#707070;}</style></defs><g transform="translate(-433.08 -475.631)"><g class="a" transform="translate(480.456 -170.923) rotate(45)"><path class="d" d="M465,507V484l-10-9-11,9v23Z"/><path class="e" d="M 465 507 L 465 484 L 455 475 L 444 484 L 444 507 L 465 507 M 467 509 L 465 509 L 444 509 L 442 509 L 442 507 L 442 484 L 442 483.05224609375 L 442.7335205078125 482.4520874023438 L 453.7335205078125 473.4520874023438 L 455.0620422363281 472.3651123046875 L 456.3379211425781 473.5133972167969 L 466.3379211425781 482.5133972167969 L 467 483.1092834472656 L 467 484 L 467 507 L 467 509 Z"/></g><line class="b" x2="23" transform="translate(439.444 497.293) rotate(45)"/><g class="c" transform="translate(457.121 488.808) rotate(45)"><circle class="d" cx="4.5" cy="4.5" r="4.5"/><circle class="f" cx="4.5" cy="4.5" r="3.5"/></g></g></svg>