<svg xmlns="http://www.w3.org/2000/svg" width="29.316" height="34.69" viewBox="0 0 29.316 34.69"><defs><style>.a{fill:none;fill-rule:evenodd;}.b,.c{stroke:none;}.c{fill:#707070;}</style></defs><g transform="translate(-997 -486.909)"><g class="a" transform="translate(895 410.409)"><path class="b" d="M116.658,76.5a7.329,7.329,0,1,1-7.329,7.329A7.2,7.2,0,0,1,116.658,76.5Zm0,34.691A17.823,17.823,0,0,1,102,103.373c0-4.886,9.772-7.573,14.658-7.573s14.658,2.687,14.658,7.573A17.823,17.823,0,0,1,116.658,111.191Z"/><path class="c" d="M 116.6579513549805 78.5 C 115.1835556030273 78.5 113.831298828125 79.04027557373047 112.8502655029297 80.02130126953125 C 111.8692474365234 81.0023193359375 111.328971862793 82.35458374023438 111.328971862793 83.8289794921875 C 111.328971862793 85.30338287353516 111.8692474365234 86.6556396484375 112.8502655029297 87.63666534423828 C 113.831298828125 88.61769104003906 115.1835556030273 89.15796661376953 116.6579513549805 89.15796661376953 C 118.1323623657227 89.15796661376953 119.484619140625 88.61769104003906 120.4656372070313 87.63667297363281 C 121.4466552734375 86.65565490722656 121.986930847168 85.30338287353516 121.986930847168 83.8289794921875 C 121.986930847168 82.35458374023438 121.4466552734375 81.00231170654297 120.4656372070313 80.02129364013672 C 119.484619140625 79.04027557373047 118.1323623657227 78.5 116.6579513549805 78.5 M 116.6579513549805 97.79965209960938 C 114.6147003173828 97.79965209960938 111.2290267944336 98.35572052001953 108.2712020874023 99.59801483154297 C 105.9638290405273 100.5671005249023 104.4586791992188 101.7504348754883 104.0889282226563 102.8535919189453 C 107.091194152832 106.8352127075195 111.7358322143555 109.1905059814453 116.6579513549805 109.1905059814453 C 121.5801010131836 109.1905059814453 126.2247619628906 106.835205078125 129.2269897460938 102.8535919189453 C 128.8572387695313 101.7504348754883 127.3520889282227 100.5671005249023 125.0447158813477 99.59801483154297 C 122.0868759155273 98.35572052001953 118.7012023925781 97.79965209960938 116.6579513549805 97.79965209960938 M 116.6579513549805 76.5 C 120.8110580444336 76.5 123.986930847168 79.67589569091797 123.986930847168 83.8289794921875 C 123.986930847168 87.98207092285156 120.8110580444336 91.15796661376953 116.6579513549805 91.15796661376953 C 112.5048751831055 91.15796661376953 109.328971862793 87.98207092285156 109.328971862793 83.8289794921875 C 109.328971862793 79.67589569091797 112.5048751831055 76.5 116.6579513549805 76.5 Z M 116.6579513549805 95.79965209960938 C 121.5439376831055 95.79965209960938 131.31591796875 98.48694610595703 131.31591796875 103.3729248046875 C 128.1400451660156 108.0146102905273 122.7654495239258 111.1905059814453 116.6579513549805 111.1905059814453 C 110.5504684448242 111.1905059814453 105.1759033203125 108.0146102905273 102 103.3729248046875 C 102 98.48694610595703 111.77197265625 95.79965209960938 116.6579513549805 95.79965209960938 Z"/></g></g></svg>